<svg xmlns="http://www.w3.org/2000/svg" width="32" height="34" viewBox="0 0 32 34"><g fill="none"><path fill="#04087F" stroke="#04087F" d="M6.895 28.108c.394.682.943.82 1.648.412h0l6.21-3.585 3.67 6.355c.457.792 1.065.969 1.825.53.723-.417.856-1.022.398-1.814h0l-3.669-6.355 5.343-3.085 3.669 6.356c.383.663.936.786 1.659.368.76-.438.948-.99.565-1.652h0l-3.67-6.356 6.21-3.585c.652-.376.738-.978.26-1.807-.394-.682-.911-.826-1.552-.431h0l-6.178 3.64-4.052-7.018 6.21-3.586c.723-.417.862-1.013.415-1.787-.425-.736-1-.896-1.723-.479h0l-6.21 3.586-3.67-6.356c-.457-.792-1.011-1-1.662-.624-.832.48-1.019 1.116-.561 1.908h0L15.699 9.1l-5.343 3.084-3.669-6.355c-.457-.792-1.047-.98-1.77-.562-.76.438-.911 1.054-.454 1.846h0l3.67 6.355-6.243 3.53c-.715.39-.834.998-.355 1.827.393.681.948.828 1.664.44h0l6.242-3.531 4.02 6.963-6.21 3.586c-.705.407-.824 1.016-.356 1.826v-.001zm8.892-6.694l-4.089-7.081 5.25-2.957 4.057 7.025-5.218 3.013h0z"/><path fill="#A97BFF" stroke="#A97BFF" d="M6.958 29.005c.393.682.94.82 1.642.415l6.179-3.567 3.67 6.355c.456.792 1.063.97 1.818.534.72-.415.85-1.019.394-1.811l-3.67-6.355 5.315-3.07 3.67 6.356c.383.663.934.787 1.653.372.756-.436.942-.986.56-1.65l-3.67-6.355 6.179-3.567c.647-.374.732-.975.253-1.804-.394-.682-.909-.826-1.546-.434l-6.146 3.622-4.053-7.018 6.179-3.567c.72-.416.856-1.01.41-1.784-.426-.737-.999-.898-1.718-.482l-6.179 3.567-3.67-6.355c-.456-.792-1.009-1.002-1.656-.628-.828.478-1.013 1.113-.556 1.905l3.67 6.355-5.315 3.07L6.7 6.752c-.457-.792-1.046-.98-1.765-.565-.755.436-.905 1.05-.447 1.842l3.67 6.356-6.211 3.511c-.713.387-.83.995-.35 1.824.393.681.946.829 1.658.442l6.21-3.512 4.02 6.964-6.178 3.567c-.702.405-.818 1.013-.35 1.823l.001.001zm8.789-6.298l-4.107-7.113 5.158-2.903 4.074 7.057-5.125 2.96v-.001z"/><path fill="#15FFF6" stroke="#15FFF6" d="M16.984 12.42l8.427-4.866c.727-.42.869-1.014.425-1.782-.422-.731-.996-.887-1.723-.467L17.87 8.909 14.229 2.6c-.454-.786-1.008-.99-1.662-.613-.836.483-1.027 1.117-.573 1.904l3.642 6.308 1.348 2.22v.001z"/></g></svg>