<svg xmlns="http://www.w3.org/2000/svg" width="14" height="15" viewBox="0 0 14 15"><path fill="#C0CCDA" d="M7.454 0C3.371 0 .044 3.34 0 7.459v.014c.045 4.034 3.303 7.305 7.302 7.305 2.456 0 4.534-.743 6.232-2.801a.648.648 0 00.109-.634.634.634 0 00-1.087-.19c-1.483 1.798-3.029 2.34-5.254 2.34-3.312 0-5.988-2.684-6.028-6.028.04-3.427 2.784-6.18 6.18-6.18 1.38 0 2.715.474 3.684 1.305.97.832 1.59 1.998 1.59 3.51v.124c0 1.088-.508 2.12-1.205 2.875-.697.755-1.589 1.181-2.116 1.181-.117 0-.112-.014-.121-.025-.01-.01-.06-.08-.06-.296v-.033s-.043-.752.384-1.8l.001-.004 1.478-3.705a.648.648 0 00-.062-.613.635.635 0 00-1.118.132l-.082.206a2.346 2.346 0 00-.39-.376c-.54-.41-1.205-.553-1.893-.553-.921 0-1.929.528-2.81 1.443a5.668 5.668 0 00-1.587 3.956c0 1.623 1.314 2.953 2.92 2.953.884 0 1.575-.379 2.042-.829.058.134.127.261.225.372.274.311.687.457 1.073.457 1.083 0 2.168-.638 3.047-1.59.88-.952 1.546-2.268 1.546-3.75V6.1c0-1.877-.813-3.44-2.037-4.49C10.739.56 9.119 0 7.454 0zm.09 4.498c.513 0 .878.105 1.13.296.229.174.409.447.518.938l-.757 1.9-.43 1.074a.643.643 0 000 .003c-.225.362-.444.767-.741 1.068-.297.3-.622.503-1.197.503A1.648 1.648 0 014.42 8.612c0-1.327.543-2.35 1.227-3.06.685-.71 1.557-1.054 1.897-1.054z"/></svg>