<svg xmlns="http://www.w3.org/2000/svg" width="40" height="40" viewBox="0 0 40 40"><g fill="none" fill-rule="evenodd"><circle cx="20" cy="20" r="20" fill="#242424"/><path fill="#FFF" fill-rule="nonzero" d="M14.687 13a.68.68 0 00-.477 1.17l6.354 6.328-6.354 6.33a.68.68 0 00.301 1.15c.24.062.495-.01.666-.187l6.837-6.811a.68.68 0 000-.963l-6.837-6.81a.685.685 0 00-.49-.207zm4.786 0a.68.68 0 00-.477 1.17l6.354 6.328-6.354 6.33a.68.68 0 00.301 1.15c.24.062.494-.01.666-.187L26.8 20.98a.68.68 0 000-.963l-6.837-6.81a.685.685 0 00-.49-.207z"/></g></svg>