<svg xmlns="http://www.w3.org/2000/svg" width="63" height="63" viewBox="0 0 63 63"><g fill="none" fill-rule="evenodd"><circle cx="31.5" cy="31.5" r="31.5" fill="#EDEEF4"/><path fill="#141414" fill-rule="nonzero" d="M38.51 17.069l-3.704-.006c-4.162 0-6.851 2.764-6.851 7.042v3.247H24.23a.583.583 0 00-.582.583v4.705c0 .322.26.583.582.583h3.725v11.87c0 .323.26.584.582.584h4.86a.583.583 0 00.582-.584v-11.87h4.355a.583.583 0 00.582-.583l.002-4.705a.585.585 0 00-.583-.583H33.98v-2.753c0-1.323.315-1.994 2.035-1.994l2.495-.001a.583.583 0 00.583-.583v-4.369a.583.583 0 00-.582-.583z"/></g></svg>