<svg xmlns="http://www.w3.org/2000/svg" width="191" height="34" viewBox="0 0 191 34"><g fill="none"><path fill="#04087F" stroke="#04087F" d="M6.895 28.108c.394.682.943.82 1.648.412h0l6.21-3.585 3.67 6.355c.457.792 1.065.969 1.825.53.723-.417.856-1.022.398-1.814h0l-3.669-6.355 5.343-3.085 3.669 6.356c.383.663.936.786 1.659.368.76-.438.948-.99.565-1.652h0l-3.67-6.356 6.21-3.585c.652-.376.738-.978.26-1.807-.394-.682-.911-.826-1.552-.431h0l-6.178 3.64-4.052-7.018 6.21-3.586c.723-.417.862-1.013.415-1.787-.425-.736-1-.896-1.723-.479h0l-6.21 3.586-3.67-6.356c-.457-.792-1.011-1-1.662-.624-.832.48-1.019 1.116-.561 1.908h0L15.699 9.1l-5.343 3.084-3.669-6.355c-.457-.792-1.047-.98-1.77-.562-.76.438-.911 1.054-.454 1.846h0l3.67 6.355-6.243 3.53c-.715.39-.834.998-.355 1.827.393.681.948.828 1.664.44h0l6.242-3.531 4.02 6.963-6.21 3.586c-.705.407-.824 1.016-.356 1.826zm8.892-6.694l-4.089-7.081 5.25-2.957 4.057 7.025-5.218 3.013z"/><path fill="#A97BFF" stroke="#A97BFF" d="M6.958 29.005c.393.682.94.82 1.642.415l6.179-3.567 3.67 6.355c.456.792 1.063.97 1.818.534.72-.415.85-1.019.394-1.811l-3.67-6.355 5.315-3.07 3.67 6.356c.383.663.934.787 1.653.372.756-.436.942-.986.56-1.65l-3.67-6.355 6.179-3.567c.647-.374.732-.975.253-1.804-.394-.682-.909-.826-1.546-.434l-6.146 3.622-4.053-7.018 6.179-3.567c.72-.416.856-1.01.41-1.784-.426-.737-.999-.898-1.718-.482l-6.179 3.567-3.67-6.355c-.456-.792-1.009-1.002-1.656-.628-.828.478-1.013 1.113-.556 1.905l3.67 6.355-5.315 3.07L6.7 6.752c-.457-.792-1.046-.98-1.765-.565-.755.436-.905 1.05-.447 1.842l3.67 6.356-6.211 3.511c-.713.387-.83.995-.35 1.824.393.681.946.829 1.658.442l6.21-3.512 4.02 6.964-6.178 3.567c-.702.405-.818 1.013-.35 1.823zm8.789-6.298l-4.107-7.113 5.158-2.903 4.074 7.057-5.125 2.96z"/><path fill="#15FFF6" stroke="#15FFF6" d="M16.984 12.42l8.427-4.866c.727-.42.869-1.014.425-1.782-.422-.731-.996-.887-1.723-.467L17.87 8.909 14.229 2.6c-.454-.786-1.008-.99-1.662-.613-.836.483-1.027 1.117-.573 1.904l3.642 6.308 1.348 2.22z"/><path fill="#04087F" d="M44.541 24.642l4.995-12.768h-2.348l-3.92 10.393-3.92-10.393H37l4.994 12.768h2.547zM52.482 9.55c.8 0 1.449-.664 1.449-1.481 0-.818-.65-1.507-1.449-1.507-.824 0-1.473.69-1.473 1.507s.65 1.48 1.473 1.48zm1.074 15.092V11.874h-2.172v12.768h2.172zm7.517.332c1.373 0 2.472-.357 3.346-1.047.874-.69 1.323-1.634 1.323-2.783.025-2.733-2.572-3.473-4.52-3.907-1.373-.384-2.472-.92-2.472-1.916 0-1.098 1-1.71 2.223-1.71 1.323 0 2.222.536 2.672 1.634l1.823-1.047c-.8-1.66-2.473-2.656-4.495-2.656-1.274 0-2.323.357-3.172 1.072-.824.715-1.248 1.635-1.248 2.733 0 2.707 2.547 3.37 4.52 3.907 1.373.332 2.472.894 2.472 1.89 0 1.2-1.049 1.736-2.472 1.736-1.524 0-2.697-.766-3.097-1.992l-1.873 1.099c.724 1.813 2.547 2.987 4.97 2.987zm8.34-15.424c.8 0 1.449-.664 1.449-1.481 0-.818-.65-1.507-1.449-1.507-.824 0-1.473.69-1.473 1.507s.65 1.48 1.473 1.48zm1.074 15.092V11.874h-2.173v12.768h2.173zm10.213.332c1.748 0 3.247-.638 4.47-1.94 1.224-1.303 1.848-2.912 1.848-4.776 0-1.864-.624-3.448-1.848-4.75-1.223-1.302-2.722-1.966-4.47-1.966-2.072 0-3.646.842-4.72 2.528V6.766h-2.172v17.876h2.173v-2.196c1.073 1.686 2.647 2.528 4.72 2.528zm-.274-2.145c-1.274 0-2.323-.434-3.172-1.302-.849-.894-1.273-1.967-1.273-3.269s.424-2.375 1.273-3.243c.85-.894 1.898-1.328 3.172-1.328 1.248 0 2.297.434 3.146 1.328.85.868 1.274 1.94 1.274 3.243 0 1.302-.425 2.375-1.274 3.269-.849.868-1.898 1.302-3.146 1.302zm11.362 1.813V6h-2.173v18.642h2.173zm9.314.332c2.447 0 4.27-.97 5.494-2.885l-1.848-1.073c-.75 1.251-1.948 1.864-3.596 1.864-2.372 0-4.095-1.328-4.52-3.6h10.463a6.68 6.68 0 00.075-.996c0-1.865-.574-3.448-1.748-4.75-1.148-1.328-2.647-1.992-4.47-1.992-1.922 0-3.496.638-4.72 1.915-1.223 1.277-1.822 2.886-1.822 4.801 0 1.94.624 3.55 1.848 4.827 1.248 1.251 2.871 1.89 4.844 1.89zm3.87-7.635h-8.34c.375-2.248 1.998-3.703 4.32-3.703 1.998 0 3.646 1.277 4.02 3.703zm10.364 7.303l2.297-7.737 2.298 7.737h3.071l3.97-12.768h-3.42l-2.123 7.865-2.272-7.865h-3.047l-2.272 7.84-2.123-7.84h-3.421l3.97 12.768h3.072zm19.328.358c1.848 0 3.421-.638 4.695-1.94 1.273-1.303 1.922-2.912 1.922-4.802 0-1.89-.649-3.473-1.922-4.775-1.274-1.303-2.847-1.967-4.695-1.967-1.848 0-3.421.664-4.695 1.967-1.273 1.302-1.897 2.885-1.897 4.775 0 1.89.624 3.499 1.897 4.801 1.274 1.303 2.847 1.941 4.695 1.941zm0-3.218c-.974 0-1.773-.332-2.422-.996-.625-.664-.95-1.506-.95-2.528 0-1.021.325-1.864.95-2.528.649-.664 1.448-.996 2.422-.996.974 0 1.773.332 2.422.996.65.664.974 1.507.974 2.528 0 1.022-.324 1.864-.974 2.528-.649.664-1.448.996-2.422.996zm12.111 2.86v-7.176c0-1.864.924-2.885 2.348-2.885 1.323 0 2.097.893 2.097 2.426v7.635h3.222v-7.176c0-1.864.849-2.885 2.322-2.885 1.323 0 2.098.893 2.098 2.426v7.635h3.22v-7.865c0-3.192-1.847-5.26-4.719-5.26-1.648 0-2.896.612-3.72 1.838-.725-1.226-1.873-1.839-3.397-1.839-1.573 0-2.722.562-3.47 1.711v-1.353h-3.222v12.768h3.221zm24.248.358c2.397 0 4.22-.92 5.444-2.733l-2.598-1.532c-.624.843-1.573 1.277-2.796 1.277-1.923 0-3.097-.792-3.521-2.4h9.414a8.82 8.82 0 00.125-1.354c0-1.915-.6-3.499-1.798-4.801-1.174-1.302-2.697-1.94-4.52-1.94-1.923 0-3.521.638-4.745 1.94-1.223 1.277-1.848 2.886-1.848 4.801 0 1.94.625 3.55 1.873 4.827 1.249 1.277 2.897 1.915 4.97 1.915zm2.846-7.942h-6.367c.374-1.635 1.548-2.58 3.271-2.58 1.473 0 2.722.843 3.096 2.58zm8.69 7.584v-6.895c0-2.12 1.074-3.166 2.747-3.166 1.499 0 2.473.919 2.473 2.63v7.431H191v-7.84c0-1.66-.45-2.936-1.348-3.881-.874-.945-1.998-1.405-3.372-1.405-1.698 0-2.946.587-3.72 1.788v-1.43h-3.222v12.768h3.222z"/></g></svg>