<svg xmlns="http://www.w3.org/2000/svg" width="432" height="546" viewBox="0 0 432 546"><defs><linearGradient id="a" x1="41.539%" x2="-17.979%" y1="50.958%" y2="49.036%"><stop offset="0%" stop-color="#C9C5C5"/><stop offset="25.32%" stop-color="#E7E5E5"/><stop offset="100%" stop-color="#C5C2C2"/></linearGradient><linearGradient id="b" x1="49.578%" x2="51.245%" y1="54.497%" y2="-2.273%"><stop offset="3.25%" stop-color="#FFBEB5"/><stop offset="100%" stop-color="#F49E95"/></linearGradient></defs><g fill="none"><path fill="#4484F7" d="M74.935 432.957L34.15 415.099.863 517.828s8.74 4.449 17.433-6.425c8.694-10.875 45.922-36.264 45.922-36.264l10.717-42.182z"/><path fill="#C5C5C5" d="M232.277 672.447l38.22 22.152s59.075-149.788 61.968-180.089c2.893-30.3.58-66.438-3.47-96.173-4.067-29.717-11.584-54.779-5.8-81.588l-1.01-.127c-21.182 2.983-49.48-3.455-61.986-6.838a47.931 47.931 0 00-7.878-1.42c-2.06 3.438-17.386 32.1 4.283 96.972 23.166 69.347 5.783 79.259-1.736 100.248-7.536 20.97-11.584 33.791-9.848 53.616 1.735 19.825-6.939 14.567-11.585 40.211-4.627 25.645-1.158 53.036-1.158 53.036z"/><path fill="url(#a)" d="M203.9 72.222S41.834 128.002 4.878 104.486c-5.783-14.331-8.53-34.082 7.048-80.696 2.676-7.985 4.77-15.404 6.417-22.316.018-.018.018-.018.018-.037l.324-.654s6.417 35.973 40.029 31.683c33.63-4.292 32.564-5.365 49.642-.527 17.078 4.819 28.825-6.984 37.896-8.057 9.072-1.073 39.487-2.692 46.967 5.912L203.9 72.222z" transform="matrix(-1 0 0 1 268.527 401.55)"/><path fill="#F1B505" d="M175.083 200.665c24.851 36.312 43.627 54.469 43.914 92.55.287 38.064 4.063 40.179 4.063 40.179s19.638-7.402 38.123-2.406c16.238 4.411 59.217 14.055 78.279 1.166 19.08-12.869 31.505-25.466 34.96-39.52l-20.052-19.122c-3.29 2.77-5.126 4.867-6.78 8.33 0 0-36.848-16.68-52.26-42.365-15.412-25.684-21.13-39.485-21.13-39.485s2.283 13.853-3.778 12.98c-6.078-.894-17.444-16.096-17.444-16.096s-12.03 5.541-21.562-19.635c-9.53-25.193-10.7-43.641-9.818-48.326l-63.371 4.12c.007-.002-7.997 31.314 16.856 67.63z"/><path fill="#FFBEB5" d="M195.012 131.611s-18.835-46.997-8.452-67.874c10.382-20.877 18.17-34.606 18.17-34.606s-5.193-3.43-9.807 3.43c-4.615 6.863-7.789 10.867-8.652 6.863-.865-4.006-4.614-34.031-5.768-37.177-1.153-3.146-4.614-3.43-5.48 2.002-.865 5.432 3.302 22.956-.733 19.524-4.04-3.43-8.494-20.097-9.36-20.954-.865-.856-12.689 8.866-16.151 18.305-3.46 9.438 5.768 23.737 11.536 32.318s2.884 22.878-4.327 80.648l39.024-2.479zM371.49 259.549c-8.437 6.869-13.655 10.548-17.183 13.488l19.783 18.462c20.401 7.573 47.33 16.119 55.311 21.33 13.565 8.869 26.256 20.03 26.256 20.03 6.054-9.449-13.565-22.612-12.691-26.613.854-4.003 4.327-4.562 24.512-5.427 20.182-.866 21.91-8.583 17.582-8.87-4.31-.289-20.764 2.002-22.2-.56-1.435-2.577 24.22 0 20.474-3.154-.945-.795-2.202-1.714-3.582-2.633-5.363-3.624-12.092-4.596-18.29-2.74-13.292 3.948-31.076 8.277-37.24 7.375-7.345-1.065-46.037-29.497-50.439-32.742a30.077 30.077 0 01-2.293 2.054z"/><path fill="#FFF" d="M221.375 137.594a.186.186 0 00-.082-.264.219.219 0 00-.285.076.187.187 0 00.082.263c.1.055.226.02.285-.075zm-9.92-4.265a.186.186 0 01.034-.273.221.221 0 01.293.03.185.185 0 01-.033.273.216.216 0 01-.293-.03zm9.617 11.723c-.12-.055-.17-.191-.11-.3a.254.254 0 01.325-.1c.12.053.17.19.108.298a.252.252 0 01-.323.102zm-2.19-11.891a.216.216 0 01.022-.317.255.255 0 01.34.021.214.214 0 01-.024.317.253.253 0 01-.339-.021zm-4.387 3.55a.211.211 0 01.023-.313.26.26 0 01.342.02.211.211 0 01-.025.313.252.252 0 01-.34-.02zm-4.385 3.553a.21.21 0 01.021-.313c.1-.08.25-.071.34.02a.214.214 0 01-.024.316c-.1.079-.25.07-.337-.023zm12.482 12.985c-.143-.052-.215-.203-.159-.333.056-.134.218-.197.36-.147.144.051.216.201.159.331-.056.137-.216.2-.36.149zm-12.415-19.224c-.062-.13.002-.281.142-.34a.29.29 0 01.369.133.252.252 0 01-.143.339c-.144.057-.307 0-.368-.132zm-6.153 2.5c-.063-.132.003-.282.142-.342a.29.29 0 01.368.133c.063.13 0 .281-.142.338a.284.284 0 01-.368-.13zm14.913 3.415a.245.245 0 01-.008-.363.295.295 0 01.393-.007c.11.098.115.26.008.363a.289.289 0 01-.393.007zm-4.645 4.487a.244.244 0 01-.008-.364.294.294 0 01.394-.009c.11.098.11.26.005.365a.291.291 0 01-.391.008zm-4.647 4.484a.245.245 0 01-.01-.363.295.295 0 01.393-.008c.11.099.115.26.008.365a.291.291 0 01-.391.006zm10.83-14.998a.215.215 0 01.118-.292c.12-.05.262 0 .316.11.054.111 0 .243-.12.293a.248.248 0 01-.314-.11zm-5.268 2.194a.215.215 0 01.118-.292c.12-.05.262 0 .316.113.054.11.002.241-.12.291-.117.047-.26-.003-.314-.112zm-5.27 2.19a.215.215 0 01.119-.291c.121-.05.262 0 .316.11.054.11 0 .242-.12.292a.245.245 0 01-.314-.11zm8.456 6.905a.209.209 0 01-.01-.312.254.254 0 01.338-.01c.095.082.1.225.01.313a.254.254 0 01-.338.009zm-3.957 3.89a.21.21 0 01-.01-.313.254.254 0 01.337-.009c.097.084.1.223.01.312a.254.254 0 01-.337.01zm6.96.912a.192.192 0 01.09-.266.223.223 0 01.289.086.185.185 0 01-.094.263.216.216 0 01-.285-.083zm-4.602 2.174a.192.192 0 01.093-.266.225.225 0 01.288.086.191.191 0 01-.093.267.224.224 0 01-.288-.087zm3.492-16.922c.036-.104.16-.162.27-.129a.198.198 0 01.14.25c-.036.105-.16.162-.269.129-.116-.032-.18-.145-.14-.25zm-4.92-1.47c.036-.105.159-.162.27-.129a.198.198 0 01.14.25.219.219 0 01-.27.129c-.116-.035-.176-.147-.14-.25zm6.36 27.825a.187.187 0 01-.023-.279.227.227 0 01.301-.021c.088.07.1.197.025.279a.228.228 0 01-.303.02zm-4.826-18.427c-.01-.11.079-.205.197-.212.118-.01.224.07.23.181.01.108-.078.203-.198.212-.116.008-.22-.076-.229-.181zm-5.151.38c-.01-.108.077-.203.196-.214.118-.008.22.073.23.182.01.109-.077.204-.197.213-.118.008-.22-.072-.23-.181zm7.709 16.589a.248.248 0 01.046-.364.295.295 0 01.393.043.247.247 0 01-.046.363.297.297 0 01-.393-.042zm-5.31 3.867a.249.249 0 01.044-.364.3.3 0 01.395.043.247.247 0 01-.046.363.293.293 0 01-.393-.042zm6.566-21.798c.02-.144.159-.244.31-.229a.267.267 0 01.248.29c-.02.142-.159.243-.311.227-.154-.02-.265-.149-.247-.288zm-6.712-.74c.016-.143.159-.244.308-.229a.265.265 0 01.245.29c-.016.142-.158.243-.307.225-.156-.015-.266-.145-.246-.286zm-6.717-.74c.017-.143.16-.243.313-.23a.27.27 0 01.246.29c-.017.142-.16.244-.311.227-.156-.017-.264-.144-.248-.288zm18.97 28.95c-.135-.07-.184-.228-.107-.352a.292.292 0 01.383-.099c.135.07.184.228.107.353a.295.295 0 01-.383.099zm-3.306 5.454a.247.247 0 01-.107-.353.29.29 0 01.38-.098c.134.07.184.229.107.353a.287.287 0 01-.38.098zm-4.723-24.221c-.042-.14.046-.28.197-.32.147-.04.303.041.344.179.04.14-.046.28-.195.32-.149.039-.305-.042-.346-.18zm-6.51 1.694c-.042-.14.046-.28.195-.32.147-.037.303.043.345.18.043.14-.044.28-.194.319-.148.039-.303-.041-.346-.18zm-6.507 1.694c-.043-.14.044-.281.195-.32a.283.283 0 01.344.18c.042.136-.044.28-.193.319-.151.04-.305-.041-.346-.179zm15.182-20.217a.294.294 0 01.382-.098.248.248 0 01.106.353.292.292 0 01-.381.098.248.248 0 01-.107-.353zm5.52 32.991a.188.188 0 01-.036-.277.228.228 0 01.301-.033.188.188 0 01.036.277.23.23 0 01-.301.033zm-4.524-16.662c-.015-.107.067-.207.185-.221.118-.014.224.062.237.173.015.107-.067.207-.185.22-.116.013-.223-.067-.237-.172zm-5.117.577c-.015-.108.07-.207.186-.221a.214.214 0 01.238.172c.015.11-.07.208-.187.22-.116.014-.222-.064-.237-.171zm5.608 8.05c-.057-.094-.021-.215.082-.27.1-.051.232-.02.291.076a.187.187 0 01-.082.267.217.217 0 01-.291-.073zm-4.487 2.345c-.057-.094-.02-.215.082-.27a.22.22 0 01.288.076.193.193 0 01-.078.27c-.105.051-.234.018-.292-.076zm2.312-18.787a.212.212 0 01.262-.137c.115.03.184.14.151.243-.031.104-.15.163-.264.136-.113-.027-.18-.138-.149-.242zm-4.963-1.277c.032-.104.151-.165.262-.139.115.03.179.14.148.242a.214.214 0 01-.262.137.188.188 0 01-.148-.24zm7.387 22.668a.224.224 0 01.075-.324.267.267 0 01.35.068.225.225 0 01-.073.324.264.264 0 01-.352-.068zm-5.156 3.097a.225.225 0 01.073-.324.27.27 0 01.354.07.224.224 0 01-.075.323.269.269 0 01-.352-.07zm1.88-20.416c.027-.128.163-.209.3-.183.14.027.227.152.197.28a.252.252 0 01-.301.18.234.234 0 01-.197-.277zm-6.015-1.182c.028-.129.167-.209.303-.182.14.028.224.153.197.28-.028.13-.166.21-.302.182-.137-.029-.226-.151-.198-.28zm14.591 27.66a.223.223 0 01-.064-.327.27.27 0 01.356-.06.223.223 0 01.063.326.273.273 0 01-.355.06zm-3.478 4.681a.223.223 0 01-.065-.327.267.267 0 01.353-.059.225.225 0 01.066.327.264.264 0 01-.354.06zm-2.117-22.288c-.025-.129.066-.25.206-.274a.25.25 0 01.295.19c.025.128-.065.25-.205.273a.253.253 0 01-.296-.189zm-6.045 1.037c-.025-.128.065-.251.204-.274.136-.023.272.06.297.19.028.128-.066.25-.205.272a.253.253 0 01-.296-.188zm-6.04 1.037c-.025-.13.065-.251.204-.274a.25.25 0 01.295.19c.028.128-.066.25-.202.274-.14.022-.273-.063-.298-.19zm10.48-20.362a.265.265 0 01.354-.059.224.224 0 01.066.329.271.271 0 01-.356.059.23.23 0 01-.064-.329zm-5.062-3.217a.266.266 0 01.353-.06.223.223 0 01.064.326.268.268 0 01-.354.06c-.116-.073-.147-.22-.063-.326zm12.598 36.11a.246.246 0 01.024-.364.298.298 0 01.395.026.245.245 0 01-.028.365.294.294 0 01-.391-.026zm-5.066 4.1a.248.248 0 01.024-.365.298.298 0 01.395.025c.1.106.09.27-.025.364a.296.296 0 01-.394-.025zm-5.065 4.1a.248.248 0 01.025-.364.298.298 0 01.394.026c.1.107.089.27-.028.365a.3.3 0 01-.39-.026zm5.312-21.986c.01-.142.144-.25.295-.24.155.009.27.131.26.273-.01.143-.143.252-.295.24-.154-.01-.268-.13-.26-.273zm-6.715-.413c.011-.142.144-.25.296-.24.154.008.269.132.259.273-.01.142-.143.248-.295.24-.152-.008-.27-.13-.26-.273zm-6.714-.413c.01-.143.145-.25.297-.241.154.01.268.133.26.274-.011.142-.144.25-.296.24-.159-.009-.274-.131-.26-.273zm10.996-23.483a.299.299 0 01.393.023c.1.107.088.27-.028.365a.299.299 0 01-.393-.023.243.243 0 01.028-.365zm9.082 51.332a.248.248 0 01-.126-.347c.067-.129.238-.182.377-.118.14.062.195.218.128.348a.302.302 0 01-.379.117zm-2.985 5.579a.25.25 0 01-.127-.347c.067-.129.235-.18.375-.117a.25.25 0 01.127.347c-.068.127-.234.179-.375.117zm-6.045-23.854c-.05-.135.028-.281.177-.327.144-.044.303.027.354.162a.257.257 0 01-.176.327c-.147.046-.306-.026-.355-.162zm-6.376 1.994c-.048-.133.03-.28.175-.327.146-.042.305.027.354.162.049.135-.028.282-.177.327-.144.046-.303-.027-.352-.162zm-6.374 1.996c-.048-.135.027-.28.175-.327.145-.047.303.027.35.162.05.134-.028.28-.173.327-.146.044-.305-.03-.352-.162zm13.963-20.82c.068-.128.238-.18.377-.118a.251.251 0 01.126.347c-.065.129-.236.182-.375.118-.14-.065-.198-.22-.128-.347zm-6.033-2.761c.067-.129.235-.18.374-.118a.25.25 0 01.128.348c-.067.126-.236.179-.375.118-.139-.065-.195-.22-.127-.348zm-6.031-2.757c.067-.129.236-.18.375-.118a.25.25 0 01.128.346c-.068.129-.236.18-.377.118-.14-.066-.195-.218-.126-.346z"/><g fill="#1C2868"><path d="M254.512 153.378s8.603-13.609 29.99-7.618c21.386 5.99 28.469 34.666 15.048 44.014-12.892 8.983-18.19 11.922-18.19 11.922s18.718 5.79 35.617 2.143c16.896-3.646 55.71-14.844 81.85 10.418 0 0-9.24 32.555-25.61 45.838-16.37 13.282-20.595 14.584-24.027 21.616 0 0-37.229-16.408-52.807-41.67-15.578-25.263-21.36-38.84-21.36-38.84s-.81-1.716-.916-3.175c0 0-.084-4.858 3.82-6.214 5.556-1.932 3.55-.922 6.794-1.988 3.241-1.066 6.874-6.522 3.451-10.256-3.422-3.732-6.304-2.311-9.369-3.198-3.065-.892-17.775-5.111-24.291-22.992z"/><path d="M399.34 209.96c-17.256-12.271-37.068-15.244-57.63-10.934-16.334 3.424-32.026 9.194-48.974 7.433-.576-.06-.582-.958 0-.896 20.134 2.09 38.45-6.608 58.079-9.013 17.592-2.155 34.657 2.445 48.984 12.635.469.335.017 1.112-.46.775z"/></g><path fill="url(#b)" d="M146.427 54.137l-.127.18c-1.31 1.666-11.741 14.845-17.502 15.65-5.798.808-4.035-11.348-3.836-12.656.018-.071.018-.107.018-.107l.019-.018c.072-.198.78-1.793.891-3.174 0 0 .018-.501-.109-1.237 1.69.18 3.726.305 6.162.36 5.38.107 9.378-.664 12.268-1.722-.29.537.564 1.398 1.29 2.025.49.414.926.7.926.7z" transform="matrix(-1 0 0 1 400 144)"/><path fill="#FFBEB5" d="M240.215 172.7c2.49 2.133 4.035 1.828 4.362 3.675.235 1.362-.582 8.696 4.143 14.234l.146.144s.018.018.053.07a.337.337 0 01.054.09c.455.61 2.326 2.868 6.778 4.481 0 0 .018.019.036.019 2.892 1.058 6.888 1.827 12.268 1.722 2.436-.053 4.47-.18 6.162-.36.254-1.524 1.055-4.034 3.707-4.966 5.562-1.937 3.544-.932 6.798-1.991.109-.036.2-.071.31-.125.49-.251.998-.574 1.51-.932.108-.071.235-.162.345-.27 2.345-2.114 3.927-6.041 1.273-8.928-3.417-3.729-6.288-2.312-9.361-3.191-2.58-.752-13.468-3.873-20.7-15.579-.054-.089-.128-.18-.183-.287-1.473-2.33-2.413-4.815-3.4-7.135 0 0-7.468 10.74-11.504 13.195-4.034 2.44-5.287 3.982-2.797 6.134z"/><path fill="#1C2868" d="M238.923 157.316c.72-3.305 3.498-5.528 6.193-4.96 2.695.572 4.305 3.726 3.585 7.03-.083.386-.2.756-.336 1.11 1.59.638 2.53 2.179 3.2 3.701.137-.132.26-.279.408-.4 1.362-1.111 2.954-1.545 4.482-1.22 3.12.661 4.977 4.315 4.143 8.149-.4 1.838-1.352 3.446-2.683 4.534-1.067.872-2.276 1.325-3.484 1.325-.334 0-.668-.034-.997-.105-1.531-.323-2.802-1.364-3.583-2.927-.761-1.53-.959-3.383-.56-5.22a8.34 8.34 0 011.606-3.41c-.575-1.393-1.406-3.04-2.911-3.61-1.019 1.898-2.786 3.126-4.627 3.126a4.27 4.27 0 01-.852-.087c-2.694-.577-4.302-3.73-3.584-7.036zm11.744 15.84c.654 1.313 1.704 2.183 2.956 2.445 1.254.27 2.57-.1 3.713-1.034 1.175-.958 2.015-2.391 2.374-4.03.728-3.352-.817-6.527-3.444-7.083a3.79 3.79 0 00-.803-.083c-.998 0-2.01.384-2.91 1.12-1.175.957-2.016 2.39-2.374 4.03-.356 1.638-.184 3.286.488 4.635zm-7.966-9.687c2.213.467 4.5-1.45 5.112-4.27.615-2.823-.682-5.498-2.887-5.964-2.213-.47-4.502 1.45-5.112 4.27-.615 2.823.679 5.498 2.887 5.964z"/></g></svg>