<svg xmlns="http://www.w3.org/2000/svg" xmlns:xlink="http://www.w3.org/1999/xlink" width="340" height="374" viewBox="0 0 340 374"><defs><path id="a" d="M39.663 77.96c21.6.014 39.114-17.427 39.12-38.944C78.799 17.499 61.297.044 39.699.033 18.102.023.588 17.461.573 38.978c-.01 21.524 17.492 38.976 39.09 38.983z"/></defs><g fill="none" fill-rule="evenodd"><path fill="#A97BFF" d="M127.796 346.18c-3.345 0-6.728-.896-9.782-2.78-8.866-5.452-11.667-17.113-6.253-26.045l56.266-92.835c5.422-8.938 16.993-11.747 25.852-6.299 8.869 5.452 11.667 17.116 6.252 26.048L143.87 337.1a18.772 18.772 0 01-16.073 9.08"/><path fill="#EB9A77" d="M204.519 186.486l3.878 50.161 34.769-3.759-14.551-71.088z"/><path fill="#EB9A77" d="M246.806 152.85c-1.779 21.681-20.67 37.812-42.194 36.02-21.529-1.796-37.536-20.824-35.754-42.512 1.779-21.685 20.67-37.811 42.198-36.02 21.524 1.792 37.532 20.827 35.75 42.512"/><g transform="matrix(-1 0 0 1 248 111)"><mask id="b" fill="#fff"><use xlink:href="#a"/></mask><path fill="#072042" d="M77.256 16.751s3.54 18.767-53.26 6.738l-5.16 26.008s-6.848 39.381-7.248 34.546c-.404-4.84-43.088-74.1 15.411-90.772 54.697-15.587 50.257 23.48 50.257 23.48" mask="url(#b)"/></g><path fill="#EB9A77" d="M220.032 155.79c.438 5.506 5.257 9.613 10.76 9.178 5.506-.438 9.614-5.256 9.176-10.761-.435-5.506-5.254-9.613-10.757-9.175-5.506.438-9.617 5.253-9.179 10.758"/><path fill="#A97BFF" d="M196.01 210h66.487c20.112 0 29.153 19.382 28.467 31.662L275.689 366.78c-.662 5.85-5.648 10.258-11.55 10.22l-81.247-.581c-6.03-.045-11.013-4.716-11.432-10.721l-8.38-120.478c-1.327-19.043 13.798-35.22 32.93-35.22"/><path fill="#EB9A77" d="M253 210l-58 .045S197.912 230 224.16 230c26.253 0 28.84-20 28.84-20"/><path fill="#072042" d="M280.272 139.998c19.03-8.051 27.845-29.796 19.684-48.573-8.16-18.777-30.196-27.474-49.226-19.422-19.034 8.048-27.845 29.797-19.688 48.574 8.157 18.776 30.2 27.47 49.23 19.421"/><path fill="#EB9A77" d="M190.931 344.38c4.607-9.177 15.978-12.982 25.405-8.499a18.735 18.735 0 017.375 6.253l28.31 1.078L262 361.5l-39.82 3.285c-5.524 6.05-14.688 8.066-22.522 4.335-9.423-4.483-13.33-15.562-8.727-24.74"/><path fill="#CFD1D3" d="M244 372h-86v-10h86z"/><path fill="#E2E4E9" d="M171 372H41.67c-7.45 0-13.987-4.938-15.986-12.073L.467 269.846C-1.76 261.882 4.26 254 12.576 254H131.36c4.977 0 9.321 3.329 10.587 8.112L171 372z"/><path fill="#FFF" d="M95 321.5c0 6.904-5.597 12.5-12.502 12.5-6.9 0-12.498-5.596-12.498-12.5S75.597 309 82.498 309C89.403 309 95 314.596 95 321.5"/><path fill="#A97BFF" d="M241.408 374l79.353-.398c4.73-.055 9.435-1.58 12.95-4.745 6.148-5.527 7.876-14.115 4.796-21.372L286.893 227.99c-3.921-9.02-14.28-13.316-23.427-9.72-9.574 3.76-14.155 14.676-10.14 24.143l39.683 93.94-52.009.58.408 37.068z"/><path fill="#E5EBF1" d="M174.051 50c5.496 0 9.949-4.55 9.949-10.159V10.16C184 4.549 179.547 0 174.051 0H98.956C93.456 0 89 4.55 89 10.159V39.84C89 45.451 93.457 50 98.956 50h75.095z"/><path fill="#E5EBF1" d="M165 43v18l-20-18z"/><path fill="#FFF" d="M152 24a5 5 0 1010 0c0-2.761-2.241-5-5.002-5A5 5 0 00152 24m-20 0a5 5 0 1010 0c0-2.761-2.241-5-5.002-5A5 5 0 00132 24m-21 0a5 5 0 1010 0c0-2.761-2.241-5-5.002-5A5 5 0 00111 24"/></g></svg>