<svg xmlns="http://www.w3.org/2000/svg" width="315" height="520" viewBox="0 0 315 520"><defs><linearGradient id="a" x1="45.439%" x2="79.109%" y1="37.209%" y2="132.036%"><stop offset="0%" stop-color="#FFBEB6"/><stop offset="56.73%" stop-color="#F8AEA7"/><stop offset="100%" stop-color="#F2A19C"/></linearGradient><linearGradient id="b" x1="69.178%" x2="-23.707%" y1="48.72%" y2="58.019%"><stop offset="0%" stop-color="#FFBEB6"/><stop offset="56.73%" stop-color="#F8AEA7"/><stop offset="100%" stop-color="#F2A19C"/></linearGradient><linearGradient id="c" x1="-.001%" x2="99.999%" y1="50%" y2="50%"><stop offset="0%" stop-color="#428DFC"/><stop offset="100%" stop-color="#1D72D8"/></linearGradient><linearGradient id="d" x1="38.554%" x2="47.398%" y1="97.273%" y2="62.16%"><stop offset="0%" stop-color="#FFBEB6"/><stop offset="100%" stop-color="#F2A19C"/></linearGradient><linearGradient id="e" x1="13.072%" x2="78.334%" y1="77.34%" y2="32.151%"><stop offset="0%" stop-color="#428DFC"/><stop offset="100%" stop-color="#1D72D8"/></linearGradient><linearGradient id="f" x1="75.419%" x2="13.179%" y1="23.576%" y2="85.81%"><stop offset="0%" stop-color="#428DFC"/><stop offset="100%" stop-color="#1D72D8"/></linearGradient><linearGradient id="g" x1="-.001%" x2="99.998%" y1="49.999%" y2="49.999%"><stop offset="0%" stop-color="#EEE"/><stop offset="100%" stop-color="#D6D7D8"/></linearGradient></defs><g fill="none" fill-rule="evenodd"><path fill="#FFBEB6" fill-rule="nonzero" d="M325.94 80.553c4.786 2.93-8.09 9.994-9.737 11.236-5.511 4.157-9.889 5.504-15.402 9.662 0 0 20.305-4.973 24.148-.378 2.597 3.104-5.668 5.894-9.737 6.188-4.068.293-8.15 1.134-12.215 1.449-5.91.458-11.197 3.616-16.758 5.646-7.395 2.7-17.095 3.035-20.38-6.548-1.171-3.415-1.094-7.128-.077-10.591l10.915-37.187c5.146-.554 7.115 6.745 5.649 11.644-1.467 4.898-4.298 10.342-1.635 14.722a90.08 90.08 0 0131.534-20.254c1.554-.585 3.376-.268 4.512.93 1.614 1.699.718 3.5-.271 4.955-3.017 4.433-2.525 4.413-7.545 6.408 6.526-4.675 17.265-12.275 17.26-5.53-.004 6.43-6.74 11.429-12.96 13.339 5.932-3.411 10.57-6.995 12.699-5.691z"/><path fill="url(#a)" fill-rule="nonzero" d="M278.247 77.54c.842 2.115.776 4.553 1.789 6.585.612 1.23 1.58 2.226 2.348 3.359 2.785 4.104 2.72 9.514 2.547 14.524-.057 1.644-.114 3.297-.45 4.904-.562 2.683-1.912 5.184-3.828 7.088-1.334-1.689-3.633-2.065-5.579-2.906-4.684-2.021-7.701-7.535-6.963-12.726.137-.963.387-1.903.636-2.84l1.798-6.751c1.066-4.007 2.169-8.095 4.426-11.532.4-.61.943-1.255 1.656-1.245.778.01 1.323.796 1.62 1.54z"/><path fill="#1D72D8" fill-rule="nonzero" d="M60.41 40.677c.88 1.958.66 4.21.091 6.268-1.965 7.09-8.172 12.962-15.632 14.788-2.036.5-4.137.714-6.232.876a130.27 130.27 0 01-18.515.118c-3.208-.208-7.632-.094-8.092-3.122-.258-1.694 1.22-4.431 2.334-5.776 7.352-8.867 18.767-13.843 30.235-16.748 2.866-.727 5.842-1.347 8.78-.964 2.939.385 5.867 1.963 7.032 4.56z"/><path fill="#FFBEB6" fill-rule="nonzero" d="M.079 27.335c2.204 9.295 14.484 11.22 21.679 17.499 6.043 5.274 8.444 13.813 15.544 18.269 1.715 1.075 3.668 1.788 5.689 1.884 7.675.363 11.439-6.965 13.645-13.469A144.765 144.765 0 0064 14.288c-2.188-1.81-5.676-.087-7.067 2.388-1.819 3.24-1.52 7.336-3.86 10.42a5.588 5.588 0 01-2.311 1.799c-2.798 1.143-4.439-.48-5.92-2.004L30.42 12.063c-3.239-3.33-6.94-6.88-11.58-7.123-1.508-.078-3.43.667-3.373 2.179.025.638.421 1.195.82 1.694 5.416 6.773 16.288 16.165 14.027 18.815-1.175.56-5.512-4.706-8.019-8.482C16.381 10.244 6.713-3.089 4.22.644c-.516.987-.385 2.66.202 4.514.724 2.284-.312 5.104-2.654 5.608-.786.17-1.075 1.193-.459 3.818 3.267 7.962 9.718 15.944 17.089 20.38-3.218 1.17-6.9-2.836-9.333-5.244S-.848 22.355.08 27.335z"/><path fill="url(#b)" fill-rule="nonzero" d="M36.017 49.784c-.068 3.127-.02 6.5 1.791 9.03 1.831 2.559 5.067 3.648 8.154 4.03 2.649.329 5.465.216 7.801-1.098 2.95-1.659 4.666-4.986 5.398-8.333.734-3.348.649-6.817.922-10.237.766-9.594 4.371-18.93 3.87-28.543-1.4-1.297-3.794-.44-4.905 1.119-1.11 1.56-1.377 3.557-1.922 5.402-.75 2.542-2.07 4.87-3.488 7.099-.585.918-1.235 1.867-2.21 2.332-.764.365-1.636.386-2.475.479-4.963.547-9.515 4.01-11.435 8.703-1.283 3.136-1.426 6.62-1.5 10.017z"/><path fill="#63302F" fill-rule="nonzero" d="M173.929 459.415c-3.854 15.218-23.79-11.719-29.648-18.935-14.338-17.663-18.31-19.235-19.271-41.85-.384-9.017 10.552-19.636 20.813-26.63 12.333 3.043 29.415 75.24 28.106 87.415z"/><path fill="#D6D7D8" fill-rule="nonzero" d="M133.074 490.275c-4.136 7.646-27.68 29.74-36.237 28.689-5.926-.728-10.423-5.868-13.004-11.308-6.512-13.725 6.1-44.18 10.257-58.81 5.919-20.832 21.031-40.775 33.405-58.476 4.141-1.664 7.873 2.492 13.564 8.379 4.757 4.92 6.029 9.142 8.29 28.186 2.948 24.842-4.4 41.39-16.275 63.34z"/><path fill="#63302F" fill-rule="nonzero" d="M168.441 455.831c-2.027-6.978-10.135-24.672-10.788-29.078-.241-1.634-7.633-3.323-.681-8.94 7.53-6.085 15.079-12.66 23.573-16.813 5.432 7.89 7.668 12.578 11.68 21.38 12.601 27.627 14.24 40.551 22.775 73.689-2.328 9.47-40.046-17.808-46.559-40.238z"/><path fill="#D6D7D8" fill-rule="nonzero" d="M89.933 519.894c8.996 1.13 16.597-6.984 20.261-15.338 6.11-13.932 5.858-30.025 2.236-44.813-3.623-14.787-10.405-28.564-17.135-42.202l-8.184-16.584c-1.014-2.057-2.101-4.201-3.966-5.523-1.711-1.214-3.856-1.577-5.922-1.909C63.06 391.25 62.214 373.275 48.05 371c-.205 8.677.208 29.077 1.23 33.882 7.791 36.625 4.776 69.971 24.573 101.673 3.829 6.127 8.95 12.445 16.08 13.34z"/><path fill="url(#c)" fill-rule="nonzero" d="M72.236 199.25c3.145 9.806 8.135 19.414 7.742 29.706-.393 10.293-22.916 50.58-24.563 40.413-1.81-11.175-6.402-31.789-8.742-39.319C29.406 174.49 44.176 109.077 12 60.61c18.007-.766 35.653-8.226 48.755-20.61 1.822 38.325 3.642 76.65 5.463 114.976.71 14.923 1.454 30.049 6.018 44.273z"/><path fill="#1D72D8" fill-rule="nonzero" d="M33.748 329.383c-2.521 1.988-4.741 4.456-5.891 7.425-2.682 6.926 1.252 15.016 7.347 19.376 6.095 4.36 13.834 5.765 21.324 6.61a192.299 192.299 0 0045.01-.235c7.929-.977 17.257-2.534 19.157-10.163 1.275-5.111-1.6-11.775-5.82-15.014-4.22-3.239-9.506-4.761-14.65-6.216l-13.028-3.684c-8.925-2.524-17.953-5.064-27.231-5.439-9.279-.373-18.975 1.627-26.218 7.34z"/><path fill="url(#d)" fill-rule="nonzero" d="M53.526 268c-10.401 36.25-12.324 74.898-5.574 112a567.613 567.613 0 0059.749-5.154c1.386-.193 2.905-.465 3.788-1.55.862-1.058.843-2.555.792-3.918A293.246 293.246 0 01117 304.847c-22.404 2.17-45.322 4.309-67.174-1.083-1.134-.28-2.351-.576-3.442-.16-1.092.418-1.835 1.89-1.093 2.792.742.901 2.623-.324 1.848-1.197"/><path fill="url(#e)" fill-rule="nonzero" d="M27.51 346.488c10.46-6.688 18.858-14.867 31.275-14.805 7.774.04 15.235 2.848 22.498 5.618 13.443 5.128 36.883 11.771 39.648 16.699 18.103-38.714 31.731-81.153 39.069-123.255-9.454-11.725-27.444-9.148-42.508-9.196-18.973-.061-34.131-6.687-51.164 1.672-2.124 1.043-4.214 2.354-5.514 4.331-1.302 1.982-6.868 5.571-7.93 13.707-3.666 28.098-7.897 50.47-21.093 75.549-4.702 8.93-7.788 20.216-4.28 29.68z"/><path fill="#FFBEB6" fill-rule="nonzero" d="M144.06 184.684c1.828-2.23 4.661-4.488 7.36-3.403 3.132 1.259 3 5.695 1.77 8.791-3.247 8.171-13.617 11.448-22.19 13.928 1.168-8.217 7.762-12.85 13.06-19.316z"/><path fill="#F2A19C" fill-rule="nonzero" d="M90.46 226.747c10.825 3.988 29.275 2.904 33.558-5.047-2.039-11.626-1.914-22.246.982-33.7-9.32 9.886-22.969 15.814-36.79 15.98l-1.16 17.216c-.087 1.293-.146 2.695.607 3.767.64.91 1.742 1.393 2.804 1.784z"/><path fill="#63302F" fill-rule="nonzero" d="M216.282 135.907c-6.078 7.043-15.85 9.489-24.97 11.558-9.338 2.118-19.402 4.186-28.245.54-5.904-2.433-11.241-7.373-17.612-6.814-3.12.273-5.978 1.88-9.077 2.33-3.1.448-6.97-.959-7.378-4.032a49.205 49.205 0 0110.448-18.67c2.9-3.243 6.403-6.192 10.642-7.264 6.607-1.67 13.626 1.5 20.342.335 11.737-2.04 16.98-15.385 25.378-23.754 7.134-7.11 17.53-10.88 27.614-10.014 10.085.866 19.671 6.35 25.462 14.569.75 1.063 1.462 2.413.928 3.597-.442.98-1.563 1.433-2.57 1.835-9.353 3.727-17.317 10.767-22.113 19.545-2.964 5.427-4.8 11.548-8.85 16.24z"/><path stroke="#000" stroke-width=".958" d="M165.814 213.774L162 219c29.093-34.271 61.63-65.801 97-94a50.172 50.172 0 01-11.208 6.066m-138.838 18.182c13.784 8.835 24.993 21.337 32.046 35.742-2.058.178-3.241-2.098-4.193-3.86-4.075-7.538-13.492-10.972-22.304-11.65-8.813-.679-17.71.734-26.503-.154 5.385 1.047 16.383-23.008 20.954-20.078z"/><path d="M66 497c7.025-7.304 16.153-12.57 26-15l-4.024 5.648"/><path fill="#FFF" fill-rule="nonzero" d="M109.028 288.985c-.066.232.104.529.337.594.234.065.536-.101.6-.332.066-.232-.104-.529-.337-.594-.234-.068-.502-.016-.6.332zm-7.953 45.872c-.3.166-.366.398-.198.696.052.266.403.364.67.314.3-.166.367-.398.198-.697-.168-.298-.404-.363-.67-.313zm10.846-5.239c-.3.167-.367.399-.198.697.168.297.402.362.703.197.267-.051.366-.398.197-.696-.202-.182-.554-.28-.702-.198zm-12.114-20.162c.052.266.252.446.519.396.268-.051.449-.25.398-.515-.052-.265-.252-.445-.519-.396-.233-.066-.45.249-.398.515zm11.986-.79c.052.266.252.446.519.396.268-.051.449-.25.398-.515-.052-.265-.252-.445-.519-.395-.266.05-.451.25-.398.515zm8.06 41.577c-.184.198-.132.465.07.645.2.182.47.13.65-.07.185-.198.131-.463.049-.611-.317-.214-.585-.163-.77.036zm-20.5-52.56c-.067.23.135.413.368.478.234.065.417-.135.483-.365.066-.232-.136-.414-.37-.479-.266.05-.416.132-.482.365zm10.77.374c-.067.232.135.413.368.479.234.065.417-.135.483-.365.066-.232-.136-.414-.37-.48-.35-.098-.532.1-.482.366zm5.234 41.287c-.184.199-.13.464-.047.612.2.182.434.247.618.047.184-.198.248-.43.048-.612-.084-.148-.32-.212-.619-.047zm4.004-58.247c-.066.232-.013.495.218.562.235.065.503.014.567-.216.066-.232.014-.496-.219-.563-.233-.065-.5-.013-.566.217zm-11.243 36.064c-.268.052-.366.399-.284.547.052.265.287.33.553.28.268-.05.333-.283.283-.546-.05-.267-.402-.364-.552-.28zm10.033-3.714c-.268.051-.332.283-.283.547.052.265.286.33.553.28.268-.051.332-.283.283-.547-.052-.265-.286-.33-.553-.28zm-3.139-29.054c-.032.117.168.297.286.33.118.033.3-.166.333-.282.032-.117-.169-.297-.286-.33-.236-.066-.267.05-.333.282zm10.492 28.1c-.15.084-.065.232.019.38.085.15.352.1.384-.017.15-.084.1-.349-.018-.38-.086-.148-.234-.065-.385.017zm-3.064-41.807c-.033.116.018.38.136.413.117.032.384-.018.416-.134.032-.117-.018-.38-.136-.414-.234-.064-.384.02-.416.135zm-33.112 32.463c-.268.052-.366.399-.315.664.052.265.402.363.67.314.268-.052.366-.399.316-.664-.053-.266-.403-.365-.67-.314zm11.618-4.397c-.268.052-.366.399-.316.664.052.265.403.363.67.313.268-.051.367-.398.316-.663-.168-.3-.404-.365-.67-.314zm11.5-4.43c-.267.051-.366.398-.315.663.052.265.403.364.67.314.268-.051.367-.398.316-.664-.052-.266-.403-.365-.67-.313zm2.518-16.455c.052.265.22.562.487.51.268-.05.567-.216.515-.48-.052-.266-.219-.563-.487-.512-.265.05-.566.218-.515.482zm-7.932 43.122c-.184.199-.165.58.038.762.2.182.586.164.769-.036.183-.198.283-.547.08-.729-.32-.213-.587-.162-.887.003zm8.991-8.51c-.183.198-.283.546.038.761.2.182.47.13.737.08.184-.198.283-.546.08-.728-.288-.332-.554-.28-.855-.114zm3.942-41.984c.052.266.219.563.487.511.268-.051.567-.216.515-.481.066-.232-.104-.53-.487-.511-.234-.065-.535.101-.515.481zM99.84 316.478c-.184.199-.283.547-.08.729.202.182.553.28.736.08.184-.198.249-.43.08-.728-.202-.183-.554-.28-.736-.08zm9.36-8.035c-.183.199-.283.547-.08.729.2.182.437.247.737.08.183-.198.283-.546.08-.728-.319-.214-.554-.28-.737-.08zm9.244-8.063c-.184.199-.283.547-.08.729.2.182.553.28.737.08.183-.198.283-.546.08-.728-.169-.3-.554-.28-.737-.08zm-13.822-13.252c-.268.051-.366.398-.316.663.052.265.403.364.67.314.269-.051.367-.398.316-.664-.167-.297-.4-.363-.67-.313zm11.755-3.984c-.268.052-.367.399-.316.664.052.265.403.363.67.313.268-.051.367-.398.316-.663-.168-.298-.403-.365-.67-.314zm2.076 23c-.184.198-.1.348.103.528.201.182.352.099.536-.101.184-.199.1-.349-.104-.529-.234-.067-.352-.099-.535.101zm-9.091-17.442c-.15.083-.216.315-.13.463.085.149.318.215.466.13.15-.082.216-.314.13-.463-.082-.148-.315-.212-.466-.13zm8.023-4.65c-.15.083-.216.315-.165.58.085.149.318.215.467.13.15-.083.216-.314.13-.463-.015-.38-.25-.445-.432-.247z" opacity=".86"/><path fill="#FFBEB6" fill-rule="nonzero" d="M85.002 162.667c-.559 3.137-5.006 10.92-5.326 16.998-.359 6.819-3.395 17.544 7.17 25.19 7.972 5.77 12.691 6.145 22.533 6.145 10.23 0 22.116-5.422 27.86-10.445 2.632-2.302 9.857-13.252 10.5-16.687 1.754-9.345 2.46-15.308-3.216-22.935-3.123-4.195-7.946-6.743-12.708-8.906a153.937 153.937 0 00-22.364-8.133c-2.185-.608-4.473-1.172-6.702-.745-1.978.38-3.729 1.51-5.309 2.76-6.328 5.005-11.02 8.813-12.438 16.758z"/><path fill="url(#f)" fill-rule="nonzero" d="M155.667 260.625c-5.748 8.182-9.728 17.395-19.473 14.985-7.578-1.874-7.396-18.276-7.081-26.027.315-7.749 2.87-13.614 8.496-18.992 6.126-5.854 4.157-4.774 10.255-10.654C188.842 180.43 231.666 141.847 267.896 98c13.716 12.87 27.024 23.3 43.104 33.104l-97.69 69.08c-10.422 7.371-20.907 14.792-29.843 23.885-10.755 10.943-18.993 24.016-27.8 36.556z"/><path fill="#EEE" fill-rule="nonzero" d="M68.763 418.047c-10.774-15.848-7.868-20.945-13.238-30.544-5.37-9.599-7.367-6.785-7.525-17.762 26.584 4.774 40.839.091 66.962-6.741 1.365 25.251 9.213 49.842 20.186 72.67 6.396 13.306 14.022 26.657 14.799 41.38.775 14.72-6.919 50.928-22.904 33.142-15.28-14.237-30.545-29.595-37.891-49.068-5.708-15.13-7.27-33.5-20.389-43.077z"/><path fill="url(#g)" fill-rule="nonzero" d="M159.211 421.099c-.78-.986-3.47-2.729-5.198-1.867-10.397 5.187-30.767 15.407-39.616 25.009-1.37 1.487-2.793 3.07-3.236 5.041-.298 1.32-.126 2.693.061 4.032 2.796 20.04 8.915 39.54 17.38 57.927 3.9 8.469 7.946.392 12.792-2.535 3.809-2.3 26.474-28.868 32.352-46.333 1.892-20.53-7.181-30.799-14.535-41.274z"/><path fill="#63302F" fill-rule="nonzero" d="M128.987 141.747a.697.697 0 01-.686-.825c1.357-7.175 2.76-14.596 6.3-21.229 3.954-7.405 10.348-12.524 17.102-13.696 1.824-.316 3.682-.36 5.48-.405 1.796-.043 3.652-.088 5.417-.409 9.68-1.763 15.03-10.492 20.695-19.734 5.317-8.673 10.813-17.642 20.268-20.469 2.432-.727 5.146-1.076 7.769-1.415 5.923-.764 11.517-1.484 13.793-6.226.334-.698.535-1.841-.07-2.199a.695.695 0 11.708-1.197c1.361.8 1.275 2.632.62 3.996-2.603 5.424-8.841 6.23-14.873 7.006-2.568.331-5.223.674-7.546 1.367-8.945 2.675-14.3 11.413-19.48 19.863-5.576 9.097-11.341 18.502-21.635 20.377-1.872.34-3.784.386-5.633.432-1.747.042-3.553.086-5.273.384-6.335 1.098-12.356 5.95-16.11 12.979-3.442 6.445-4.824 13.76-6.161 20.833a.696.696 0 01-.685.567z"/><path fill="#63302F" fill-rule="nonzero" d="M127.84 139.3a.689.689 0 01-.69-.66c-.59-15.138.331-30.295 10.988-38.619 3.639-2.84 8.037-4.475 12.291-6.055 4.273-1.588 8.691-3.229 12.205-6.083 4.478-3.634 7.078-8.735 9.83-14.135 2.25-4.416 4.577-8.983 8.024-12.633 6.701-7.1 16.923-9.93 25.137-12.206a.686.686 0 11.368 1.324c-8.047 2.228-18.063 5.003-24.5 11.821-3.31 3.507-5.594 7.983-7.8 12.314-2.696 5.291-5.485 10.762-10.187 14.58-3.692 2.998-8.218 4.679-12.596 6.304-4.156 1.544-8.452 3.14-11.922 5.85-10.169 7.942-11.038 22.71-10.46 37.484a.688.688 0 01-.662.712c-.01.002-.018.002-.026.002z"/><path fill="#428DFC" fill-rule="nonzero" d="M126 135h13v12h-13z"/><path fill="#63302F" fill-rule="nonzero" d="M88 154.495c4.34-15.505 24.384-17.11 37.163-14.45 11.021 2.294 21.137 9.687 25.19 20.328 4.052 10.642.208 22.842-6.97 31.627-17.145-5.887-4.197-22.117-8.886-30.591-2.94-5.313-11.203-10.575-16.946-12.362-11.151-3.472-15.204-3.738-29.551 5.448z"/><path fill="#FFF" fill-rule="nonzero" d="M86.107 183c.393 1.142 1.68 3.549 3.595 4.714 10.76 6.554 22.125 6.554 34.298 3.117-7.514 4.622-15.969 7.788-24.811 7.066-3.238-.265-6.551-.949-9.2-2.793-2.65-1.843-4.458-8.97-3.882-12.104z"/><path fill="#63302F" fill-rule="nonzero" d="M132.488 172.886c-3.06 0-5.663-.855-7.791-2.567-2.829-2.277-4.098-5.7-5.326-9.012-.934-2.52-1.9-5.126-3.543-7.153-8.977-11.065-21.4-3.114-26.077-.123a.684.684 0 11-.74-1.152c4.958-3.174 18.132-11.603 27.883.414 1.785 2.2 2.791 4.914 3.764 7.539 1.217 3.281 2.366 6.382 4.9 8.421 4.247 3.42 10.776 2.963 19.403-1.348l.295-.147c6.44-3.22 13.739-6.87 20.517-4.09 1.709.7 3.226 1.776 4.693 2.816 1.835 1.3 3.568 2.528 5.608 3.048 3.899.994 8.095-.96 10.908-2.519a60.59 60.59 0 0016.63-13.543.692.692 0 01.967-.075.684.684 0 01.075.964 61.984 61.984 0 01-17.005 13.85c-3.016 1.672-7.538 3.766-11.916 2.65-2.288-.584-4.206-1.944-6.063-3.259-1.404-.996-2.855-2.024-4.421-2.665-6.2-2.544-13.202.959-19.38 4.047l-.296.148c-5.007 2.504-9.38 3.756-13.085 3.756z"/></g></svg>