<svg xmlns="http://www.w3.org/2000/svg" width="63" height="63" viewBox="0 0 63 63"><g fill="none" fill-rule="evenodd"><circle cx="31.5" cy="31.5" r="31.5" fill="#EDEEF4"/><path fill="#141414" fill-rule="nonzero" d="M45.938 22.484a11.758 11.758 0 01-3.403.938 5.973 5.973 0 002.605-3.299 11.811 11.811 0 01-3.762 1.447 5.9 5.9 0 00-4.325-1.883c-3.271 0-5.924 2.671-5.924 5.965 0 .467.052.922.154 1.359-4.923-.249-9.289-2.623-12.21-6.232a5.97 5.97 0 00-.803 2.998 5.975 5.975 0 002.635 4.965 5.852 5.852 0 01-2.683-.747v.075c0 2.89 2.043 5.3 4.752 5.848a5.866 5.866 0 01-2.675.103c.754 2.37 2.941 4.094 5.534 4.142a11.835 11.835 0 01-7.358 2.553c-.477 0-.95-.028-1.413-.083a16.675 16.675 0 009.08 2.68c10.897 0 16.856-9.088 16.856-16.97 0-.259-.006-.517-.017-.772a12.059 12.059 0 002.956-3.087z"/></g></svg>