<svg xmlns="http://www.w3.org/2000/svg" width="14" height="15" viewBox="0 0 14 15">
  <path fill="#C0CCDA" d="M7.45402901,0 C3.37083231,0 0.0444435412,3.3395378 0,7.45853623 L0,7.4654381 L0,7.4729677 C0.0445283798,11.5071153 3.30260186,14.7777778 7.30175364,14.7777778 C9.75797219,14.7777778 11.8358043,14.0346496 13.5344727,11.9768267 C13.6801387,11.800407 13.7215091,11.5589361 13.6430001,11.3433739 C13.564491,11.1278116 13.3780299,10.9709071 13.1538548,10.9317646 C12.9296797,10.8926221 12.7018482,10.9771883 12.5561821,11.1536081 C11.0726085,12.9508577 9.52724946,13.4927536 7.30175364,13.4927536 C3.98981592,13.4927536 1.3141535,10.8085354 1.27351831,7.4654381 C1.31457133,4.03786329 4.05832322,1.28502415 7.45402901,1.28502415 C8.83401301,1.28502415 10.1689447,1.75850676 11.1384682,2.59012681 C12.1079923,3.4217469 12.7271032,4.58802165 12.7271032,6.10009993 L12.7271032,6.22433575 C12.7271032,7.3119214 12.2199805,8.34473355 11.5231965,9.09932639 C10.8264125,9.85391892 9.93400968,10.2801932 9.40688116,10.2801932 C9.28999996,10.2801932 9.29488629,10.2655555 9.28568261,10.2550951 C9.27647861,10.2446347 9.22663707,10.1745 9.22663707,9.9589372 L9.22663707,9.9426235 L9.22601558,9.92630979 C9.22601558,9.92630979 9.1826779,9.1735889 9.61012204,8.12551903 C9.6106468,8.12423272 9.610839,8.1230415 9.61136503,8.12175423 L11.0893675,4.41664312 C11.1732624,4.2149037 11.149709,3.98393247 11.0268603,3.80367945 C10.9040115,3.62342644 10.6987517,3.51866553 10.4821308,3.52565941 C10.2268619,3.53399158 10.0012456,3.69555216 9.90907872,3.93601389 L9.8270367,4.14244595 C9.71006035,4.00108622 9.58058543,3.87452548 9.43733617,3.76597403 C8.89705768,3.35656212 8.2315551,3.21256039 7.54415106,3.21256039 C6.62296139,3.21256039 5.61512627,3.7409877 4.73420627,4.65570291 C3.85328692,5.57041748 3.14681456,6.92649961 3.14681456,8.61242271 C3.14681456,10.2349424 4.46089815,11.5652174 6.06677009,11.5652174 C6.95119373,11.5652174 7.64182297,11.1864318 8.10912311,10.7363518 C8.16676784,10.8696753 8.23619513,10.9971391 8.33411748,11.1084315 C8.60759172,11.4192264 9.02128636,11.5652174 9.40688116,11.5652174 C10.4896492,11.5652174 11.575109,10.9273311 12.4542508,9.9752509 C13.3333925,9.02317104 14,7.7067984 14,6.22433575 L14,6.10009993 C14,4.22260608 13.1866148,2.66056862 11.9626192,1.61067237 C10.7386236,0.560776124 9.11945025,0 7.45402901,0 Z M7.54415106,4.49758454 C8.05708837,4.49758454 8.42161291,4.60288745 8.67347399,4.79374245 C8.90285222,4.96756092 9.08254356,5.24138865 9.19245279,5.73178503 L8.43480585,7.63171316 L8.00594878,8.70591304 C8.00532434,8.70695704 8.00470285,8.70800284 8.00408431,8.70905042 C7.78049935,9.07094246 7.56087501,9.47626799 7.26384009,9.77697585 C6.96680549,10.0776834 6.64228937,10.2801932 6.06677009,10.2801932 C5.15039738,10.2801932 4.41971135,9.541961 4.41971135,8.61242271 C4.41971135,7.2852851 4.96289109,6.26230532 5.64723636,5.55170592 C6.33158195,4.84110651 7.20421793,4.49758454 7.54415106,4.49758454 Z"/>
</svg>
