<svg xmlns="http://www.w3.org/2000/svg" width="40" height="40" viewBox="0 0 40 40">
  <g fill="none" fill-rule="evenodd">
    <circle cx="20" cy="20" r="20" fill="#242424"/>
    <path fill="#FFF" fill-rule="nonzero" d="M0.686941413,0 C0.408730048,0 0.158302102,0.168056837 0.0536133227,0.424828863 C-0.0510754561,0.68160089 0.0108509866,0.975957821 0.210224261,1.16925262 L6.56378281,7.49838147 L0.210224261,13.8275104 C0.0316172143,13.9983337 -0.0403297575,14.2519962 0.0221307685,14.4906692 C0.0845912945,14.7293423 0.271699197,14.9157307 0.511293522,14.977951 C0.750887847,15.0401713 1.00552943,14.9685009 1.17701195,14.7905806 L8.01396394,7.97991653 C8.28085671,7.71393979 8.28085671,7.28282314 8.01396394,7.01684641 L1.17701195,0.206182229 C1.04829192,0.0743735797 0.871540284,0 0.686941413,0 Z M5.47280762,0 C5.19459633,0 4.94416854,0.168057064 4.83947987,0.424829052 C4.73479119,0.681601041 4.79671766,0.975957873 4.99609088,1.16925262 L11.3496493,7.49838147 L4.99609088,13.8275104 C4.8174818,13.9983332 4.74553324,14.2519967 4.80799347,14.490671 C4.87045369,14.7293453 5.05756253,14.9157347 5.29715808,14.9779547 C5.53675364,15.0401748 5.79139621,14.9685029 5.9628783,14.7905806 L12.7998304,7.97991653 C13.0667232,7.71393979 13.0667232,7.28282314 12.7998304,7.01684641 L5.9628783,0.206182229 C5.83415824,0.0743735458 5.65740654,0 5.47280762,0 Z" transform="translate(14 13)"/>
  </g>
</svg>
