<svg xmlns="http://www.w3.org/2000/svg" width="353" height="425" viewBox="0 0 353 425"><defs><linearGradient id="a" x1="-.001%" y1="50%" y2="50%"><stop offset="0%" stop-color="#04087F"/><stop offset="100%" stop-color="#1D72D8"/></linearGradient><linearGradient id="b" x1="35.32%" x2="66.067%" y1="-.271%" y2="100.744%"><stop offset="0%" stop-color="#428DFC"/><stop offset="100%" stop-color="#1D72D8"/></linearGradient></defs><g fill="none"><path fill="#F2A19C" d="M174 133h38v105h-38z"/><path fill="#E94A47" d="M163.295 99.614c-2.568-5.888-3.381-12.42-3.288-18.848.447-30.87 22.848-59.576 51.99-69.536 29.142-9.96 63.118-1.776 86.154 18.71 13.34 11.863 23.098 27.208 35.411 40.136 12.314 12.932 28.759 23.867 46.557 22.74 26.432-1.669 48.06-29.141 74.183-24.774 12.571 2.101 22.6 11.266 33.726 17.5 11.125 6.234 26.738 8.92 35.397-.46-1.814 18.7 1.445 25.691 3.198 38.803 1.753 13.111-2.506 28.9-15.038 40.212-13.745 12.401-20.482 24.99-27.796 42.017-5.9 13.735-3.673 29.383-3.566 44.338.108 14.955-3.205 31.87-15.797 39.883-18.952 4.531-34.424-15.37-53.02-21.216-13.534-4.254-28.147-.763-42.323-1.253-27.354-.946-53.528-18.193-65.243-42.993-4.834-10.227-7.305-21.41-11.538-31.9-10.664-26.43-32.988-47.876-59.778-57.433-25.358-9.042-58.452-11.202-69.229-35.926z"/><path fill="#FFBEB6" d="M241.078 42.364c-12.86-9.075-18.922-10.093-33.902-9.017-1.403.1-9.344 1.784-10.703 2.152-16.58 4.482-24.5 12.46-32.013 25.85-7.513 13.386-9.896 29.468-9.396 45.457.43 13.67 3.694 28.936 14.862 38.27 5.955 4.975 13.534 7.631 20.977 8.545 17.097 2.098 33.648-4.686 44.992-16.012 11.342-11.326 17.849-26.8 20.833-42.93 3.354-18.135.713-40.764-15.65-52.315z"/><path fill="#E94A47" d="M179.028 63.299c-1.716 1.646-4.028 5.073-4.028 5.073s3.022 3.266 4.412 4.196C198.648 85.414 219.944 96.02 242.526 104c8.036-24.392 10.397-50.126 6.91-75.282-6.952-2.004-14.632-3.999-21.44-1.667-2.244.767-4.237 1.965-6.192 3.177-15.6 9.668-29.97 20.779-42.776 33.071z"/><path fill="#E94A47" d="M170.69 63.521a.991.991 0 01-.73-.318.968.968 0 01.062-1.381l12.354-11.162c3.993-3.608 8.124-7.337 12.685-10.445 7.778-5.298 16.837-8.764 26.194-10.03a.992.992 0 011.115.839.978.978 0 01-.849 1.1c-9.05 1.226-17.81 4.579-25.337 9.703-4.45 3.029-8.528 6.713-12.474 10.276l-12.354 11.161a.993.993 0 01-.665.257z"/><path fill="#23286B" d="M176.332 91.395c-10.122 0-20.07-5.183-25.696-13.504a58.06 58.06 0 01-1.704-2.73.97.97 0 01.348-1.34 1.005 1.005 0 011.358.344c.535.89 1.067 1.778 1.648 2.64 5.545 8.203 15.59 13.132 25.565 12.592a.977.977 0 11.112 1.951c-.543.032-1.087.047-1.63.047z"/><path fill="#E94A47" d="M384.09 77.385c-11.967 0-23.347-3.617-31.606-12.23-20.535-21.407-43.805-45.668-73.964-57.3-27.721-10.695-65.907-8.041-85.249 17.72a.983.983 0 01-1.373.197.985.985 0 01-.197-1.375C211.63-2.14 250.814-4.933 279.22 6.023c30.566 11.789 55.022 37.287 74.672 57.772 16.452 17.152 46.032 13.499 66.75 1.029l.38-.227c10.598-6.381 23.781-14.327 33.919-6.848 18.18 13.412 44.627 15.036 64.311 3.952.432-.244.877-.465 1.332-.66a.98.98 0 11.78 1.8c-.392.17-.777.36-1.15.573-20.336 11.452-47.654 9.773-66.438-4.081-9.078-6.7-21.647.869-31.744 6.948l-.38.228c-11.087 6.675-24.665 10.874-37.563 10.876z"/><path fill="#A1C3FC" d="M339 222l57.572 56L401 263.698l-34.006-33.08zm-54-16l102.561 100L392 291.635l-78.946-76.978zm-13 22.394L379.542 333 384 318.606 276.458 214zm-8 28L371.54 361l4.46-14.394L268.461 242zm-8 26.957l76.963 75L361 367l-100.564-98zm-9 27.184l32.037 31.705L307 351l-55.574-55zm-6 20.328L254 335l-10.941-11z"/><path fill="url(#a)" d="M313.921 469.795c-.283-2.85 43.198 26.57 49.088-29.52 7.869-74.923-32.935-148.84-57.943-219.882-7.229-20.534-15.94-46.065-37.447-49.123-16.38-2.33-39.662 10.87-52.386 21.468-12.723 10.596-18.475 17.683-34.446 11.718-5.19-1.94-5.639-8.163-5.639-8.163s-41.319 3.54-52.78 15.554c-11.464 12.014-17.22 18.227-21.982 34.15L46 427.938h275.774l-7.853 41.858z" transform="translate(-1)"/><path fill="#FFBEB6" d="M125.08 237.158c5.402 5.32 12.425 11.086 19.683 8.906 1.41-1.194-3.744-11.266-8.19-14.843-1.728-1.39-3.894-2.085-5.932-2.962-3.785-1.632-8.368-8.898-10.183-6.887-3.985 5.855-9.5 10.135-15.732 13.453.356-5.366 3.48-12.145 6.558-15.943 4.886-6.025 5.312-8.964 10.196-14.987 3.38-4.167 10.3-12.689 7.56-17.303-2.468-4.158-19.275 14.445-26.518 28.78-2.374 4.698-4.62 11.48-10.565 19.349 2.44-7.073 2.627-10.819 4.352-14.885 2.711-6.393 2.225-9.709 4.939-16.103 2.12-4.995 4.968-13.548.467-16.577-2.32-1.56-4.272 3.303-5.184 5.943-5.757 16.643-8.167 28.59-13.925 45.232-1.947-12.285-4.743-11.312-6.69-23.595-.291-1.83-3.144-12.358-4.46-13.66-1.318-1.3-3.941-1.385-4.74.286-.454.955-.678 3.646.119 6.675 3.294 12.537 8.198 25.863 10.002 37.446-1.068 1.14-1.467 2.754-1.9 4.268-2.406 8.498-7.498 15.757-12.608 23.048-2.248 1.777-4.387 3.69-6.022 6.03-2.67 3.81-3.833 8.442-4.994 12.949A674.383 674.383 0 013 422.023c17.905 1.302 35.812 2.609 53.719 3.91 1.785.129 3.783.194 5.124-.995 1.3-1.152 1.515-3.07 1.642-4.804 2.335-31.865 4.671-63.823 3.16-95.738-.31-6.498-.748-13.199 1.423-19.33.121-.343.278-.661.414-.996.044.014.085.035.129.05l32.198-21.748c1.103-.747 2.223-1.5 3.483-1.936 1.26-.436 2.608-.537 3.94-.598 12.233-.564 35.777 9.545 35.551 6.007-.882-5.97-5.384-9.632-10.742-12.397-5.36-2.763-11.448-3.708-17.432-4.46-1.272-.16-2.63-.349-3.594-1.198-1.003-.887-1.343-2.288-1.632-3.596l-2.147-9.756c-.423-1.925-.848-3.933-.38-5.847 1.706-6.928 12.076-6.499 17.224-11.433z"/><path fill="#428DFC" d="M47.86 490.685c-23.12 3-36.767-15.906-47.712-36.39-2.72-5.093-.29-34.502 3.987-49.601 9.797-34.592 22.795-61.23 36.131-94.694 8.773.79 23.045 1.646 31.818 2.437 3.527 20.799 1.552 41.534 5.078 62.33 2.013 11.884.295 50.44-4.036 69.05-4.04 17.363-8.637 44.708-25.267 46.868z"/><path fill="#FFBEB6" d="M333.615 376.855c-1.53-5.79-7.33-9.186-12.441-12.32-27.75-17.02-48.33-43.297-68.117-69.129-4.587-5.988-9.267-12.05-15.176-16.707-6.277-9.436-13.721-18.25-16.797-29.077-.43-1.512-.832-3.12-1.9-4.262 1.805-11.557 6.708-24.855 10.006-37.37.796-3.023.574-5.708.118-6.66-.797-1.67-3.425-1.588-4.741-.287-1.319 1.297-4.172 11.803-4.461 13.633-1.948 12.26-4.745 11.288-6.692 23.547-5.758-16.609-8.17-28.532-13.929-45.14-.915-2.634-2.87-7.488-5.185-5.931-4.502 3.023-1.652 11.559.467 16.543 2.712 6.38 2.226 9.689 4.94 16.07 1.726 4.058 1.912 7.797 4.353 14.857-5.946-7.855-8.192-14.623-10.567-19.31-7.248-14.308-24.058-32.87-26.526-28.721-2.74 4.603 4.183 13.11 7.561 17.267 4.888 6.013 5.314 8.946 10.198 14.957 3.079 3.79 6.206 10.557 6.56 15.91-6.236-3.31-11.75-7.582-15.737-13.425-1.82-2.01-6.4 5.246-10.186 6.873-2.039.876-4.205 1.57-5.934 2.956-4.448 3.57-9.602 13.62-8.192 14.813 7.262 2.175 14.287-3.579 19.689-8.888 5.15 4.92 15.522 4.494 17.224 11.408.47 1.912.048 3.914-.378 5.835l-2.149 9.736c-.287 1.306-.627 2.703-1.632 3.589-.96.849-2.321 1.037-3.595 1.195-5.986.75-12.073 1.696-17.437 4.452-5.361 2.757-9.862 6.413-10.745 12.37-.226 3.53 23.32-6.556 35.561-5.992 1.332.061 2.679.161 3.941.597 1.26.436 2.381 1.188 3.484 1.932 9.345 6.297 6.021 4.566 12.075 8.777 1.229 1.031 2.557 1.95 3.996 2.692 5.382 2.772 11.666 3.404 17.055 6.157 9.498 4.849 14.562 15.239 18.98 24.93 12.962 28.424 25.923 56.844 38.89 85.268l28.726-11.61c9.692-3.912 21.354-11.448 18.693-21.535z"/><path fill="url(#b)" d="M353.502 473.005c6.03-6.319 8.033-17.677 7.38-29.364-.656-11.687-3.697-23.844-6.729-35.836-4.38-17.322-31.625-48.786-50.25-62.56C300.12 342.443 262.542 306 262.542 306S248.78 331.538 241 337.531c8.739 38.707 23.855 77.399 43.904 112.376 3.278 5.72 6.79 11.477 11.191 15.713 6.674 6.423 14.405 8.467 21.708 10.268 12.94 3.187 27.15 6.072 35.7-2.883z" transform="translate(-1)"/><path fill="#FFF" d="M299.956 397.249c-.023.335.156.617.49.64.332.023.61-.157.633-.492.023-.335-.156-.617-.489-.64-.329-.025-.61.157-.634.492zm3.419 56.119c-.28.18-.305.517-.123.799.179.282.512.307.792.123.28-.18.303-.517.123-.799-.102-.412-.512-.305-.792-.123zm10.932-9.185c-.28.18-.303.516-.123.798.179.283.512.307.792.124.28-.18.305-.517.123-.799-.055-.205-.514-.307-.792-.123zm-19.42-20.299a.949.949 0 00.77.46.952.952 0 00.455-.774c-.179-.282-.436-.435-.641-.382-.537.026-.689.283-.584.696zm13.72-4.208a.949.949 0 00.769.46c.28-.18.433-.44.456-.774-.18-.282-.438-.436-.642-.383-.536.027-.762.415-.583.697zm20.529 46.431c-.153.26-.048.67.21.822.257.153.664.047.816-.212.153-.259.048-.668-.21-.822-.256-.153-.666-.047-.816.212zm6.767-12.714c-.153.259-.048.668.21.821.257.154.664.048.816-.211.153-.26.048-.67-.21-.822-.254-.154-.662-.048-.816.212zm-44.68-43.033c.053.205.363.565.642.383.203-.053.558-.365.38-.646-.053-.204-.363-.564-.643-.382-.331-.023-.482.234-.379.645zm12.48-2.68c.052.204.362.564.64.382.204-.053.484-.234.38-.645-.052-.205-.232-.487-.64-.383-.28.183-.433.44-.38.645zm17.49 46.887c-.153.26-.175.593.08.748.258.153.46.1.742-.083.152-.26.175-.593-.081-.748-.258-.15-.59-.174-.741.083zm6.96-10.679c-.153.26-.176.593.08.748.258.153.46.1.741-.083.153-.26.176-.593-.08-.748-.258-.153-.589-.176-.741.083zm-21.52-13.178c-.281.18-.306.516-.124.799.18.282.512.307.792.123.28-.18.304-.517.123-.799-.18-.282-.513-.305-.792-.123zm-25.394-11.299c-.28.18-.305.517-.122.8.178.282.511.306.792.123.28-.182.303-.517.122-.8-.18-.281-.511-.304-.792-.123zm12.136-8.292c-.28.18-.303.516-.123.799.179.282.512.306.792.123.28-.182.303-.517.123-.799-.179-.28-.512-.303-.792-.123zm12.083-8.496c-.28.18-.305.517-.123.799.183.282.512.307.792.123.28-.181.304-.516.123-.799a1.12 1.12 0 00-.792-.123zm27.28 51.15c-.023.336.156.618.489.64.333.024.611-.156.634-.491.023-.335-.156-.618-.489-.64-.257-.156-.611.156-.634.491zM304.233 382c-.408.106-.559.365-.455.774m2.731 52.572c-.152.26-.047.67.21.822.258.154.665.048.817-.211.153-.26.048-.67-.21-.822-.258-.152-.666-.048-.817.211zm-9.526-3.234c-.153.26-.048.67.21.822.258.153.664.047.817-.212.152-.26.175-.593-.21-.822-.258-.153-.668-.046-.817.212zm8.458-12.057c-.153.26-.048.67.21.822.257.154.589.176.816-.212.153-.259.048-.67-.131-.952-.335-.021-.743.086-.895.342zm-11.034-23.674c-.28.18-.305.517-.123.8.18.281.512.306.922.2.28-.18.305-.517.2-.928-.388-.229-.72-.252-.999-.072zm5.907.556c-.153.259-.1.465-.048.67.258.153.46.1.664.048.153-.26.1-.466.048-.67-.256-.152-.589-.177-.664-.048z"/></g></svg>