<svg xmlns="http://www.w3.org/2000/svg" width="353" height="425" viewBox="0 0 353 425">
  <defs>
    <linearGradient id="be-visible-a" x1="-.001%" y1="50%" y2="50%">
      <stop offset="0%" stop-color="#04087F"/>
      <stop offset="100%" stop-color="#1D72D8"/>
    </linearGradient>
    <linearGradient id="be-visible-b" x1="35.32%" x2="66.067%" y1="-.271%" y2="100.744%">
      <stop offset="0%" stop-color="#428DFC"/>
      <stop offset="100%" stop-color="#1D72D8"/>
    </linearGradient>
  </defs>
  <g fill="none" transform="translate(-1)">
    <rect width="38" height="105" x="175" y="133" fill="#F2A19C"/>
    <path fill="#E94A47" d="M164.294969,99.6144936 C161.726973,93.7258603 160.913803,87.1939014 161.007089,80.765932 C161.454156,49.896874 183.855042,21.1904478 212.99714,11.230356 C242.139238,1.27026424 276.114591,9.45371957 299.150876,29.9396772 C312.49073,41.803308 322.248765,57.1479477 334.562476,70.0761503 C346.876188,83.007878 363.320871,93.9426523 381.119077,92.8163917 C407.550609,91.1472699 429.178809,63.674619 455.302322,68.0421836 C467.873009,70.1431267 477.902101,79.3083146 489.02774,85.542405 C500.153378,91.7764953 515.765531,94.4626004 524.425259,85.0823831 C522.610588,103.781129 525.870307,110.77311 527.623374,123.884616 C529.376441,136.996123 525.116981,152.784921 512.585017,164.096878 C498.840338,176.498083 492.102647,189.086116 484.789401,206.113978 C478.889521,219.849422 481.116057,235.497218 481.223424,250.452337 C481.33079,265.407456 478.018268,282.322516 465.42646,290.335005 C446.473624,294.866485 431.00228,274.96569 412.406745,269.119357 C398.87152,264.864595 384.259108,268.356179 370.083203,267.866194 C342.729375,266.919712 316.554818,249.673296 304.839543,224.87265 C300.006288,214.646415 297.535098,203.463123 293.302039,192.972508 C282.637549,166.543279 260.314107,145.096739 233.523513,135.540268 C208.165646,126.498457 175.072107,124.337588 164.294969,99.6144936 Z"/>
    <path fill="#FFBEB6" d="M242.077595,42.3637488 C229.218799,33.288533 223.155843,32.2705872 208.175539,33.3466511 C206.772888,33.4470367 198.832135,35.1306979 197.473317,35.4987787 C180.892238,39.9809102 172.972524,47.9589283 165.459578,61.3489662 C157.946633,74.7354818 155.563881,90.8165597 156.063575,106.806058 C156.493137,120.476119 159.757805,135.741783 170.926408,145.075889 C176.880658,150.051143 184.460229,152.70696 191.903042,153.620998 C208.999596,155.718529 225.550868,148.934572 236.894802,137.608604 C248.236983,126.282637 254.743527,110.809156 257.727665,94.6787658 C261.081753,76.5441848 258.441264,53.9151441 242.077595,42.3637488 Z"/>
    <path fill="#E94A47" d="M180.028319,63.299019 C178.312164,64.9454846 176,68.3715344 176,68.3715344 C176,68.3715344 179.022116,71.6381923 180.412219,72.5682702 C199.64753,85.4142054 220.944331,96.0198963 243.526057,104 C251.56166,79.6077866 253.922907,53.873879 250.436255,28.7179858 C243.483986,26.7142021 235.804236,24.7191761 228.99571,27.0505014 C226.751912,27.8176844 224.758788,29.0157509 222.80423,30.2278298 C207.204573,39.8964366 192.833746,51.0065765 180.028319,63.299019 Z"/>
    <path fill="#E94A47" d="M1.69080645,33.52125 C1.42290323,33.52125 1.155,33.4145 0.95983871,33.20275 C0.589032258,32.8055 0.619193548,32.186 1.02193548,31.822 L13.3756452,20.6605 C17.3693548,17.052 21.4996774,13.32275 26.061129,10.21475 C33.8391935,4.9175 42.8982258,1.45075 52.2553226,0.1855 C52.7893548,0.11375 53.295,0.4865 53.3695161,1.02375 C53.4440323,1.5575 53.0679032,2.051 52.5214516,2.1245 C43.4712903,3.3495 34.7103226,6.7025 27.1841935,11.8265 C22.7345161,14.85575 18.6556452,18.5395 14.7098387,22.1025 L2.35612903,33.264 C2.16629032,33.4355 1.92677419,33.52125 1.69080645,33.52125 Z" transform="translate(170 30)"/>
    <path fill="#23286B" d="M28.3324444,18.39525 C18.2097778,18.39525 8.26133333,13.21175 2.63644444,4.8905 C2.03555556,3.99975 1.48088889,3.081 0.931555556,2.1605 C0.654222222,1.695 0.808888889,1.0965 1.28,0.82175 C1.75288889,0.55225 2.36088889,0.701 2.63822222,1.16475 C3.17333333,2.0555 3.70488889,2.94275 4.28622222,3.8055 C9.83111111,12.00775 19.8755556,16.9375 29.8506667,16.39675 C30.4124444,16.3635 30.8657778,16.77825 30.8977778,17.31725 C30.9297778,17.85625 30.5102222,18.31825 29.9626667,18.348 C29.4204444,18.3795 28.8764444,18.39525 28.3324444,18.39525 Z" transform="translate(149 73)"/>
    <path fill="#E94A47" d="M193.090497,77.3848889 C181.122688,77.3848889 169.743344,73.7684444 161.483746,65.1556889 C140.948931,43.7484444 117.679069,19.4866667 87.5197672,7.85435556 C59.7986455,-2.84048889 21.6133757,-0.186088889 2.27130159,25.5749333 C1.94457143,26.0085556 1.32975661,26.0945778 0.89762963,25.7715556 C0.463746032,25.4467778 0.379428571,24.8305778 0.700888889,24.3969556 C20.629672,-2.14002222 59.814455,-4.93311111 88.2206561,6.02331111 C118.787492,17.8118667 143.243069,43.3095556 162.89255,63.7951333 C179.344995,80.9469111 208.924614,77.2936 229.643873,64.8238889 L230.023302,64.5974222 C240.620952,58.2159778 253.804339,50.2703333 263.941757,57.749 C282.122709,71.1614444 308.568529,72.7853333 328.253143,61.7007556 C328.68527,61.4567333 329.129693,61.2355333 329.584656,61.0406667 C330.074751,60.8247333 330.657947,61.0512 330.874011,61.5497778 C331.088317,62.0448444 330.859958,62.6241778 330.364593,62.8401111 C329.972868,63.0104 329.588169,63.2017556 329.215767,63.4141778 C308.87945,74.8656667 281.560593,73.1873556 262.777122,59.3325111 C253.698942,52.6333111 241.13037,60.2015111 231.033354,66.281 L230.653926,66.5092222 C219.56618,73.1838444 205.987556,77.3831333 193.090497,77.3848889 Z" transform="translate(192)"/>
    <polygon fill="#A1C3FC" points="340 222 397.572 278 402 263.698 367.994 230.618"/>
    <polygon fill="#A1C3FC" points="286 206 388.561 306 393 291.635 314.054 214.657"/>
    <polygon fill="#A1C3FC" points="273 228.394 380.542 333 385 318.606 277.458 214"/>
    <polygon fill="#A1C3FC" points="265 256.394 372.54 361 377 346.606 269.461 242"/>
    <polygon fill="#A1C3FC" points="257 283.351 333.963 358.351 362 367 261.436 269"/>
    <polygon fill="#A1C3FC" points="248 310.535 280.037 342.24 308 351 252.426 296"/>
    <polygon fill="#A1C3FC" points="242 330.863 255 335 244.059 324"/>
    <path fill="url(#be-visible-a)" d="M313.921295,469.795161 C313.638071,466.945761 357.119143,496.364314 363.008798,440.274467 C370.877506,365.351815 330.07387,291.43473 305.065701,220.39346 C297.837327,199.859469 289.125984,174.327582 267.618537,171.270377 C251.239031,168.940491 227.956594,182.139656 215.232615,192.737732 C202.510395,203.334046 196.757954,210.420562 180.786572,204.455843 C175.59706,202.516913 175.148475,196.293317 175.148475,196.293317 C175.148475,196.293317 133.829407,199.833053 122.368502,211.847023 C110.904079,223.860993 105.148119,230.074022 100.386083,245.997551 C82.2562156,306.645029 64.129867,367.288984 46,427.936461 L321.77417,427.936461 L313.921295,469.795161 Z"/>
    <path fill="#FFBEB6" d="M126.080038,237.157961 C131.482247,242.478174 138.50547,248.243939 145.763035,246.063726 C147.172613,244.869716 142.018843,234.798118 137.573386,231.221372 C135.844891,229.831882 133.679427,229.136257 131.640824,228.259241 C127.856107,226.626723 123.273216,219.36052 121.458384,221.37167 C117.472802,227.22725 111.957828,231.506666 105.72573,234.824535 C106.081649,229.458534 109.205626,222.68015 112.283792,218.881507 C117.169743,212.856864 117.59614,209.917627 122.480328,203.894745 C125.859792,199.728037 132.779059,191.206187 130.039191,186.592166 C127.572429,182.434264 110.764972,201.036517 103.521502,215.371681 C101.148125,220.070234 98.90161,226.85214 92.9567142,234.720631 C95.3970464,227.648147 95.5838155,223.902337 97.3087867,219.836011 C100.020463,213.443302 99.5341582,210.127195 102.247596,203.732726 C104.367249,198.738312 107.216359,190.184762 102.714519,187.155711 C100.395763,185.595397 98.4434971,190.45949 97.5307953,193.099344 C91.7744306,209.741519 89.364052,221.688664 83.6059253,238.330838 C81.6589455,226.045567 78.8626948,227.019443 76.915715,214.735933 C76.6249895,212.906174 73.7723558,202.378458 72.4561622,201.075261 C71.1382067,199.775586 68.5146293,199.691055 67.7164557,201.362316 C67.2618668,202.31682 67.0380962,205.007745 67.8345079,208.036797 C71.1293968,220.573902 76.0329667,233.899969 77.8372267,245.482571 C76.7694713,246.623748 76.3695035,248.236895 75.9378202,249.751421 C73.5309655,258.248616 68.4388645,265.507774 63.3291438,272.798631 C61.0808666,274.575558 58.9418318,276.488087 57.3067212,278.828558 C54.6373326,282.639528 53.4744306,287.27116 52.3132906,291.777755 C40.749464,336.704583 24.5287436,380.428595 4,422.023465 C21.9051663,423.324901 39.8120945,424.63162 57.7190228,425.933056 C59.5039011,426.061614 61.5019781,426.126774 62.8428393,424.938047 C64.1431751,423.786303 64.3581358,421.868491 64.4849978,420.13383 C66.8196116,388.268908 69.1559874,356.310649 67.6442148,324.396418 C67.3341077,317.898045 66.8971384,311.197148 69.0678888,305.06684 C69.1894649,304.72343 69.3462804,304.404675 69.4819523,304.07007 C69.5260017,304.084159 69.566527,304.105292 69.6105763,304.11938 C80.3445139,296.870789 91.0766894,289.620436 101.808865,282.371844 C102.91186,281.625148 104.032474,280.871407 105.292285,280.436421 C106.552095,279.999674 107.900004,279.899293 109.232056,279.837655 C121.465432,279.27411 145.008911,289.382691 144.783378,285.844688 C143.90063,279.874638 139.39879,276.213359 134.040631,273.448469 C128.68071,270.685339 122.593095,269.739641 116.609435,268.987661 C115.337291,268.827403 113.97881,268.638968 113.015011,267.790129 C112.012449,266.902547 111.672388,265.502491 111.383424,264.194011 C110.668064,260.943063 109.950941,257.688593 109.23558,254.437646 C108.812706,252.512789 108.388071,250.505162 108.856756,248.590871 C110.562345,241.662795 120.931554,242.092498 126.080038,237.157961 Z"/>
    <path fill="#428DFC" d="M48.8594662,490.684972 C25.7406627,493.685149 12.0926982,474.779102 1.14768271,454.295498 C-1.57279519,449.201887 0.858456647,419.793459 5.13549664,404.693975 C14.9323723,370.102143 27.9300164,343.463245 41.2659673,310 C50.0391579,310.79054 64.3111496,311.646224 73.0843403,312.436764 C76.6111454,333.235528 74.6356437,353.970908 78.1624488,374.767911 C80.1747611,386.650656 78.4569335,425.207511 74.1255541,443.817766 C70.0851536,461.179707 65.4890885,488.524633 48.8594662,490.684972 Z"/>
    <path fill="#FFBEB6" d="M334.614916,376.85544 C333.085084,371.0645 327.284765,367.669024 322.173576,364.535414 C294.423341,347.515852 273.844634,321.237816 254.05728,295.406184 C249.469547,289.418406 244.790164,283.356812 238.880572,278.699456 C232.604383,269.263476 225.159671,260.449649 222.084145,249.621734 C221.6541,248.11029 221.252255,246.502184 220.184192,245.359814 C221.988971,233.80254 226.892188,220.505348 230.189787,207.99024 C230.986427,204.967352 230.764355,202.281903 230.307873,201.329342 C229.511232,199.659724 226.883376,199.742326 225.566804,201.042871 C224.248469,202.3399 221.395015,212.846194 221.105969,214.675744 C219.158429,226.936015 216.361375,225.964121 214.413835,238.222635 C208.655816,221.614326 206.244744,209.691494 200.484962,193.083185 C199.570236,190.448703 197.615646,185.594507 195.299749,187.151646 C190.798377,190.174534 193.648306,198.710677 195.766806,203.694928 C198.479261,210.074627 197.992817,213.383986 200.707035,219.765443 C202.432502,223.823495 202.619325,227.561682 205.060358,234.621532 C199.113754,226.767296 196.868355,219.99919 194.492533,215.311956 C187.245219,201.004206 170.434692,182.441565 167.967221,186.591006 C165.226566,191.19388 172.149584,199.700146 175.528257,203.858374 C180.415612,209.870758 180.842132,212.804014 185.725962,218.81464 C188.805013,222.605552 191.931651,229.3719 192.285909,234.725224 C186.050258,231.414107 180.53546,227.143399 176.548732,221.299735 C174.729854,219.289163 170.149171,226.545851 166.363365,228.17329 C164.324177,229.048521 162.15809,229.742731 160.429098,231.129393 C155.9806,234.698861 150.827111,244.748206 152.237095,245.941544 C159.498509,248.11732 166.523751,242.363288 171.92575,237.053902 C177.075714,241.974882 187.447904,241.547812 189.150459,248.461789 C189.619278,250.373941 189.198046,252.375726 188.771526,254.296666 C188.055959,257.540998 187.33863,260.788845 186.623064,264.033177 C186.335779,265.338994 185.995621,266.736201 184.991008,267.621978 C184.030457,268.470847 182.669823,268.658899 181.39555,268.817073 C175.410171,269.567522 169.322568,270.513054 163.959344,273.268803 C158.597882,276.026309 154.09651,279.681895 153.213508,285.639796 C152.987911,289.168842 176.534633,279.082589 188.775051,279.646745 C190.107485,279.708257 191.454019,279.808434 192.715954,280.244292 C193.976127,280.680151 195.097063,281.432358 196.200375,282.175777 C205.54504,288.472875 202.221004,286.741744 208.27512,290.952697 C209.503568,291.984346 210.832478,292.903514 212.270661,293.645176 C217.653272,296.416743 223.93651,297.04944 229.326172,299.801674 C238.824172,304.650598 243.887775,315.040896 248.30631,324.731712 C261.267582,353.155647 274.228854,381.576066 287.195414,410 C296.770963,406.13 306.34475,402.260001 315.922062,398.390001 C325.613935,394.477822 337.27626,386.941692 334.614916,376.85544 Z"/>
    <path fill="url(#be-visible-b)" d="M353.502133,473.005391 C359.532058,466.686173 361.534974,455.327734 360.882041,443.640956 C360.225579,431.954179 357.185028,419.796839 354.153301,407.804548 C349.773356,390.483324 322.5284,359.018922 303.903925,345.244467 C300.118678,342.443925 262.541497,306 262.541497,306 C262.541497,306 248.778727,331.538489 241,337.531123 C249.738715,376.238308 264.854998,414.92969 284.903573,449.907499 C288.182356,455.626225 291.694077,461.383578 296.095199,465.620386 C302.769233,472.043198 310.500314,474.086979 317.802576,475.888457 C330.743004,479.075281 344.952239,481.960103 353.502133,473.005391 Z"/>
    <path fill="#FFF" d="M300.956192,397.248888 C300.933414,397.58399 301.112138,397.866181 301.445056,397.889109 L301.445056,397.889109 C301.777973,397.912037 302.056573,397.73214 302.079351,397.397039 L302.079351,397.397039 C302.10213,397.061937 301.923406,396.779746 301.590488,396.756818 L301.590488,396.756818 C301.261075,396.732126 300.980723,396.913787 300.956192,397.248888 L300.956192,397.248888 Z M304.374731,453.367831 C304.09438,453.547728 304.069849,453.884593 304.252077,454.166784 C304.430802,454.448975 304.763719,454.473666 305.044071,454.290242 L305.044071,454.290242 C305.324423,454.110346 305.347201,453.77348 305.166725,453.49129 C305.065097,453.078585 304.655083,453.186171 304.374731,453.367831 L304.374731,453.367831 L304.374731,453.367831 Z M315.306697,444.182519 C315.026345,444.362415 315.003566,444.699281 315.184043,444.981472 C315.362767,445.263662 315.695685,445.288354 315.976036,445.10493 L315.976036,445.10493 C316.256388,444.925033 316.280919,444.588168 316.09869,444.305977 L316.09869,444.305977 C316.044372,444.101389 315.585296,443.999095 315.306697,444.182519 L315.306697,444.182519 Z M295.887083,423.884178 C296.065807,424.166369 296.32338,424.31981 296.656298,424.344502 C296.936649,424.164605 297.089091,423.905342 297.111869,423.57024 C296.933145,423.28805 296.675572,423.134608 296.470565,423.187519 C295.934392,423.213974 295.781951,423.471474 295.887083,423.884178 Z M309.606795,419.676007 C309.78552,419.958197 310.043093,420.111639 310.37601,420.13633 C310.656362,419.956434 310.808803,419.695407 310.831582,419.362069 C310.652858,419.079878 310.393532,418.926437 310.190277,418.979348 C309.654105,419.005803 309.428071,419.393816 309.606795,419.676007 L309.606795,419.676007 Z M330.135551,466.106984 C329.98311,466.366247 330.088241,466.777188 330.345815,466.928865 C330.603388,467.082307 331.009898,466.976485 331.162339,466.717222 L331.162339,466.717222 C331.31478,466.457959 331.209648,466.048783 330.952075,465.895341 L330.952075,465.895341 C330.696254,465.7419 330.28624,465.847722 330.135551,466.106984 Z M336.902541,453.392523 C336.750099,453.651786 336.855231,454.060962 337.112804,454.214404 C337.370378,454.367845 337.776888,454.262023 337.929329,454.00276 C338.08177,453.743498 337.976638,453.332557 337.719065,453.18088 L337.719065,453.18088 C337.464996,453.027438 337.056734,453.13326 336.902541,453.392523 L336.902541,453.392523 L336.902541,453.392523 Z M292.223236,410.360181 C292.275802,410.564769 292.585941,410.924563 292.864541,410.742902 C293.067796,410.689992 293.423492,410.377818 293.244768,410.097391 C293.192202,409.892802 292.882063,409.533009 292.601711,409.714669 L292.601711,409.714669 C292.270545,409.691741 292.119856,409.949241 292.223236,410.360181 L292.223236,410.360181 Z M304.702392,407.679368 C304.754958,407.883956 305.065097,408.24375 305.343697,408.062089 C305.546952,408.009178 305.827304,407.827518 305.723924,407.416578 C305.671358,407.211989 305.490882,406.929798 305.082619,407.033856 L305.082619,407.033856 C304.802268,407.21728 304.649826,407.474779 304.702392,407.679368 L304.702392,407.679368 L304.702392,407.679368 Z M322.192836,454.567142 C322.040395,454.826405 322.017616,455.159743 322.273437,455.314948 C322.53101,455.468389 322.732513,455.415478 323.014617,455.232054 L323.014617,455.232054 C323.167058,454.972791 323.189837,454.639454 322.934016,454.484249 L322.934016,454.484249 C322.676443,454.334335 322.343525,454.309643 322.192836,454.567142 L322.192836,454.567142 Z M329.152568,443.887982 C329.000126,444.147245 328.977348,444.480583 329.233169,444.635788 C329.490742,444.789229 329.692245,444.736318 329.974349,444.552894 L329.974349,444.552894 C330.12679,444.293631 330.149568,443.960293 329.893747,443.805088 L329.893747,443.805088 C329.636174,443.651647 329.305009,443.628719 329.152568,443.887982 L329.152568,443.887982 Z M307.632068,430.709669 C307.351716,430.889566 307.327185,431.226431 307.509414,431.508622 C307.688138,431.790813 308.021056,431.815504 308.301408,431.63208 C308.581759,431.452184 308.604538,431.115318 308.424062,430.833128 C308.243585,430.550937 307.910667,430.528009 307.632068,430.709669 L307.632068,430.709669 Z M282.23921,419.411453 C281.958858,419.591349 281.934328,419.928215 282.116556,420.210406 C282.29528,420.492596 282.628198,420.517288 282.90855,420.333864 C283.188902,420.152204 283.21168,419.817102 283.031204,419.534911 C282.850727,419.25272 282.519562,419.229792 282.23921,419.411453 L282.23921,419.411453 Z M294.374936,411.118569 C294.094584,411.298466 294.071805,411.635331 294.252282,411.917522 C294.431006,412.199713 294.763924,412.224404 295.044275,412.04098 C295.324627,411.85932 295.347406,411.524218 295.166929,411.242027 C294.988205,410.9616 294.655287,410.938672 294.374936,411.118569 L294.374936,411.118569 Z M306.458095,402.62286 C306.177743,402.802757 306.153213,403.139622 306.335441,403.421813 C306.51767,403.704004 306.847083,403.728696 307.127435,403.545272 C307.407787,403.363611 307.430565,403.02851 307.250089,402.746319 C306.99602,402.592878 306.664854,402.56995 306.458095,402.62286 Z M333.738071,453.77348 C333.715292,454.108582 333.894016,454.390773 334.226934,454.413701 C334.559852,454.436629 334.838451,454.256732 334.86123,453.921631 C334.884008,453.586529 334.705284,453.304338 334.372366,453.28141 C334.114793,453.126205 333.760849,453.438379 333.738071,453.77348 L333.738071,453.77348 Z M305.233308,382 C304.825046,382.105822 304.674357,382.365084 304.777737,382.774261 M307.509414,435.346418 C307.356973,435.60568 307.462105,436.016621 307.719678,436.168298 C307.977251,436.32174 308.383761,436.215918 308.536202,435.956655 C308.688644,435.697392 308.583512,435.286452 308.325938,435.134774 L308.325938,435.134774 C308.068365,434.983097 307.660103,435.087155 307.509414,435.346418 L307.509414,435.346418 L307.509414,435.346418 Z M297.982712,432.111805 C297.830271,432.371068 297.935402,432.782008 298.192976,432.933686 C298.450549,433.087127 298.857059,432.981305 299.0095,432.722043 C299.161941,432.46278 299.18472,432.129442 298.799236,431.900162 C298.541663,431.74672 298.131649,431.854306 297.982712,432.111805 L297.982712,432.111805 Z M306.440573,420.055201 C306.288132,420.314463 306.393264,420.725404 306.650837,420.877081 C306.90841,421.030523 307.239576,421.053451 307.467361,420.665438 C307.619803,420.406175 307.514671,419.995235 307.335946,419.713044 C307.001277,419.69188 306.593014,419.799465 306.440573,420.055201 L306.440573,420.055201 Z M295.40698,396.381151 C295.126629,396.561048 295.102098,396.897913 295.284326,397.180104 L295.284326,397.180104 C295.463051,397.462295 295.795968,397.486987 296.205983,397.381165 C296.486334,397.201269 296.510865,396.864403 296.405733,396.453463 C296.018498,396.224183 295.68558,396.201255 295.40698,396.381151 L295.40698,396.381151 Z M301.313641,396.936715 C301.1612,397.195978 301.213766,397.40233 301.266331,397.606918 C301.523905,397.760359 301.725407,397.707448 301.930415,397.654538 C302.082856,397.395275 302.03029,397.188923 301.977724,396.984334 L301.977724,396.984334 C301.721903,396.832657 301.388985,396.807965 301.313641,396.936715 L301.313641,396.936715 L301.313641,396.936715 Z"/>
  </g>
</svg>
