<svg xmlns="http://www.w3.org/2000/svg" width="40" height="40" viewBox="0 0 40 40">
  <g fill="none" fill-rule="evenodd">
    <circle cx="20" cy="20" r="20" fill="#48AE52"/>
    <path fill="#FFF" fill-rule="nonzero" d="M28.9549038,11.0010617 C28.6242838,11.0125357 28.3208911,11.1846418 28.1458566,11.4600119 L18.7795794,25.5497847 L12.7117255,20.3942435 C12.4511192,20.1284347 12.060209,20.0289955 11.7004165,20.1399087 C11.3425687,20.2489092 11.0761278,20.5472269 11.0138934,20.9105628 C10.951659,21.2758103 11.1014104,21.6429705 11.4048031,21.8628843 L18.3439386,27.7680442 C18.561759,27.9497121 18.8495931,28.0300282 19.1315926,27.9898702 C19.4155373,27.9478 19.6664196,27.7890795 19.8220056,27.5538674 L29.8261854,12.5308958 C30.0401164,12.2230168 30.0576197,11.8252599 29.8728612,11.5001699 C29.6881027,11.1769926 29.3322001,10.9838511 28.9549038,11.0010617 Z"/>
  </g>
</svg>
