<svg xmlns="http://www.w3.org/2000/svg" width="63" height="63" viewBox="0 0 63 63">
  <g fill="none" fill-rule="evenodd">
    <circle cx="31.5" cy="31.5" r="31.5" fill="#EDEEF4"/>
    <path fill="#141414" fill-rule="nonzero" d="M14.8849387,0.00595360825 L11.180717,0 C7.01915094,0 4.32976415,2.76396263 4.32976415,7.04192784 L4.32976415,10.2887281 L0.605334906,10.2887281 C0.2835,10.2887281 0.0228820755,10.5500915 0.0228820755,10.8724794 L0.0228820755,15.5767229 C0.0228820755,15.8991108 0.28379717,16.1601765 0.605334906,16.1601765 L4.32976415,16.1601765 L4.32976415,28.0304807 C4.32976415,28.3528686 4.59038208,28.6139343 4.91221698,28.6139343 L9.77153774,28.6139343 C10.0933726,28.6139343 10.3539906,28.3525709 10.3539906,28.0304807 L10.3539906,16.1601765 L14.708717,16.1601765 C15.0305519,16.1601765 15.2911698,15.8991108 15.2911698,15.5767229 L15.2929528,10.8724794 C15.2929528,10.7176856 15.2314387,10.5694407 15.1223774,10.4598943 C15.013316,10.3503479 14.8647311,10.2887281 14.7102028,10.2887281 L10.3539906,10.2887281 L10.3539906,7.536375 C10.3539906,6.21348325 10.6686934,5.54191624 12.3890094,5.54191624 L14.8843443,5.5410232 C15.2058821,5.5410232 15.4665,5.27965979 15.4665,4.95756959 L15.4665,0.589407216 C15.4665,0.267614691 15.2061792,0.00654896907 14.8849387,0.00595360825 Z" transform="translate(23.625 17.063)"/>
  </g>
</svg>
