<svg xmlns="http://www.w3.org/2000/svg" width="166" height="155">
  <defs>
    <linearGradient id="a" x1="51.463%" x2="46.026%" y1="26.771%" y2="103.831%">
      <stop offset="0%" stop-color="#92C4FE"/>
      <stop offset="100%" stop-color="#5BABF2"/>
    </linearGradient>
    <linearGradient id="b" x1=".001%" x2="99.999%" y1="50%" y2="50%">
      <stop offset="0%" stop-color="#92C4FE"/>
      <stop offset="100%" stop-color="#5BABF2"/>
    </linearGradient>
    <linearGradient id="c" x1="47.006%" x2="49.11%" y1="36.145%" y2="56.109%">
      <stop offset="0%" stop-color="#FFBFB7"/>
      <stop offset="100%" stop-color="#FFA29D"/>
    </linearGradient>
    <linearGradient id="d" x1="41.249%" x2="60.888%" y1="81.612%" y2="11.725%">
      <stop offset="0%" stop-color="#FFBFB7"/>
      <stop offset="100%" stop-color="#FFA29D"/>
    </linearGradient>
    <linearGradient id="e" x1="35.85%" x2="62.441%" y1="116.906%" y2="-18.348%">
      <stop offset="0%" stop-color="#FFBFB7"/>
      <stop offset="100%" stop-color="#FFA29D"/>
    </linearGradient>
    <linearGradient id="f" x1="42.956%" x2="74.151%" y1="58.682%" y2="21.48%">
      <stop offset="0%" stop-color="#FFBFB7"/>
      <stop offset="100%" stop-color="#FFA29D"/>
    </linearGradient>
    <linearGradient id="g" x1="40.972%" x2="68.459%" y1="20.556%" y2="70.794%">
      <stop offset="0%" stop-color="#FFCAC3"/>
      <stop offset="100%" stop-color="#FFA29D"/>
    </linearGradient>
    <linearGradient id="h" x1="0%" y1="50.001%" y2="50.001%">
      <stop offset="0%" stop-color="#FFBFB7"/>
      <stop offset="100%" stop-color="#FFA29D"/>
    </linearGradient>
  </defs>
  <g fill="none" fill-rule="evenodd" transform="translate(0 1)">
    <path fill="#FFF" fill-rule="nonzero" d="M86.823 44.117c-2.165 2.673-3.801 6.23-2.768 9.518.326 1.035.897 1.973 1.316 2.974 1.64 3.917.657 8.799-2.371 11.762 6.775 11.098 9.657 24.48 17.769 34.629 4.3-13.376 12.329-25.617 14.231-39.545-2.016.244-3.798-2.221-2.95-4.077.43-.938 1.318-1.574 1.91-2.42 1.377-1.974.91-4.68.127-6.96-.784-2.279-1.847-4.614-1.483-6.998-3.584 2.567-8.411 2.148-12.779 1.621L88.976 43.31c-.45-.055-.93-.105-1.343.084-.332.152-.58.44-.81.724z"/>
    <path fill="url(#a)" fill-rule="nonzero" d="M71.462 167.04c6.385-5.556 8.16-14.54 9.372-22.856 2.161-14.85 3.71-29.853 2.986-44.838-.264-5.473-.859-11.038-3.08-16.058-2.224-5.02-6.31-9.48-11.638-11.015-.615-.178-1.255-.316-1.892-.26-.897.078-1.718.535-2.429 1.082-4.107 3.164-4.86 8.9-5.294 14.026l-3.864 45.663c-.503 5.943-1.005 11.94-.2 17.85.806 5.91 3.037 11.807 7.307 16.026 1.23 1.215 2.76 2.33 4.5 2.34 1.593.006 3.036-.919 4.232-1.96z"/>
    <path fill="url(#b)" fill-rule="nonzero" d="M149.418 155.62c-1.258 2.645-3.289 5.293-5.973 5.378-1.308.041-2.578-.557-3.65-1.393-3.32-2.59-4.815-7.181-5.847-11.549-3.693-15.618-3.927-32.042-7.46-47.706-2.386-10.58-3.509-21.775-1.298-32.401 5.684-4.215 11.046-1.088 15.614 4.569 4.57 5.657 6.37 13.383 7.727 20.843a292.015 292.015 0 014.217 35.254c.534 9.19.545 18.873-3.33 27.005z"/>
    <path fill="url(#c)" fill-rule="nonzero" d="M147.027 17.333c2.856 2.572 1.8 15.795 1.667 23.517-.022 1.307.392 3.213.996 4.36.819 1.554 2.889-2.317 4.43-1.303.9.592-.969 6.411 2.022 2.105 1.01-1.454 3.466-.36 3.514.451.193 3.258-.818 3.608 2.263 1.453 1.398-.977 2.311.703 3.081 2.005-.866 8.82-4.414 15.426-5.897 22.536-3.186 15.273.478 31.158-.382 46.762-.053.964-.163 2.02-.829 2.692-.588.595-1.464.735-2.28.823a45.614 45.614 0 01-12.956-.448l3.07-47.388.273 2.334c1.797-3.315.715-7.488-.783-10.96-1.498-3.472-3.42-6.991-3.199-10.79.085-1.432.475-2.822.747-4.229.576-2.977.622-6.034.666-9.071.09-6.312.183-12.623.274-18.934.037-2.556 1.466-7.586 3.323-5.915z"/>
    <path fill="url(#d)" fill-rule="nonzero" d="M147.012 53.486c.075 1.486.761 3.2 2.204 3.479 1.076.207 2.158-.524 2.716-1.479.369-.63.56-1.347.749-2.055l1.855-6.967c.35-1.312.77-2.753.138-3.953-.167-.318-.803-.474-.942-.487-.635-.064-1.007.007-1.632.127-.498.096-.9.403-1.355.802-.502.44-.865 1.007-1.153 1.611-1.352 2.818-2.738 5.792-2.58 8.922z"/>
    <path fill="url(#e)" fill-rule="nonzero" d="M152.016 54.707c.086 1.385.783 2.988 2.228 3.257 1.077.201 2.154-.472 2.706-1.357.364-.585.551-1.252.735-1.909l1.807-6.478c.34-1.22.86-2.632.163-3.725-.294-.46-1.958-.564-2.583-.456-.497.086-1.006.516-1.424.779-.548.345-.83 1.035-1.115 1.596-1.334 2.616-2.697 5.376-2.517 8.293z"/>
    <path fill="url(#f)" fill-rule="nonzero" d="M158.024 56.51c-.126 1.326.229 2.938 1.406 3.385.878.333 1.882-.164 2.473-.931.39-.507.645-1.115.894-1.715l2.454-5.908c.463-1.113.936-2.328.674-3.513-.029-.131-.549-.499-.805-.583-.518-.17-.67-.367-1.545-.148-1.01.253-1.917 1.381-2.238 1.876-1.499 2.307-3.044 4.746-3.313 7.537z"/>
    <path fill="url(#g)" fill-rule="nonzero" d="M142.862 54.793a26.496 26.496 0 018.481-5.141c2.002-.745 4.544-1.13 6.028.41.366.38.637.88.629 1.406-.018 1.046-1.057 1.736-1.973 2.235l-6.364 3.473c-.527.288-1.077.596-1.403 1.102-.328.505-.34 1.27.135 1.638.194.15.437.214.67.286 2.708.837 4.887 3.214 5.491 5.992.604 2.78-.39 5.85-2.507 7.742-.534.478-1.156.892-1.86 1.021-1.122.207-2.274-.362-3.063-1.19-.788-.827-1.28-1.887-1.76-2.926-1.685-3.654-3.382-7.35-4.184-11.294-.153-.748-.272-1.528-.09-2.269.246-1.004 1.004-1.794 1.77-2.485z"/>
    <path fill="#92C4FE" fill-rule="nonzero" d="M137.13 160.992c-.382-.407-.54-.964-.675-1.5-3.472-13.743.183-28.095 1.547-42.185.587-6.065.746-12.162.904-18.252l.794-30.604c7.77.063 15.54-.088 23.3-.451-4.419 23.523 1.223 47.975-2.83 71.561-.961 5.59-2.545 11.256-6.099 15.737-3.554 4.481-9.45 7.553-15.155 6.491-.655-.121-1.337-.317-1.787-.797z"/>
    <path fill="#FFBFB7" fill-rule="nonzero" d="M114.426 28.897c-.68-1.941-2.06-3.58-3.49-5.105-3.22-3.437-7.304-6.733-12.136-6.791-4.949-.06-9.341 3.444-11.57 7.66-3.273 6.186-2.678 13.74.066 20.157.691 1.618 1.538 3.22 2.868 4.423 1.562 1.411 3.867 3.255 5.889 3.954 3.056 1.058 6.135 1.019 9.27.2 4.467-1.164 6.953-5.698 8.172-9.958a39.122 39.122 0 001.493-9.671c.046-1.643-.018-3.314-.562-4.87z"/>
    <path fill="#FF4945" fill-rule="nonzero" d="M104.444 7.215c-.553 1.049-.842 2.26-1.62 3.15-.581.667-1.432 1.148-1.717 1.993-.48 1.418.865 3.194-.044 4.373 1.887.215 3.594 1.611 4.21 3.44.262.778.34 1.617.677 2.364 1.137 2.532 4.638 3.025 6.164 5.335 2.198 3.326-.892 8.1.725 11.756.308.695.775 1.312 1.03 2.03.522 1.475.063 3.114-.524 4.563-.459 1.132-1.006 2.342-.722 3.533.178.741.658 1.363 1.021 2.03 1.17 2.15 1.07 4.956-.251 7.013 7.678 2.938 16.23-.496 24.412.091a10.113 10.113 0 00-.596-5.894c-.614-1.446-1.568-2.744-1.992-4.258-.89-3.171.7-6.58.153-9.83-.634-3.77-4.004-6.619-4.585-10.398-.425-2.757.699-5.694-.251-8.31-1.303-3.587-5.965-5.094-7.043-8.757-.317-1.074-.28-2.233-.628-3.296-.813-2.492-3.464-3.82-5.957-4.492-2.252-.607-4.637-.896-6.914-.396-2.28.5-4.445 1.87-5.548 3.96z"/>
    <path fill="#FF4945" fill-rule="nonzero" d="M62.5 51.317c-.326 1.515-.03 3.086.002 4.637.031 1.55-.29 3.262-1.502 4.22 1.948 1.06 4.32.952 6.487.496 2.168-.455 4.28-1.228 6.487-1.418 4.06-.35 8.23 1.29 12.162.212-1.487-2.918-1.487-6.556-.001-9.476.532-1.045 1.248-2.02 1.51-3.165.914-3.992-3.967-7.933-2.391-11.71.621-1.487 2.153-2.514 2.51-4.086.517-2.26-1.603-4.716-.573-6.79.433-.87 1.318-1.398 2.013-2.073.827-.803 1.404-1.842 2.251-2.623 2.339-2.149 6.184-2.65 9.31-2.145.26-1.16.287-1.448.55-2.607.126-.561.262-1.142.614-1.593.302-.387.736-.643 1.089-.985 1.296-1.255 1.222-3.473.285-5.019-.936-1.546-2.525-2.559-4.102-3.433-3.67-2.033-8.038-3.639-11.983-2.22-1.744.627-3.24 1.8-4.617 3.046-2.31 2.093-4.431 4.561-5.327 7.558-.745 2.494-.745 5.496-2.744 7.15-1.096.908-2.615 1.209-3.63 2.208-2.191 2.158-.824 5.994-1.994 8.848-.915 2.233-3.304 3.63-4.072 5.917-.942 2.805.871 5.885.322 8.794-.42 2.239-2.178 4.03-2.656 6.257z"/>
    <circle cx="88" cy="34" r="7" stroke="#1B236D" stroke-width="1.869"/>
    <circle cx="108" cy="34" r="7" stroke="#1B236D" stroke-width="1.869"/>
    <path stroke="#1B236D" stroke-width="1.869" d="M95 32c.567-.607 1.516-.989 2.482-1 .967-.01 1.93.351 2.518.945"/>
    <path stroke="#FF4945" stroke-linecap="round" stroke-width=".623" d="M98 5.207C94.612 2.41 89.82 1.335 85.529 2.41c-4.291 1.075-7.971 4.272-9.577 8.32-1.189 2.999-1.39 6.55-3.702 8.833-1.647 1.627-4.253 2.468-5.066 4.618-.332.879-.296 1.844-.36 2.778-.147 2.2-.876 4.361-2.094 6.214-.92 1.4-2.141 2.685-2.51 4.311-.456 2.001.48 4.073.29 6.114-.269 2.88-2.69 5.153-3.361 7.97-.357 1.498-.198 3.07-.454 4.587A8.617 8.617 0 0157 60"/>
    <path fill="#92C4FE" fill-rule="nonzero" d="M103.962 202.988c-.511 8.19-1.458 16.37-1.339 24.574.007.48.019.959.034 1.438A531.482 531.482 0 00144 226.565l-1.78-14.256c-4.34-34.754-8.683-69.532-11.018-104.48-.201-3.025.531-3.18-.19-6.125-.886-3.618-2-9.231-2.11-12.954-.302-10.242-1.807-17.445 3.805-23.45L112.673 63c-3.58 9.717-7.161 19.433-10.743 29.15-1.398 3.795-2.805 7.619-3.46 11.608-1.03 6.276-.166 12.69.67 18.995 3.52 26.606 6.497 53.45 4.822 80.235z"/>
    <path fill="#92C4FE" fill-rule="nonzero" d="M69.574 117.247c-1.126 12.648 4.298 24.976 4.999 37.655.36 6.509-.531 13.015-1.383 19.479a1718.06 1718.06 0 00-6.253 54.024 540.89 540.89 0 0036.274.484c1.36-9.2 2.397-18.437 2.692-27.728.256-8.028-.042-16.061-.34-24.086l-1.964-52.946c-.34-9.17-.696-18.435-3.13-27.289C97.42 85.746 91.243 75.787 85.145 66c-7.706 2.594-11.44 3.355-19.145 5.948 4.531 5.529 6.355 15.557 7.599 22.57 1.477 8.328-3.275 14.305-4.025 22.729z"/>
    <path fill="url(#h)" fill-rule="nonzero" d="M64.49 124.223c-2.21-7.269-9.346-25.75-10.588-30.683-1.782-7.082-1.473-14.992-5.596-21-4.806-7-11.091-7.364-16.772-13.672-3.595-3.991-.936 6.904 3.453 9.982 1.749 1.227.864.996 3.842 2.602-.927-.243-3.685-.625-6.93-.998-2.785-.558-5.203-.618-7.988-1.176-2.21-.443-4.435-.89-6.52-1.751-3.934-1.625-7.469-4.733-11.72-4.764-.455-.003-.984.074-1.211.47-.17.298-.104.678.025.996.299.745.87 1.306 1.533 1.769l-2.912-1.132c-4.047-1.57-3.785.865-1.242 3.757 3.45 3.922 15.567 10.646 25.249 11.15 9.67 1.312 14.097.486 15.212.89 1.245.454 1.72 1.956 2.02 3.257 1.69 7.324 1.298 35.396 1.855 56.79 2.037 23.317 19.155 12.311 21.338 7.033 3.622-8.754-.292-14.452-3.048-23.52z"/>
    <path fill="#92C4FE" fill-rule="nonzero" d="M70.217 168.567c2.257-1.604 3.433-4.35 3.707-7.064.275-2.713-.245-5.438-.79-8.113-1.714-8.402-3.711-16.746-5.707-25.088l-4.716-19.714c-1.93-8.063-3.891-16.216-7.745-23.588A158.947 158.947 0 0137 94.386c2.604 9.586 2.356 19.692 4.264 29.434.765 3.901 1.871 7.73 2.978 11.553 2.168 7.494 4.343 15.01 7.426 22.19 1.617 3.77 3.59 7.572 6.896 10.074s8.271 3.334 11.653.93z"/>
    <path stroke="#FFF" stroke-linecap="round" stroke-linejoin="round" stroke-width=".623" d="M123 65a198.28 198.28 0 00-11.455 21.478c2.591.05 5.184.096 7.776.145-4.858 3.411-7.594 8.96-9.844 14.378a168.891 168.891 0 00-9.926 33.101c-1.825 9.559-1.534 18.587-1.534 31.898M98 114c-2.082-8.875-7.963-16.919-16.05-21.95a13.665 13.665 0 014.254-2.825L81 82"/>
    <path stroke="#FFF" stroke-linecap="round" stroke-width=".623" d="M143 82a78.709 78.709 0 0117-.872M57 99c-5.632 1.301-11.368 3.699-17 5"/>
    <path fill="#FFF" fill-rule="nonzero" d="M106.396 142.581l-4.364-4.346 4.364-4.348 4.363 4.347z"/>
    <path stroke="#FF4945" stroke-linecap="round" stroke-width=".623" d="M91 .504c-5.697-1.57-12.253.622-15.834 5.295-2.658 3.47-3.739 8.05-6.885 11.088-1.973 1.906-4.68 3.115-6.115 5.448-.917 1.49-1.202 3.267-1.793 4.911C59.78 28.89 58.7 30.555 57 31"/>
  </g>
</svg>
