<svg xmlns="http://www.w3.org/2000/svg" width="191" height="34" viewBox="0 0 191 34">
  <g fill="none" transform="translate(-4 -4)">
    <path fill="#04087F" stroke="#04087F" d="M25.7918601,34.4275466 C26.5788992,34.4275466 26.9724188,34.0204567 26.9724188,33.206277 L26.9724188,33.206277 L26.9724188,26.0352321 L34.311027,26.0352321 C35.2256941,26.0352321 35.6830276,25.5968276 35.6830276,24.7200187 C35.6830276,23.8849625 35.2256941,23.4674344 34.311027,23.4674344 L34.311027,23.4674344 L26.9724188,23.4674344 L26.9724188,17.298457 L34.311027,17.298457 C35.0767948,17.298457 35.4596787,16.8809289 35.4596787,16.0458727 C35.4596787,15.1690637 35.0767948,14.7306592 34.311027,14.7306592 L34.311027,14.7306592 L26.9724188,14.7306592 L26.9724188,7.55961438 C26.9724188,6.80806383 26.4938139,6.43228855 25.5366041,6.43228855 C24.749565,6.43228855 24.3666811,6.80806383 24.3879524,7.55961438 L24.3879524,7.55961438 L24.4517664,14.7306592 L16.3473904,14.7306592 L16.3473904,7.55961438 C16.3473904,6.72455821 15.9006925,6.30703013 15.0072967,6.30703013 C14.1564436,6.30703013 13.731017,6.72455821 13.731017,7.55961438 L13.731017,7.55961438 L13.731017,14.7306592 L6.39240883,14.7306592 C5.47774172,14.7306592 5.02040816,15.1064345 5.02040816,15.8579851 C5.02040816,16.8182997 5.47774172,17.298457 6.39240883,17.298457 L6.39240883,17.298457 L13.731017,17.298457 L13.731017,23.4674344 L6.39240883,23.4674344 C5.47774172,23.4674344 5.02040816,23.8849625 5.02040816,24.7200187 C5.02040816,25.5968276 5.47774172,26.0352321 6.39240883,26.0352321 L6.39240883,26.0352321 L13.731017,26.0352321 L13.667203,33.206277 C13.6459317,34.0204567 14.1139009,34.4275466 15.0711107,34.4275466 C15.8581498,34.4275466 16.2623051,34.0204567 16.2835764,33.206277 L16.2835764,33.206277 L16.3473904,26.0352321 L24.3879524,26.0352321 L24.3879524,33.206277 C24.3879524,34.0204567 24.8559216,34.4275466 25.7918601,34.4275466 Z M24.4400672,23.3802009 L16.2633686,23.3802009 L16.3277521,17.3543759 L24.4400672,17.3543759 L24.4400672,23.3802009 Z" transform="rotate(60 20.352 20.367)"/>
    <path fill="#A97BFF" stroke="#A97BFF" d="M25.7918601,35.2883788 C26.5788992,35.2883788 26.9724188,34.8833659 26.9724188,34.0733401 L26.9724188,26.9388822 L34.311027,26.9388822 C35.2256941,26.9388822 35.6830276,26.5027145 35.6830276,25.630379 C35.6830276,24.7995833 35.2256941,24.3841855 34.311027,24.3841855 L26.9724188,24.3841855 L26.9724188,18.2466824 L34.311027,18.2466824 C35.0767948,18.2466824 35.4596787,17.8312846 35.4596787,17.0004889 C35.4596787,16.1281534 35.0767948,15.6919857 34.311027,15.6919857 L26.9724188,15.6919857 L26.9724188,8.55752781 C26.9724188,7.8098117 26.4938139,7.43595364 25.5366041,7.43595364 C24.749565,7.43595364 24.3666811,7.8098117 24.3879524,8.55752781 L24.4517664,15.6919857 L16.3473904,15.6919857 L16.3473904,8.55752781 C16.3473904,7.72673213 15.9006925,7.31133429 15.0072967,7.31133429 C14.1564436,7.31133429 13.731017,7.72673213 13.731017,8.55752781 L13.731017,15.6919857 L6.39240883,15.6919857 C5.47774172,15.6919857 5.02040816,16.0658438 5.02040816,16.8135599 C5.02040816,17.7689749 5.47774172,18.2466824 6.39240883,18.2466824 L13.731017,18.2466824 L13.731017,24.3841855 L6.39240883,24.3841855 C5.47774172,24.3841855 5.02040816,24.7995833 5.02040816,25.630379 C5.02040816,26.5027145 5.47774172,26.9388822 6.39240883,26.9388822 L13.731017,26.9388822 L13.667203,34.0733401 C13.6459317,34.8833659 14.1139009,35.2883788 15.0711107,35.2883788 C15.8581498,35.2883788 16.2623051,34.8833659 16.2835764,34.0733401 L16.3473904,26.9388822 L24.3879524,26.9388822 L24.3879524,34.0733401 C24.3879524,34.8833659 24.8559216,35.2883788 25.7918601,35.2883788 Z M24.7320921,24.527977 L16.5188905,24.527977 L16.5835613,18.6097561 L24.7320921,18.6097561 L24.7320921,24.527977 Z" transform="rotate(60 20.352 21.3)"/>
    <path fill="#15FFF6" stroke="#15FFF6" d="M28.5284164,14.2841359 L28.5284164,4.55307443 C28.5284164,3.71376991 28.0850321,3.29411765 27.1982634,3.29411765 C26.3537217,3.29411765 25.9314509,3.71376991 25.9314509,4.55307443 L25.9314509,11.760602 L18.6472793,11.760602 C17.7393971,11.760602 17.285456,12.138289 17.285456,12.8936631 C17.285456,13.8588633 17.7393971,14.3414634 18.6472793,14.3414634 L25.9314509,14.3414634 L28.5284164,14.2841359 Z" transform="rotate(60 22.907 8.818)"/>
    <path fill="#04087F" d="M48.5414302,28.6424731 L53.5357548,15.8736559 L51.1884222,15.8736559 L47.2678774,26.2674731 L43.3473326,15.8736559 L41,15.8736559 L45.9943246,28.6424731 L48.5414302,28.6424731 Z M56.4824064,13.5497312 C57.2814983,13.5497312 57.9307605,12.8857527 57.9307605,12.0685484 C57.9307605,11.2513441 57.2814983,10.561828 56.4824064,10.561828 C55.6583428,10.561828 55.0090806,11.2513441 55.0090806,12.0685484 C55.0090806,12.8857527 55.6583428,13.5497312 56.4824064,13.5497312 Z M57.5561862,28.6424731 L57.5561862,15.8736559 L55.3836549,15.8736559 L55.3836549,28.6424731 L57.5561862,28.6424731 Z M65.0726447,28.9744624 C66.446084,28.9744624 67.5448354,28.6169355 68.4188422,27.9274194 C69.292849,27.2379032 69.7423383,26.2930108 69.7423383,25.1438172 C69.7673099,22.4112903 67.1702611,21.6706989 65.2224745,21.2365591 C63.8490352,20.8534946 62.7502838,20.3172043 62.7502838,19.3212366 C62.7502838,18.2231183 63.7491487,17.6102151 64.9727582,17.6102151 C66.2962543,17.6102151 67.1952327,18.1465054 67.6447219,19.2446237 L69.4676504,18.1975806 C68.6685585,16.5376344 66.9954597,15.5416667 64.9727582,15.5416667 C63.6992054,15.5416667 62.6503973,15.8991935 61.8013621,16.6142473 C60.9772985,17.3293011 60.5527809,18.2486559 60.5527809,19.3467742 C60.5527809,22.0537634 63.0998865,22.7177419 65.0726447,23.2540323 C66.446084,23.5860215 67.5448354,24.1478495 67.5448354,25.1438172 C67.5448354,26.344086 66.4960272,26.8803763 65.0726447,26.8803763 C63.5493757,26.8803763 62.3757094,26.1142473 61.9761635,24.8884409 L60.1032917,25.9865591 C60.8274688,27.7997312 62.6503973,28.9744624 65.0726447,28.9744624 Z M73.4131669,13.5497312 C74.2122588,13.5497312 74.861521,12.8857527 74.861521,12.0685484 C74.861521,11.2513441 74.2122588,10.561828 73.4131669,10.561828 C72.5891033,10.561828 71.9398411,11.2513441 71.9398411,12.0685484 C71.9398411,12.8857527 72.5891033,13.5497312 73.4131669,13.5497312 Z M74.4869467,28.6424731 L74.4869467,15.8736559 L72.3144154,15.8736559 L72.3144154,28.6424731 L74.4869467,28.6424731 Z M84.7003405,28.9744624 C86.4483541,28.9744624 87.9466515,28.3360215 89.1702611,27.0336022 C90.3938706,25.7311828 91.0181612,24.1223118 91.0181612,22.2580645 C91.0181612,20.3938172 90.3938706,18.8104839 89.1702611,17.5080645 C87.9466515,16.2056452 86.4483541,15.5416667 84.7003405,15.5416667 C82.6276958,15.5416667 81.0544835,16.3844086 79.9807037,18.0698925 L79.9807037,10.766129 L77.8081725,10.766129 L77.8081725,28.6424731 L79.9807037,28.6424731 L79.9807037,26.4462366 C81.0544835,28.1317204 82.6276958,28.9744624 84.7003405,28.9744624 Z M84.4256527,26.8293011 C83.1520999,26.8293011 82.1032917,26.3951613 81.2542565,25.5268817 C80.4052213,24.6330645 79.9807037,23.5604839 79.9807037,22.2580645 C79.9807037,20.9556452 80.4052213,19.8830645 81.2542565,19.0147849 C82.1032917,18.1209677 83.1520999,17.686828 84.4256527,17.686828 C85.6742338,17.686828 86.723042,18.1209677 87.5720772,19.0147849 C88.4211124,19.8830645 88.84563,20.9556452 88.84563,22.2580645 C88.84563,23.5604839 88.4211124,24.6330645 87.5720772,25.5268817 C86.723042,26.3951613 85.6742338,26.8293011 84.4256527,26.8293011 Z M95.7877412,28.6424731 L95.7877412,10 L93.61521,10 L93.61521,28.6424731 L95.7877412,28.6424731 Z M105.102157,28.9744624 C107.549376,28.9744624 109.372304,28.0040323 110.595914,26.0887097 L108.748014,25.016129 C107.998865,26.2674731 106.800227,26.8803763 105.1521,26.8803763 C102.779796,26.8803763 101.056754,25.5524194 100.632236,23.2795699 L111.095346,23.2795699 C111.145289,22.9475806 111.170261,22.6155914 111.170261,22.2836022 C111.170261,20.4193548 110.595914,18.8360215 109.422247,17.5336022 C108.273553,16.2056452 106.775255,15.5416667 104.952327,15.5416667 C103.029512,15.5416667 101.4563,16.1801075 100.23269,17.4569892 C99.0090806,18.733871 98.4097616,20.3427419 98.4097616,22.2580645 C98.4097616,24.1989247 99.0340522,25.8077957 100.257662,27.0846774 C101.506243,28.3360215 103.129398,28.9744624 105.102157,28.9744624 Z M108.972758,21.3387097 L100.632236,21.3387097 C101.00681,19.0913978 102.629966,17.6357527 104.952327,17.6357527 C106.950057,17.6357527 108.598184,18.9126344 108.972758,21.3387097 Z M119.335982,28.6424731 L121.633371,20.9045699 L123.93076,28.6424731 L127.00227,28.6424731 L130.972758,15.8736559 L127.551646,15.8736559 L125.429058,23.7392473 L123.15664,15.8736559 L120.110102,15.8736559 L117.837684,23.7137097 L115.715096,15.8736559 L112.293984,15.8736559 L116.264472,28.6424731 L119.335982,28.6424731 Z M138.664018,29 C140.511918,29 142.085131,28.3615591 143.358683,27.0591398 C144.632236,25.7567204 145.281498,24.1478495 145.281498,22.2580645 C145.281498,20.3682796 144.632236,18.7849462 143.358683,17.4825269 C142.085131,16.1801075 140.511918,15.516129 138.664018,15.516129 C136.816118,15.516129 135.242906,16.1801075 133.969353,17.4825269 C132.6958,18.7849462 132.07151,20.3682796 132.07151,22.2580645 C132.07151,24.1478495 132.6958,25.7567204 133.969353,27.0591398 C135.242906,28.3615591 136.816118,29 138.664018,29 Z M138.664018,25.7822581 C137.690125,25.7822581 136.891033,25.4502688 136.241771,24.7862903 C135.61748,24.1223118 135.292849,23.2795699 135.292849,22.2580645 C135.292849,21.2365591 135.61748,20.3938172 136.241771,19.7298387 C136.891033,19.0658602 137.690125,18.733871 138.664018,18.733871 C139.637911,18.733871 140.437003,19.0658602 141.086266,19.7298387 C141.735528,20.3938172 142.060159,21.2365591 142.060159,22.2580645 C142.060159,23.2795699 141.735528,24.1223118 141.086266,24.7862903 C140.437003,25.4502688 139.637911,25.7822581 138.664018,25.7822581 Z M150.775255,28.6424731 L150.775255,21.4663978 C150.775255,19.6021505 151.699205,18.5806452 153.122588,18.5806452 C154.446084,18.5806452 155.220204,19.4744624 155.220204,21.0067204 L155.220204,28.6424731 L158.441544,28.6424731 L158.441544,21.4663978 C158.441544,19.6021505 159.290579,18.5806452 160.763905,18.5806452 C162.087401,18.5806452 162.861521,19.4744624 162.861521,21.0067204 L162.861521,28.6424731 L166.08286,28.6424731 L166.08286,20.7768817 C166.08286,17.5846774 164.23496,15.516129 161.363224,15.516129 C159.715096,15.516129 158.466515,16.1290323 157.642452,17.3548387 C156.918275,16.1290323 155.76958,15.516129 154.246311,15.516129 C152.673099,15.516129 151.524404,16.077957 150.775255,17.2271505 L150.775255,15.8736559 L147.553916,15.8736559 L147.553916,28.6424731 L150.775255,28.6424731 Z M175.022701,29 C177.419977,29 179.242906,28.0806452 180.466515,26.2674731 L177.869467,24.7352151 C177.245176,25.577957 176.296254,26.0120968 175.072645,26.0120968 C173.14983,26.0120968 171.976163,25.2204301 171.551646,23.6115591 L180.965948,23.6115591 C181.040863,23.1263441 181.090806,22.6922043 181.090806,22.2580645 C181.090806,20.3427419 180.491487,18.7594086 179.292849,17.4569892 C178.119183,16.1545699 176.595914,15.516129 174.772985,15.516129 C172.85017,15.516129 171.251986,16.1545699 170.028377,17.4569892 C168.804767,18.733871 168.180477,20.3427419 168.180477,22.2580645 C168.180477,24.1989247 168.804767,25.8077957 170.053348,27.0846774 C171.30193,28.3615591 172.950057,29 175.022701,29 Z M177.869467,21.0577957 L171.501703,21.0577957 C171.876277,19.4233871 173.049943,18.4784946 174.772985,18.4784946 C176.246311,18.4784946 177.494892,19.3212366 177.869467,21.0577957 Z M186.559591,28.6424731 L186.559591,21.7473118 C186.559591,19.6276882 187.633371,18.5806452 189.30647,18.5806452 C190.804767,18.5806452 191.778661,19.5 191.778661,21.2110215 L191.778661,28.6424731 L195,28.6424731 L195,20.8024194 C195,19.1424731 194.550511,17.8655914 193.651532,16.9206989 C192.777526,15.9758065 191.653802,15.516129 190.280363,15.516129 C188.582293,15.516129 187.333712,16.1034946 186.559591,17.3037634 L186.559591,15.8736559 L183.338252,15.8736559 L183.338252,28.6424731 L186.559591,28.6424731 Z"/>
  </g>
</svg>
