<svg xmlns="http://www.w3.org/2000/svg" width="16" height="16" viewBox="0 0 16 16">
  <path fill="none" stroke="#C0CCDA" d="M36.9234958,31.5525054 L32.84453,27.4679606 C33.8849284,26.4632783 34.5294813,25.0782389 34.5294813,23.5507307 C34.5294813,20.4898992 31.9435834,18 28.7647407,18 C25.585898,18 23,20.4898992 23,23.5507307 C23,26.6115621 25.585898,29.1014613 28.7647407,29.1014613 C30.1600824,29.1014613 31.4406784,28.621191 32.438802,27.8242646 L36.5276502,31.9188536 C36.5814545,31.9730393 36.6533765,32 36.725573,32 C36.7942009,32 36.8625542,31.9754182 36.9158095,31.9262546 C37.025065,31.8250198 37.0283592,31.6577049 36.9234958,31.5525054 Z M28.7647407,28.5728203 C25.8886841,28.5728203 23.5490229,26.3200166 23.5490229,23.5507307 C23.5490229,20.7814447 25.8886841,18.528641 28.7647407,18.528641 C31.6407972,18.528641 33.9804584,20.7814447 33.9804584,23.5507307 C33.9804584,26.3200166 31.6405227,28.5728203 28.7647407,28.5728203 Z" transform="translate(-22 -17)"/>
</svg>
