<svg xmlns="http://www.w3.org/2000/svg" width="432" height="546" viewBox="0 0 432 546">
  <defs>
    <linearGradient id="pin-list-a" x1="41.539%" x2="-17.979%" y1="50.958%" y2="49.036%">
      <stop offset="0%" stop-color="#C9C5C5"/>
      <stop offset="25.32%" stop-color="#E7E5E5"/>
      <stop offset="100%" stop-color="#C5C2C2"/>
    </linearGradient>
    <linearGradient id="pin-list-b" x1="49.578%" x2="51.245%" y1="54.497%" y2="-2.273%">
      <stop offset="3.25%" stop-color="#FFBEB5"/>
      <stop offset="100%" stop-color="#F49E95"/>
    </linearGradient>
  </defs>
  <g fill="none" transform="matrix(-1 0 0 1 487 0)">
    <path fill="#4484F7" d="M227.065272,17.957034 L267.848758,0.0986157978 L301.137438,102.827548 C301.137438,102.827548 292.39681,107.276541 283.703568,96.4030868 C275.010326,85.5281098 237.782401,60.1394554 237.782401,60.1394554 L227.065272,17.957034 Z" transform="translate(185 415)"/>
    <g transform="translate(153 328)">
      <path fill="#C5C5C5" d="M101.723229,344.446639 L63.5023106,366.598765 C63.5023106,366.598765 4.42752835,216.811043 1.53454195,186.510269 C-1.35844444,156.209494 0.955944675,120.072277 5.00460301,90.3369132 C9.07153283,60.6199362 16.5887296,35.5580163 10.8042794,8.74930073 L11.815302,8.62212176 C32.9965303,11.6054648 61.2945052,5.16683749 73.8013421,1.78357024 C76.4202561,1.07412606 79.0604869,0.620572119 81.6794009,0.364681887 C83.7395117,3.80157883 99.0647265,32.4643493 77.3962584,97.3363537 C54.2295279,166.682607 71.6133309,176.594905 79.1320502,197.584033 C86.6675185,218.553242 90.7161768,231.375335 88.980385,251.199932 C87.2445931,271.02453 95.9189845,265.767288 100.564512,291.411473 C105.191767,317.055658 101.723229,344.446639 101.723229,344.446639 Z"/>
      <path fill="url(#pin-list-a)" d="M203.900463,72.2223364 C203.900463,72.2223364 41.8338425,128.00181 4.87822518,104.485957 C-0.904702366,90.1545722 -3.65151682,70.4035238 11.9264536,23.7901302 C14.6017047,15.8054356 16.6968359,8.38615112 18.3427929,1.47405032 C18.3610644,1.45566299 18.3610644,1.45566299 18.3610644,1.43727567 C18.5772771,1.00057677 18.6853834,0.782993463 18.6853834,0.782993463 C18.6853834,0.782993463 25.1017227,36.7562567 58.7136568,32.4658816 C92.3438623,28.1739742 91.2780252,27.1013804 108.355781,31.9387784 C125.433536,36.757789 137.180584,24.9546606 146.25238,23.8820668 C155.324176,22.809473 185.738599,21.1898564 193.219253,29.7935908 L203.900463,72.2223364 Z" transform="translate(65.473 73.55)"/>
    </g>
    <path fill="#F1B505" d="M199.917186,72.6645713 C175.065606,108.976891 156.2898,127.133818 156.003435,165.215448 C155.715556,203.278647 151.939788,205.393525 151.939788,205.393525 C151.939788,205.393525 132.301859,197.992219 113.816962,202.988369 C97.5790411,207.399357 54.6001417,217.043017 35.537971,204.154086 C16.4576185,191.285122 4.0333438,178.688005 0.578789381,164.633357 L20.6303566,145.51191 C23.9197591,148.2826 25.7561275,150.379048 27.4106772,153.84241 C27.4106772,153.84241 64.2577425,137.161443 79.6699038,111.47727 C95.082065,85.7930959 100.800262,71.991865 100.800262,71.991865 C100.800262,71.991865 98.5169224,85.8453151 104.577544,84.9714112 C110.656348,84.0775411 122.021529,68.8756066 122.021529,68.8756066 C122.021529,68.8756066 134.051863,74.4169867 143.583706,49.2411824 C153.114034,24.0484836 154.283734,5.59974271 153.401913,0.915372094 L216.77329,5.03454652 C216.765714,5.03301066 224.77028,36.3491801 199.917186,72.6645713 Z" transform="translate(112 128)"/>
    <path fill="#FFBEB5" d="M291.988407 131.610973C291.988407 131.610973 310.822909 84.6144326 300.440493 63.736533 290.058077 42.8601525 282.270882 29.1309284 282.270882 29.1309284 282.270882 29.1309284 287.462856 25.7009009 292.077263 32.5609558 296.69167 39.4240488 299.86599 43.4282793 300.728511 39.4240488 301.594095 35.4182993 305.342918 5.39264722 306.49652 2.24668317 307.650121-.899280889 311.110927-1.18334428 311.976511 4.24879839 312.842095 9.68094106 308.675034 27.2047659 312.710343 23.7732194 316.750247 20.343192 321.203793 3.67611444 322.069378 2.81936711 322.934962 1.96261978 334.758997 11.6845753 338.221334 21.1239866 341.680608 30.5618787 332.453326 44.8607487 326.685317 53.4418935 320.917308 62.0230383 323.800546 76.3203892 331.011706 134.090072L291.988407 131.610973zM115.510315 259.54887C123.947081 266.41804 129.165099 270.097192 132.693313 273.036565L112.910498 291.499166C92.5087515 299.071658 65.5791205 307.617864 57.5988926 312.828225 44.0344966 321.69799 31.343345 332.858491 31.343345 332.858491 25.2888507 323.409966 44.907741 310.247349 44.0344966 306.246157 43.1796363 302.243446 39.7065749 301.684433 19.5223738 300.818572-.660295308 299.95271-2.38839997 292.235908 1.93952172 291.948806 6.24905931 291.660186 22.7043537 293.950921 24.1398449 291.389794 25.5753361 288.811957-.0796643991 291.389794 3.66609437 288.234715 4.6113431 287.440249 5.8675894 286.521221 7.24792831 285.602192 12.6114872 281.977726 19.3400649 281.00553 25.5385679 282.861816 38.8302665 286.809841 56.6138116 291.13915 62.7770785 290.236831 70.1230553 289.171973 108.815441 260.73981 113.216899 257.495107 113.964519 258.234887 114.728991 258.919981 115.510315 259.54887z"/>
    <path fill="#FFF" d="M265.624786,137.59372 C265.569114,137.49985 265.605137,137.381756 265.706657,137.330279 C265.808176,137.278802 265.935894,137.312111 265.991566,137.40598 C266.047238,137.498336 266.011215,137.617944 265.909695,137.669421 C265.809813,137.723926 265.683733,137.689103 265.624786,137.59372 Z M275.544214,133.328707 C275.61626,133.24695 275.599886,133.121286 275.511466,133.056183 C275.421408,132.989565 275.287141,133.004706 275.21837,133.086463 C275.146324,133.169735 275.16106,133.293885 275.251118,133.358988 C275.339538,133.428633 275.470531,133.413493 275.544214,133.328707 Z M265.927707,145.051813 C266.047238,144.997309 266.097998,144.861046 266.037413,144.752036 C265.978467,144.641512 265.832737,144.597606 265.713206,144.652111 C265.593675,144.705101 265.542916,144.841364 265.605137,144.950374 C265.664084,145.062412 265.809813,145.104804 265.927707,145.051813 Z M268.118561,133.16065 C268.205344,133.068295 268.193882,132.92749 268.095637,132.844219 C267.997393,132.763976 267.843476,132.77306 267.756694,132.865415 C267.669911,132.957771 267.679735,133.101603 267.779617,133.181847 C267.877862,133.263604 268.031778,133.253006 268.118561,133.16065 Z M272.505182,136.711042 C272.591964,136.620201 272.58214,136.477882 272.482258,136.397639 C272.384013,136.317395 272.228459,136.32648 272.140039,136.417321 C272.053257,136.509677 272.064718,136.650481 272.1646,136.730725 C272.264482,136.813996 272.418399,136.804912 272.505182,136.711042 Z M276.890165,140.264462 C276.978585,140.172107 276.968761,140.028274 276.868879,139.951059 C276.768997,139.870815 276.618355,139.879899 276.529935,139.970741 C276.443152,140.063097 276.452976,140.206929 276.552858,140.287173 C276.65274,140.365902 276.803382,140.356818 276.890165,140.264462 Z M264.408191,153.248752 C264.550645,153.197275 264.622691,153.045873 264.567019,152.915666 C264.511347,152.782432 264.349244,152.718843 264.206789,152.768806 C264.062697,152.820283 263.990651,152.970171 264.047961,153.100378 C264.103632,153.23664 264.264099,153.300229 264.408191,153.248752 Z M276.823031,134.02516 C276.885253,133.894953 276.821394,133.743551 276.680576,133.684504 C276.539759,133.626971 276.377656,133.686018 276.312159,133.817738 C276.253212,133.947944 276.313797,134.099347 276.454614,134.15688 C276.598706,134.214413 276.762447,134.15688 276.823031,134.02516 Z M282.976417,136.524817 C283.038638,136.393097 282.973142,136.243208 282.833962,136.182647 C282.691507,136.125114 282.531041,136.185675 282.465545,136.315881 C282.403323,136.446088 282.465545,136.59749 282.608,136.653509 C282.750454,136.717098 282.912558,136.653509 282.976417,136.524817 Z M268.062889,139.94046 C268.172596,139.843563 268.17587,139.680048 268.071076,139.577094 C267.966282,139.475654 267.789442,139.471112 267.678098,139.569524 C267.568391,139.667936 267.563479,139.829937 267.669911,139.93289 C267.774705,140.037358 267.951545,140.0419 268.062889,139.94046 Z M272.70822,144.426521 C272.817927,144.328109 272.822839,144.164594 272.716408,144.063154 C272.611613,143.958686 272.433136,143.955658 272.321792,144.05407 C272.212085,144.152482 272.212085,144.314483 272.31688,144.41895 C272.421674,144.521904 272.600151,144.524932 272.70822,144.426521 Z M277.355189,148.911067 C277.464896,148.814169 277.469808,148.650654 277.365014,148.5477 C277.258582,148.446261 277.083379,148.441718 276.972035,148.54013 C276.862329,148.638542 276.857417,148.800543 276.963848,148.905011 C277.068643,149.00645 277.243845,149.010992 277.355189,148.911067 Z M266.525361,133.913122 C266.579396,133.802598 266.526999,133.670877 266.407468,133.620914 C266.287937,133.570952 266.145482,133.620914 266.091448,133.731438 C266.037413,133.841962 266.091448,133.973683 266.210979,134.023645 C266.33051,134.073608 266.471327,134.022131 266.525361,133.913122 Z M271.792908,136.106946 C271.846943,135.996422 271.792908,135.863188 271.675015,135.814739 C271.555484,135.764776 271.413029,135.814739 271.358995,135.928291 C271.30496,136.038815 271.357357,136.169021 271.478526,136.218984 C271.596419,136.265919 271.738874,136.215956 271.792908,136.106946 Z M277.062093,138.297742 C277.116127,138.187218 277.062093,138.053984 276.944199,138.005535 C276.823031,137.955572 276.682214,138.005535 276.628179,138.116059 C276.574145,138.226583 276.628179,138.358303 276.74771,138.408266 C276.865604,138.458229 277.008058,138.40978 277.062093,138.297742 Z M268.606509,145.201702 C268.703116,145.118431 268.706391,144.976112 268.616334,144.889813 C268.527914,144.800485 268.37236,144.797457 268.279027,144.879214 C268.184057,144.962486 268.179145,145.104804 268.269203,145.192618 C268.357623,145.280431 268.509902,145.284974 268.606509,145.201702 Z M272.564128,149.091236 C272.659098,149.009478 272.66401,148.868674 272.573953,148.779346 C272.483895,148.691533 272.333254,148.686991 272.236646,148.770262 C272.140039,148.853534 272.136764,148.992824 272.226822,149.082152 C272.31688,149.169965 272.467521,149.174507 272.564128,149.091236 Z M265.6035,150.004194 C265.657534,149.907296 265.614962,149.786174 265.513442,149.737725 C265.407011,149.687762 265.28093,149.727127 265.225258,149.824025 C265.169586,149.920922 265.212159,150.042044 265.31859,150.087465 C265.42011,150.140456 265.549465,150.101091 265.6035,150.004194 Z M270.206258,152.178336 C270.260293,152.081438 270.216083,151.960316 270.112926,151.911867 C270.008132,151.863418 269.880414,151.901269 269.824742,151.998166 C269.770707,152.095064 269.81328,152.216186 269.918074,152.264635 C270.022869,152.314598 270.150587,152.275233 270.206258,152.178336 Z M266.713664,135.256063 C266.677641,135.151595 266.554835,135.094062 266.443491,135.127371 C266.33051,135.160679 266.269926,135.274231 266.304311,135.377185 C266.340334,135.481653 266.46314,135.539186 266.572846,135.505877 C266.689102,135.474083 266.752961,135.360531 266.713664,135.256063 Z M271.63408,133.785943 C271.598057,133.681476 271.475251,133.623943 271.363907,133.657251 C271.250926,133.69056 271.190342,133.804112 271.224727,133.907065 C271.26075,134.011533 271.380281,134.069066 271.493262,134.035758 C271.609519,134.000935 271.670103,133.888897 271.63408,133.785943 Z M265.27438,161.61072 C265.364438,161.53956 265.374262,161.413896 265.297304,161.332139 C265.221983,161.250381 265.087716,161.239783 264.996021,161.310943 C264.907601,161.380588 264.896139,161.507766 264.97146,161.589523 C265.050055,161.672795 265.184323,161.681879 265.27438,161.61072 Z M270.099827,143.183505 C270.109651,143.074495 270.021231,142.979111 269.903338,142.971541 C269.785444,142.962457 269.679013,143.0427 269.672463,143.153224 C269.662638,143.26072 269.751059,143.356104 269.870589,143.365188 C269.986846,143.372758 270.09164,143.289487 270.099827,143.183505 Z M275.251118,143.563526 C275.260942,143.45603 275.17416,143.360646 275.054629,143.350048 C274.936735,143.342478 274.835216,143.422721 274.825391,143.531731 C274.815567,143.640741 274.902349,143.736125 275.02188,143.745209 C275.139774,143.752779 275.242931,143.672535 275.251118,143.563526 Z M267.542193,160.152712 C267.637163,160.040674 267.615876,159.878674 267.496345,159.789346 C267.376814,159.700018 267.201612,159.719701 267.103367,159.831739 C267.008397,159.945291 267.029684,160.108806 267.149215,160.195105 C267.267108,160.284433 267.443948,160.263236 267.542193,160.152712 Z M272.852313,164.019536 C272.947282,163.907498 272.925996,163.742469 272.808102,163.656169 C272.685297,163.568356 272.511731,163.588038 272.413487,163.698562 C272.318517,163.8106 272.339803,163.975629 272.459334,164.061928 C272.58214,164.15277 272.757343,164.131574 272.852313,164.019536 Z M266.2863,142.222098 C266.266651,142.078266 266.127471,141.97834 265.975192,141.99348 C265.821275,142.00862 265.711569,142.140341 265.727943,142.282659 C265.747592,142.424978 265.886772,142.526418 266.039051,142.509763 C266.192967,142.490081 266.304311,142.361389 266.2863,142.222098 Z M272.998042,141.481739 C272.981668,141.339421 272.839213,141.237981 272.690209,141.253121 C272.534655,141.268262 272.428223,141.399982 272.444598,141.5423 C272.460972,141.684619 272.603426,141.786059 272.752431,141.76789 C272.907984,141.75275 273.017691,141.622544 272.998042,141.481739 Z M279.714697,140.74138 C279.698323,140.599062 279.555868,140.499136 279.401951,140.512762 C279.248035,140.530931 279.141603,140.659623 279.15634,140.801941 C279.172714,140.94426 279.315169,141.0457 279.467448,141.029045 C279.623002,141.012391 279.731071,140.885213 279.714697,140.74138 Z M260.745305,169.692592 C260.879573,169.622947 260.928695,169.463974 260.851737,169.339824 C260.776416,169.215674 260.604488,169.168739 260.468583,169.241413 C260.334315,169.311058 260.285193,169.468517 260.362151,169.594181 C260.437472,169.716817 260.6094,169.763752 260.745305,169.692592 Z M264.051235,175.146115 C264.18714,175.07647 264.234625,174.917497 264.157667,174.793347 C264.082346,174.669197 263.912056,174.623776 263.777788,174.694935 C263.64352,174.764581 263.594398,174.923553 263.671356,175.047704 C263.74504,175.173368 263.913693,175.217275 264.051235,175.146115 Z M268.773525,150.924722 C268.816098,150.785431 268.727677,150.644627 268.577036,150.605262 C268.429669,150.565897 268.274115,150.646141 268.23318,150.783917 C268.192245,150.923208 268.279027,151.064012 268.428032,151.103377 C268.577036,151.142741 268.73259,151.062498 268.773525,150.924722 Z M275.283866,152.618917 C275.326439,152.479627 275.238018,152.338822 275.089014,152.299458 C274.941647,152.261607 274.786093,152.34185 274.743521,152.479627 C274.700948,152.618917 274.787731,152.759722 274.938373,152.797572 C275.085739,152.836937 275.241293,152.756694 275.283866,152.618917 Z M281.790932,154.313113 C281.833505,154.173822 281.746722,154.031504 281.59608,153.993653 C281.448713,153.954288 281.294797,154.034532 281.252224,154.172308 C281.209652,154.308571 281.296434,154.452403 281.445439,154.491768 C281.59608,154.531132 281.749997,154.450889 281.790932,154.313113 Z M266.608869,134.096319 C266.533548,133.972169 266.36162,133.928262 266.227353,133.997907 C266.093085,134.066038 266.043963,134.225011 266.120921,134.350675 C266.196242,134.474825 266.36817,134.520246 266.502438,134.449087 C266.638343,134.379442 266.68419,134.221983 266.608869,134.096319 Z M261.089161,167.086953 C261.182494,167.020336 261.19723,166.894672 261.125184,166.809886 C261.051501,166.723587 260.917233,166.70996 260.823901,166.776578 C260.730568,166.844709 260.715832,166.968859 260.787878,167.053644 C260.863199,167.13843 260.995829,167.15357 261.089161,167.086953 Z M265.613324,150.425093 C265.628061,150.317597 265.54619,150.217671 265.428297,150.204045 C265.310403,150.190419 265.203972,150.26612 265.190873,150.376644 C265.176136,150.48414 265.258006,150.584066 265.3759,150.596178 C265.492156,150.609804 265.598588,150.529561 265.613324,150.425093 Z M270.73023,151.001937 C270.744966,150.894441 270.659821,150.794515 270.543565,150.780889 C270.427309,150.768777 270.322515,150.845992 270.30614,150.953488 C270.291404,151.062498 270.376549,151.16091 270.492805,151.173022 C270.609061,151.186648 270.715493,151.109433 270.73023,151.001937 Z M265.122101,159.052015 C265.179411,158.958146 265.143388,158.837023 265.040231,158.782518 C264.940349,158.731042 264.807719,158.762836 264.748772,158.85822 C264.691463,158.952089 264.727486,159.073212 264.830642,159.124688 C264.933799,159.182221 265.064792,159.148913 265.122101,159.052015 Z M269.608604,161.397242 C269.665913,161.303372 269.62989,161.18225 269.526733,161.127745 C269.425214,161.074754 269.295859,161.108063 269.238549,161.203447 C269.18124,161.297316 269.217263,161.418438 269.317145,161.472943 C269.421939,161.52442 269.551295,161.491112 269.608604,161.397242 Z M267.296581,142.609689 C267.265471,142.503707 267.14594,142.441632 267.034596,142.473427 C266.919977,142.502193 266.851206,142.612717 266.883954,142.715671 C266.915065,142.820139 267.034596,142.879186 267.147577,142.851933 C267.260558,142.824681 267.327692,142.714157 267.296581,142.609689 Z M272.25957,141.333365 C272.228459,141.228897 272.108929,141.168336 271.997585,141.194074 C271.882966,141.224355 271.819107,141.333365 271.850218,141.436319 C271.881329,141.540786 272.000859,141.604375 272.112203,141.572581 C272.226822,141.548356 272.292318,141.439347 272.25957,141.333365 Z M264.873215,164.001367 C264.948536,163.892357 264.915788,163.747011 264.797894,163.677366 C264.681638,163.606206 264.524447,163.638001 264.447489,163.745497 C264.372168,163.854507 264.404916,163.999853 264.521172,164.069499 C264.637428,164.142172 264.797894,164.111891 264.873215,164.001367 Z M270.029418,167.097551 C270.104739,166.988541 270.071991,166.843195 269.955735,166.77355 C269.837841,166.70239 269.68065,166.734185 269.602054,166.843195 C269.526733,166.952205 269.559482,167.097551 269.677375,167.167196 C269.795269,167.238356 269.950823,167.205047 270.029418,167.097551 Z M268.149672,146.68242 C268.121836,146.553728 267.985931,146.473484 267.848388,146.499223 C267.709209,146.526475 267.622426,146.650625 267.651899,146.779318 C267.681373,146.904982 267.81564,146.989767 267.953183,146.959487 C268.090725,146.935262 268.177508,146.809598 268.149672,146.68242 Z M274.163878,145.499965 C274.136042,145.371273 273.996862,145.29103 273.860957,145.318282 C273.721777,145.345535 273.636632,145.471199 273.664468,145.598377 C273.692304,145.727069 273.829846,145.807313 273.965751,145.78006 C274.103294,145.751294 274.191714,145.628658 274.163878,145.499965 Z M259.57292,173.159713 C259.689176,173.08704 259.717012,172.940179 259.636779,172.832683 C259.558183,172.726701 259.397717,172.697935 259.281461,172.772122 C259.166842,172.844795 259.137369,172.991656 259.217602,173.099152 C259.296198,173.20362 259.456664,173.232386 259.57292,173.159713 Z M263.050778,177.841082 C263.167034,177.768409 263.196508,177.620034 263.116274,177.514053 C263.037679,177.408071 262.87885,177.380818 262.762594,177.455006 C262.647975,177.527679 262.616864,177.676053 262.697098,177.782035 C262.778968,177.891045 262.937797,177.916784 263.050778,177.841082 Z M265.167949,155.5531 C265.19251,155.424408 265.102452,155.303286 264.961635,155.279062 C264.82573,155.253323 264.691463,155.339623 264.666901,155.468315 C264.64234,155.597007 264.732398,155.719643 264.871578,155.742354 C265.00912,155.768092 265.140113,155.681793 265.167949,155.5531 Z M271.213265,156.590208 C271.237827,156.461516 271.147769,156.33888 271.008589,156.31617 C270.872684,156.293459 270.736779,156.376731 270.712218,156.505423 C270.684382,156.634115 270.777714,156.756751 270.916894,156.777948 C271.052799,156.803686 271.185429,156.718901 271.213265,156.590208 Z M277.25367,157.627316 C277.278231,157.49711 277.188173,157.375988 277.048994,157.353278 C276.909814,157.327539 276.778821,157.412325 276.75426,157.542531 C276.726424,157.671223 276.819756,157.792345 276.955661,157.81657 C277.096478,157.83928 277.229109,157.754495 277.25367,157.627316 Z M266.77261,137.265176 C266.694015,137.15768 266.533548,137.130428 266.41893,137.206129 C266.302674,137.278802 266.271563,137.427177 266.353433,137.534673 C266.432029,137.640654 266.592495,137.666393 266.708751,137.59372 C266.820095,137.521046 266.851206,137.372672 266.77261,137.265176 Z M271.835481,134.04787 C271.758523,133.940374 271.598057,133.913122 271.481801,133.987309 C271.365545,134.06301 271.337709,134.206843 271.417942,134.314339 C271.496537,134.42032 271.657003,134.449087 271.771622,134.3749 C271.887878,134.300712 271.918989,134.153852 271.835481,134.04787 Z M259.237251,170.158913 C259.33877,170.051417 259.327308,169.887902 259.21269,169.794032 C259.096434,169.701677 258.919593,169.712275 258.818074,169.819771 C258.716555,169.927266 258.729654,170.090781 258.84591,170.184651 C258.960529,170.277007 259.135731,170.266408 259.237251,170.158913 Z M264.303396,174.257382 C264.404916,174.149886 264.391817,173.986371 264.278835,173.892502 C264.162579,173.800146 263.987376,173.810744 263.88422,173.91824 C263.784338,174.024222 263.794162,174.187737 263.908781,174.281606 C264.023399,174.375476 264.20024,174.364878 264.303396,174.257382 Z M269.367905,178.358879 C269.469424,178.251383 269.456325,178.087869 269.343344,177.993999 C269.227087,177.901643 269.051885,177.912241 268.948728,178.019737 C268.848846,178.127233 268.860308,178.289234 268.976564,178.384618 C269.089545,178.473945 269.268023,178.463347 269.367905,178.358879 Z M264.056148,156.372189 C264.046323,156.22987 263.912056,156.122374 263.761414,156.131458 C263.60586,156.140542 263.491241,156.263179 263.501066,156.405497 C263.51089,156.547816 263.64352,156.656825 263.795799,156.644713 C263.949716,156.635629 264.064335,156.514507 264.056148,156.372189 Z M270.771165,155.958859 C270.759703,155.816541 270.627073,155.709045 270.474794,155.718129 C270.320877,155.727213 270.206258,155.851363 270.216083,155.992168 C270.225907,156.134486 270.358538,156.240468 270.510817,156.231384 C270.663096,156.223814 270.780989,156.101178 270.771165,155.958859 Z M277.484545,155.54553 C277.47472,155.403212 277.340453,155.295716 277.188173,155.3048 C277.034257,155.315398 276.919638,155.438034 276.927825,155.578839 C276.939287,155.721157 277.071917,155.828653 277.224196,155.818055 C277.383025,155.810485 277.497644,155.687849 277.484545,155.54553 Z M266.489338,132.062981 C266.373082,131.970626 266.196242,131.981224 266.09636,132.085692 C265.996478,132.193188 266.00794,132.355188 266.124196,132.450572 C266.240452,132.542928 266.417292,132.53233 266.517174,132.427862 C266.620331,132.317338 266.607232,132.155337 266.489338,132.062981 Z M257.406627,183.394531 C257.547444,183.332456 257.601479,183.176511 257.532707,183.047819 C257.465574,182.919127 257.295283,182.866136 257.156103,182.929725 C257.016923,182.9918 256.961251,183.147745 257.028385,183.277951 C257.100431,183.403615 257.270722,183.455092 257.406627,183.394531 Z M260.391625,188.973718 C260.530804,188.911643 260.586476,188.755698 260.519343,188.627006 C260.452209,188.498314 260.283556,188.446837 260.144376,188.510426 C260.005196,188.572501 259.947887,188.728446 260.016658,188.857138 C260.085429,188.984316 260.250807,189.035793 260.391625,188.973718 Z M266.436941,165.120233 C266.487701,164.985484 266.409105,164.838624 266.260101,164.793203 C266.116009,164.749296 265.95718,164.820456 265.906421,164.955204 C265.858936,165.089952 265.937531,165.236813 266.081623,165.282234 C266.22899,165.327654 266.387819,165.256495 266.436941,165.120233 Z M272.813015,167.114206 C272.8605,166.980971 272.783541,166.834111 272.637812,166.787176 C272.492082,166.744783 272.333254,166.814428 272.284131,166.949177 C272.235009,167.083925 272.311967,167.230786 272.460972,167.276206 C272.605064,167.321627 272.763892,167.248954 272.813015,167.114206 Z M279.187451,169.109692 C279.234936,168.974944 279.159615,168.829597 279.012248,168.782663 C278.866518,168.735728 278.709327,168.809915 278.661842,168.944663 C278.611082,169.079412 278.689678,169.224758 278.835408,169.271693 C278.981137,169.3156 279.139966,169.242927 279.187451,169.109692 Z M265.223621,148.290316 C265.156487,148.161624 264.986196,148.110147 264.847016,148.172222 C264.711111,148.234297 264.652165,148.390242 264.720936,148.518934 C264.786432,148.647626 264.956723,148.700617 265.095903,148.637028 C265.235083,148.571925 265.294029,148.417494 265.223621,148.290316 Z M271.257475,145.528732 C271.190342,145.40004 271.021688,145.348563 270.882509,145.410638 C270.743329,145.472713 270.686019,145.628658 270.754791,145.758864 C270.821925,145.884528 270.990578,145.937519 271.129758,145.876958 C271.268937,145.811855 271.324609,145.657424 271.257475,145.528732 Z M277.288055,142.77169 C277.220922,142.642998 277.052268,142.591521 276.913089,142.653596 C276.773909,142.715671 276.718237,142.868587 276.785371,143.000308 C276.852504,143.129 277.021158,143.180477 277.161975,143.118402 C277.302792,143.051785 277.356827,142.900382 277.288055,142.77169 Z"/>
    <g transform="translate(87 144)">
      <g fill="#1C2868">
        <path d="M145.488154,9.3783697 C145.488154,9.3783697 136.885105,-4.23076398 115.498458,1.75967156 C94.1118114,7.75010709 87.0293796,36.4259565 100.450014,45.7741172 C113.342336,54.7567496 118.640761,57.6960808 118.640761,57.6960808 C118.640761,57.6960808 99.9217024,63.4856268 83.0234031,59.8394061 C66.1266351,56.1931854 27.3133777,44.9947262 1.17346198,70.2569638 C1.17346198,70.2569638 10.413547,102.811643 26.7835352,116.09452 C43.1535234,129.377397 47.3784811,130.679403 50.8102064,137.710537 C50.8102064,137.710537 88.0385304,121.302543 103.616818,96.0403059 C119.195105,70.7780683 124.977432,57.200654 124.977432,57.200654 C124.977432,57.200654 125.787509,55.4847854 125.893171,54.0256929 C125.893171,54.0256929 125.977395,49.1680932 122.072486,47.8117112 C116.516797,45.8798486 118.522848,46.8903381 115.279477,45.823962 C112.037638,44.7575859 108.405307,39.3018489 111.827844,35.5680222 C115.250382,31.8357059 118.132357,33.2570372 121.196562,32.3704044 C124.262298,31.4777298 138.972317,27.2590494 145.488154,9.3783697 Z"/>
        <path d="M0.660464215,65.9597401 C17.915565,53.6888631 37.7279979,50.7163021 58.2907857,55.0256093 C74.6240219,58.4497942 90.315628,64.2197044 107.264461,62.4585224 C107.840244,62.3996149 107.846369,61.5008986 107.264461,61.5628269 C87.1304478,63.6532865 68.8141308,54.9546183 49.1854583,52.5499856 C31.5934635,50.3945767 14.5282484,54.9954004 0.201063236,65.1848805 C-0.267525762,65.5201999 0.184218534,66.29657 0.660464215,65.9597401 L0.660464215,65.9597401 Z"/>
      </g>
      <path fill="url(#pin-list-b)" d="M146.426864,54.1374661 C146.426864,54.1374661 146.390111,54.1903317 146.299763,54.3172093 C144.99047,55.9832331 134.559005,69.1618892 128.798117,69.9669579 C123.000476,70.7750474 124.763045,58.6189644 124.962118,57.3109167 C124.980495,57.2399256 124.980495,57.2036749 124.980495,57.2036749 C124.980495,57.2036749 124.980495,57.2036749 124.998871,57.1855495 C125.070843,56.9876809 125.779852,55.3926481 125.890108,54.0120989 C125.890108,54.0120989 125.908484,53.5106303 125.781384,52.7750423 C127.470448,52.9547855 129.507125,53.0801527 131.943482,53.1345288 C137.323067,53.2417706 141.321387,52.4714423 144.211019,51.4126184 C143.920066,51.9503378 144.774551,52.811293 145.501936,53.4381288 C145.990433,53.8519915 146.426864,54.1374661 146.426864,54.1374661 Z"/>
      <path fill="#FFBEB5" d="M159.784713,28.7000165 C157.294759,30.8327687 155.749641,30.5276582 155.423466,32.3749358 C155.18764,33.7373596 156.005374,41.0705831 151.279669,46.6093948 L151.134192,46.7528873 C151.134192,46.7528873 151.115816,46.7710127 151.080595,46.8238784 C151.062219,46.8420037 151.043843,46.876744 151.026999,46.9129948 C150.572192,47.5232156 148.700898,49.7813349 144.249303,51.3944931 C144.249303,51.3944931 144.230927,51.4126184 144.212551,51.4126184 C141.321387,52.4714423 137.324599,53.2402601 131.945013,53.1345288 C129.508657,53.0816631 127.475042,52.9547855 125.782915,52.7750423 C125.528713,51.2510005 124.727824,48.7406365 122.075549,47.8086903 C116.513734,45.8722963 118.532036,46.876744 115.277946,45.8179202 C115.169221,45.7816695 115.077341,45.7469292 114.968616,45.692553 C114.478588,45.4418187 113.970184,45.1185829 113.458718,44.7606068 C113.349993,44.6896158 113.222892,44.5989889 113.112636,44.4917471 C110.76816,42.3771204 109.186289,38.4499564 111.840095,35.5634908 C115.256507,31.8341955 118.127763,33.2509954 121.201156,32.3719149 C123.781458,31.6197119 134.669261,28.499127 141.901764,16.7931574 C141.955361,16.704041 142.028865,16.6134141 142.083993,16.5061723 C143.557139,14.1755516 144.497379,11.6908651 145.48356,9.37081746 C145.48356,9.37081746 152.951889,20.1101005 156.988492,22.5660885 C161.022033,25.0054615 162.274666,26.5476286 159.784713,28.7000165 Z"/>
      <path fill="#1C2868" d="M22.1307837,5.76386838 C21.4110555,2.45900884 18.6332109,0.235629839 15.9380585,0.803558171 L15.9380585,0.803558171 C13.2429061,1.37601784 11.6334714,4.52983262 12.3531996,7.83318172 C12.4358917,8.21985632 12.5538047,8.58991601 12.6885623,8.94487121 C11.0990349,9.58228014 10.1587942,11.1229368 9.48806878,12.6454681 C9.35177983,12.5125487 9.2292729,12.3660352 9.08073325,12.2451994 C7.71937501,11.1335099 6.12678495,10.7000114 4.59851103,11.0247577 C1.47917838,11.6863338 -0.378332912,15.3401067 0.456245533,19.173623 C0.855924385,21.0118378 1.80841575,22.6204646 3.13914725,23.7079869 C4.20648886,24.5795152 5.41471343,25.0326496 6.62293801,25.0326496 C6.95676939,25.0326496 7.29060077,24.9994197 7.61983813,24.9284287 C9.15117473,24.6051929 10.4221841,23.5644944 11.2031658,22.001181 C11.9642401,20.4710975 12.1617825,18.6177782 11.763635,16.7810738 C11.4834004,15.4926619 10.9183372,14.3296172 10.1572629,13.3704829 C10.7315141,11.9778502 11.5630299,10.3314622 13.0683337,9.76051297 C14.0866726,11.6591457 15.853835,12.8871397 17.6945016,12.8871397 C17.9777989,12.8871397 18.2610961,12.8584412 18.5474561,12.7995337 C21.2410772,12.2225427 22.8489806,9.07023837 22.1307837,5.76386838 Z M10.3869634,21.6039333 C9.73308264,22.9165123 8.68258573,23.7865302 7.43148373,24.0493481 C6.17731906,24.3182078 4.86036959,23.9496586 3.71799248,23.0146914 C2.54345731,22.0570676 1.70275352,20.6236527 1.34442076,18.984817 C0.615504539,15.6331336 2.16062317,12.4581725 4.78839677,11.9023278 C5.053318,11.8449308 5.32283324,11.8192532 5.59081714,11.8192532 C6.5892486,11.8192532 7.6014621,12.2029069 8.50188801,12.9384949 C9.67642318,13.8961187 10.517127,15.3295336 10.8754597,16.9683693 C11.2307298,18.6072051 11.0592201,20.2551035 10.3869634,21.6039333 Z M18.3529763,11.9174323 C16.140195,12.3841606 13.8523781,10.4674025 13.2413748,7.64739665 C12.6257775,4.82436992 13.9228196,2.14936706 16.1279443,1.68263873 C18.3407257,1.21288949 20.6300739,3.13266851 21.2395458,5.95267434 C21.8551431,8.77570107 20.5611637,11.4507039 18.3529763,11.9174323 Z" transform="translate(138.946 7.552)"/>
    </g>
  </g>
</svg>
