<svg xmlns="http://www.w3.org/2000/svg" width="23" height="23" viewBox="0 0 23 23">
  <path fill="#C0CCDA" d="M16.0044144,0 C15.6472538,0.000684731462 15.3176084,0.191923776 15.139726,0.501636554 L15.1377733,0.501636554 L10.7635805,6.89408714 L16.1078651,12.2383713 L22.5354491,7.84075527 L22.5374009,7.8388035 C22.8256045,7.65528911 23,7.33725627 23,6.99558559 C23,6.72863581 22.8931312,6.4727955 22.7033122,6.28509643 L16.7344227,0.318158633 L16.7305182,0.314254797 C16.5420205,0.114075821 16.2793741,0.000403498369 16.0044144,0 Z M6.12002671,7.99495497 C4.63396446,7.99495497 3.14702776,8.5612696 2.01324321,9.69505416 L6.95153301,14.6352957 L0.307288516,21.279541 C0.0462154407,21.5302001 -0.058950719,21.9024143 0.0323489353,22.2526335 C0.12364859,22.6028527 0.397147516,22.8763516 0.747366773,22.9676511 C1.09758603,23.0589507 1.46980014,22.9537844 1.72045917,22.6927113 L8.36470426,16.048467 L13.3049458,20.9867568 C15.5725149,18.7191877 15.5725149,15.0427106 13.3049458,12.7751415 L10.2248584,9.69505416 C9.0910739,8.5612696 7.60608897,7.99495497 6.12002671,7.99495497 Z"/>
</svg>
