<svg xmlns="http://www.w3.org/2000/svg" xmlns:xlink="http://www.w3.org/1999/xlink" width="340" height="374" viewBox="0 0 340 374">
  <defs>
    <path id="search-a" d="M39.6633077,77.9605792 C61.2620643,77.9741707 78.7770655,60.5328544 78.7839459,39.0157635 C78.7975869,17.4986726 61.2962666,0.0437249395 39.69751,0.0334789986 C18.1021736,0.0232779098 0.587172404,17.4611864 0.573468974,38.9782773 C0.56323079,60.5021839 18.0645511,77.9537237 39.6633077,77.9605792 Z"/>
  </defs>
  <g fill="none" fill-rule="evenodd" transform="matrix(-1 0 0 1 340 0)">
    <g transform="translate(93 110)">
      <path fill="#A97BFF" d="M119.203648,236.180094 C122.548808,236.180094 125.931592,235.284168 128.986017,233.399279 C137.851716,227.947917 140.653031,216.287102 135.238524,207.355414 L78.9728022,114.520305 C73.5514545,105.581725 61.9802121,102.773343 53.1213538,108.221259 C44.2522342,113.672621 41.4543399,125.336882 46.8688468,134.26857 L103.131148,227.100233 C106.678112,232.951316 112.865631,236.180094 119.203648,236.180094"/>
      <polygon fill="#EB9A77" points="42.481 76.486 38.603 126.647 3.834 122.888 18.385 51.8"/>
      <path fill="#EB9A77" d="M0.194292679,42.8500565 C1.97290517,64.5314532 20.863822,80.6615578 42.3884535,78.8697068 C63.9165054,77.07441 79.9240178,58.0463311 78.1419849,36.3580426 C76.3633724,14.6732001 57.4724556,-1.45345862 35.9444037,0.338392349 C14.4197722,2.13024332 -1.58774022,21.165214 0.194292679,42.8500565"/>
    </g>
    <g transform="translate(92 111)">
      <mask id="search-b" fill="#fff">
        <use xlink:href="#search-a"/>
      </mask>
      <path fill="#072042" d="M77.2560889,16.7513337 C77.2560889,16.7513337 80.7960277,35.5182991 23.9962571,23.4886299 L18.835129,49.4972517 C18.835129,49.4972517 11.9878273,88.8782309 11.5876603,84.0425083 C11.1840731,79.203378 -31.5004056,9.94247279 26.9992196,-6.72867207 C81.6955483,-22.3161244 77.2560889,16.7513337 77.2560889,16.7513337" mask="url(#search-b)"/>
    </g>
    <path fill="#EB9A77" d="M119.968,155.790347 C119.52992,161.295862 114.711049,165.403097 109.208099,164.968451 C103.70178,164.530436 99.5939445,159.712268 100.032024,154.206754 C100.466733,148.701239 105.285605,144.594004 110.788554,145.032019 C116.294874,145.470034 120.406079,150.284833 119.968,155.790347"/>
    <path fill="#A97BFF" d="M143.989224,210 L77.5027291,210 C57.3907984,210 48.3501321,229.381832 49.0362386,241.662294 L64.3107718,366.779867 C64.972622,372.629682 69.9590225,377.037786 75.8602317,377 L157.108412,376.418923 C163.137833,376.373978 168.120768,371.703115 168.540056,365.697721 L176.918872,245.219893 C178.246037,226.17688 163.120507,210 143.989224,210"/>
    <path fill="#EB9A77" d="M87,210 L145,210.045096 C145,210.045096 142.088129,230 115.839393,230 C89.5871659,230 87,210 87,210"/>
    <path fill="#072042" d="M59.7279306,139.998465 C40.6975146,131.946911 31.8832075,110.201538 40.0435723,91.4248746 C48.2039371,72.6482117 70.2397049,63.9514352 89.2701208,72.0029891 C108.304015,80.051111 117.114844,101.799916 108.957958,120.576579 C100.801071,139.353242 78.7583466,148.046587 59.7279306,139.998465"/>
    <path fill="#EB9A77" d="M149.068715,344.380448 C144.462281,335.202648 133.091011,331.397874 123.664373,335.880993 C120.568133,337.351858 118.089072,339.544725 116.289253,342.133852 L87.9783068,343.211815 L78,361.500253 L117.820133,364.784515 C123.343716,370.835885 132.508311,372.85077 140.342006,369.119875 C149.765196,364.636757 153.6717,353.558248 149.068715,344.380448"/>
    <polygon fill="#CFD1D3" points="96 372 182 372 182 362 96 362"/>
    <path fill="#E2E4E9" d="M169,372 L298.329964,372 C305.779935,372 312.316817,367.061985 314.315927,359.926621 L339.533074,269.845665 C341.760456,261.881568 335.738915,254 327.424278,254 L208.639791,254 C203.662768,254 199.318682,257.32869 198.052809,262.111963 L169,372 Z"/>
    <path fill="#FFF" d="M245,321.5 C245,328.403618 250.597173,334 257.501767,334 C264.402827,334 270,328.403618 270,321.5 C270,314.596382 264.402827,309 257.501767,309 C250.597173,309 245,314.596382 245,321.5"/>
    <path fill="#A97BFF" d="M98.5920353,374 L19.2394476,373.602244 C14.5098232,373.546904 9.80440002,372.021596 6.28829765,368.85684 C0.141168813,363.32976 -1.58749509,354.741686 1.49298398,347.485231 L53.1074307,227.988914 C57.0280405,218.968497 67.3861946,214.672731 76.5342839,218.26983 C86.1076246,222.02949 90.688584,232.945302 86.6746264,242.411897 L46.9914179,336.351518 L99,336.932588 L98.5920353,374 Z"/>
    <path fill="#E5EBF1" d="M165.948778,50 C160.453394,50 156,45.4507161 156,39.8413367 L156,10.1586633 C156,4.54928391 160.453394,0 165.948778,0 L241.044344,0 C246.543167,0 251,4.54928391 251,10.1586633 L251,39.8413367 C251,45.4507161 246.543167,50 241.044344,50 L165.948778,50 Z"/>
    <polygon fill="#E5EBF1" points="175 43 175 61 195 43"/>
    <path fill="#FFF" d="M188 24C188 26.7614491 185.762214 29 183.001708 29 180.241203 29 178 26.7614491 178 24 178 21.2385509 180.241203 19 183.001708 19 185.762214 19 188 21.2385509 188 24M208 24C208 26.7614491 205.762214 29 203.001708 29 200.241203 29 198 26.7614491 198 24 198 21.2385509 200.241203 19 203.001708 19 205.762214 19 208 21.2385509 208 24M229 24C229 26.7614491 226.762214 29 224.001708 29 221.241203 29 219 26.7614491 219 24 219 21.2385509 221.241203 19 224.001708 19 226.762214 19 229 21.2385509 229 24"/>
  </g>
</svg>
