<svg xmlns="http://www.w3.org/2000/svg" width="315" height="520" viewBox="0 0 315 520">
  <defs>
    <linearGradient id="subscribe-a" x1="45.439%" x2="79.109%" y1="37.209%" y2="132.036%">
      <stop offset="0%" stop-color="#FFBEB6"/>
      <stop offset="56.73%" stop-color="#F8AEA7"/>
      <stop offset="100%" stop-color="#F2A19C"/>
    </linearGradient>
    <linearGradient id="subscribe-b" x1="69.178%" x2="-23.707%" y1="48.72%" y2="58.019%">
      <stop offset="0%" stop-color="#FFBEB6"/>
      <stop offset="56.73%" stop-color="#F8AEA7"/>
      <stop offset="100%" stop-color="#F2A19C"/>
    </linearGradient>
    <linearGradient id="subscribe-c" x1="-.001%" x2="99.999%" y1="50%" y2="50%">
      <stop offset="0%" stop-color="#428DFC"/>
      <stop offset="100%" stop-color="#1D72D8"/>
    </linearGradient>
    <linearGradient id="subscribe-d" x1="38.554%" x2="47.398%" y1="97.273%" y2="62.16%">
      <stop offset="0%" stop-color="#FFBEB6"/>
      <stop offset="100%" stop-color="#F2A19C"/>
    </linearGradient>
    <linearGradient id="subscribe-e" x1="13.072%" x2="78.334%" y1="77.34%" y2="32.151%">
      <stop offset="0%" stop-color="#428DFC"/>
      <stop offset="100%" stop-color="#1D72D8"/>
    </linearGradient>
    <linearGradient id="subscribe-f" x1="75.419%" x2="13.179%" y1="23.576%" y2="85.81%">
      <stop offset="0%" stop-color="#428DFC"/>
      <stop offset="100%" stop-color="#1D72D8"/>
    </linearGradient>
    <linearGradient id="subscribe-g" x1="-.001%" x2="99.998%" y1="49.999%" y2="49.999%">
      <stop offset="0%" stop-color="#EEE"/>
      <stop offset="100%" stop-color="#D6D7D8"/>
    </linearGradient>
  </defs>
  <g fill="none" fill-rule="evenodd">
    <path fill="#FFBEB6" fill-rule="nonzero" d="M325.939735,80.5525196 C330.726127,83.4831589 317.850451,90.5473529 316.203205,91.7889385 C310.691855,95.9459715 306.314126,97.2925187 300.801377,101.450933 C300.801377,101.450933 321.105758,96.477685 324.948868,101.072519 C327.546395,104.177173 319.280771,106.966943 315.212337,107.261112 C311.143904,107.553899 307.062874,108.394973 302.99724,108.709858 C297.087024,109.168375 291.7996,112.32551 286.239267,114.355689 C278.844151,117.055689 269.144008,117.39129 265.859311,107.808017 C264.687905,104.392621 264.764879,100.680293 265.782337,97.2165597 L276.697272,60.0297586 C281.843344,59.4759479 283.812482,66.7749245 282.345775,71.6735943 C280.879067,76.5722641 278.047818,82.0164582 280.711124,86.3958441 C289.620532,77.5542078 300.443097,70.5963565 312.245334,66.1423925 C313.798812,65.5568171 315.621,65.8744641 316.757419,67.0718554 C318.371077,68.7705765 317.475377,70.5728782 316.48591,72.0271492 C313.468523,76.4603971 313.961158,76.439681 308.941043,78.435333 C315.467052,73.7603972 326.205646,66.1603465 326.201447,72.9055124 C326.197248,79.3357934 319.46131,84.3339005 313.2404,86.243926 C319.173007,82.832673 323.81105,79.2487857 325.939735,80.5525196 Z"/>
    <path fill="url(#subscribe-a)" fill-rule="nonzero" d="M278.247497,77.5409246 C279.088754,79.6548754 279.023115,82.0927715 280.035838,84.1250438 C280.648027,85.3543747 281.615204,86.3511295 282.384124,87.4835537 C285.169112,91.5882453 285.103473,96.9984088 284.930667,102.008486 C284.874405,103.651747 284.816803,105.304699 284.480568,106.911966 C283.919283,109.594898 282.568986,112.096475 280.653385,114 C279.319162,112.311054 277.020441,111.934503 275.07403,111.094183 C270.389515,109.072986 267.372779,103.558994 268.110888,98.3675623 C268.247525,97.4054171 268.498027,96.4654219 268.747189,95.5281955 C269.345982,93.2771909 269.944774,91.0275708 270.544907,88.7765662 C271.611213,84.7701657 272.713688,80.6820866 274.970882,77.244667 C275.371417,76.635539 275.913947,75.9904172 276.626604,76 C277.404901,76.0097985 277.95011,76.7961273 278.247497,77.5409246 Z"/>
    <path fill="#1D72D8" fill-rule="nonzero" d="M60.4108643,40.6774181 C61.2897802,42.6351178 61.0700513,44.8864723 60.5010095,46.9447387 C58.5361252,54.0353658 52.3287812,59.9071237 44.8692636,61.7334161 C42.8325449,62.2322272 40.7324428,62.4467697 38.6365663,62.6090174 C32.4799289,63.0877151 26.2852616,63.126601 20.1215816,62.7270157 C16.9143835,62.5191777 12.4902247,62.6331534 12.0296389,59.6054234 C11.7718799,57.9105383 13.2494166,55.1737815 14.3635552,53.8288687 C21.7160254,44.9615622 33.1306648,39.9855188 44.598828,37.0811508 C47.4651645,36.3543883 50.4413655,35.7335562 53.3795365,36.1170508 C56.3177075,36.5018862 59.2460189,38.0801139 60.4108643,40.6774181 Z"/>
    <path fill="#FFBEB6" fill-rule="nonzero" d="M0.0790074653,27.335338 C2.28261079,36.6299804 14.5625787,38.5541007 21.7576253,44.8339671 C27.8006947,50.1084498 30.2022512,58.6466474 37.3024453,63.1027944 C39.0166645,64.1783213 40.970077,64.8907547 42.9908486,64.9870294 C50.6656567,65.3501229 54.4295157,58.0222367 56.6358684,51.5181876 C60.7104038,39.503095 63.193066,26.9488636 64,14.2873545 C61.8115181,12.4773887 58.3239687,14.2007072 56.9327981,16.6763445 C55.1141036,19.9153032 55.412408,24.0124828 53.0727119,27.0960264 C52.4761031,27.8827289 51.6760425,28.5208932 50.761884,28.8949895 C47.9644212,30.0379087 46.3230598,28.4149909 44.8411606,26.8910987 C40.0339237,21.9480764 35.2280614,17.0064294 30.4208244,12.0634071 C27.1820912,8.7322997 23.4800926,5.182511 18.8419406,4.94044869 C17.3325479,4.86205352 15.4107529,5.60749539 15.4684892,7.11900945 C15.4932333,7.75717371 15.8891396,8.31419208 16.2877952,8.81344559 C21.704013,15.5856887 32.5763141,24.9779813 30.3149745,27.6282885 C29.1396277,28.1880575 24.8025295,22.921827 22.2964978,19.1464803 C16.3812731,10.2438138 6.71318691,-3.08886802 4.21952725,0.643842766 C3.70402429,1.63134695 3.83461837,3.30377742 4.42160441,5.15775463 C5.14605791,7.44221764 4.10955329,10.2616934 1.7684825,10.7664483 C0.982168654,10.9356168 0.693486995,11.9588802 1.3093412,14.584431 C4.57556796,22.5463554 11.0269157,30.5275347 18.3979207,34.9630514 C15.1798075,36.1334777 11.4984291,32.1284468 9.06525509,29.7202019 C6.63208111,27.311957 -0.847523191,22.3551812 0.0790074653,27.335338 Z"/>
    <path fill="url(#subscribe-b)" fill-rule="nonzero" d="M36.0170829,49.7836691 C35.9494701,52.9113365 35.997765,56.2848896 37.8081327,58.8140007 C39.6391982,61.3726181 42.8749545,62.4615409 45.9616866,62.8437177 C48.6110051,63.1725022 51.427286,63.0600972 53.7633778,61.7463645 C56.7121246,60.0869866 58.4286623,56.7598005 59.1613644,53.4129435 C59.8954464,50.0646814 59.8098955,46.595584 60.0831065,43.1756638 C60.8489252,33.5819024 64.4544822,24.2466724 63.9522155,14.6332402 C62.5530441,13.3363682 60.1589985,14.1920508 59.0482164,15.7516693 C57.9374344,17.3112878 57.6711227,19.3092855 57.1260806,21.1541316 C56.3754404,23.6958882 55.0563005,26.0240755 53.6378112,28.2525034 C53.0527533,29.1714137 52.4028424,30.1198304 51.4286658,30.5849058 C50.664227,30.9502218 49.7921597,30.9712978 48.9532088,31.0640318 C43.989876,31.6106009 39.4377396,35.074078 37.5183635,39.7669841 C36.2350998,42.9030819 36.091595,46.3862299 36.0170829,49.7836691 Z"/>
    <path fill="#63302F" fill-rule="nonzero" d="M173.928993,459.415144 C170.074975,474.633395 150.138901,447.695995 144.2813,440.48005 C129.942894,422.816727 125.970854,421.24539 125.009808,398.6309 C124.626233,389.613396 135.561638,378.994044 145.822626,372 C158.156044,375.042818 175.238488,447.239711 173.928993,459.415144 Z"/>
    <path fill="#D6D7D8" fill-rule="nonzero" d="M133.074388,490.274946 C128.93844,497.921313 105.394715,520.014828 96.8371064,518.963747 C90.9113404,518.236183 86.4141317,513.096025 83.8331131,507.655955 C77.3208143,493.930817 89.933328,463.475868 94.0898806,448.84544 C100.008779,428.014055 115.121268,408.071297 127.494773,390.369549 C131.636216,388.706148 135.368322,392.861873 141.0592,398.749033 C145.816022,403.668423 147.087987,407.890795 149.348954,426.935205 C152.296727,451.776524 144.949272,468.324445 133.074388,490.274946 Z"/>
    <path fill="#63302F" fill-rule="nonzero" d="M168.441052,455.831312 C166.414229,448.853159 158.305521,431.15895 157.653486,426.753368 C157.411625,425.119419 150.020014,423.430175 156.971749,417.813646 C164.501971,411.728497 172.05058,405.15261 180.545417,401 C185.976681,408.890511 188.212835,413.578094 192.225464,422.379581 C204.82628,450.007429 206.464146,462.931114 215,496.069049 C212.671911,505.539598 174.954326,478.261487 168.441052,455.831312 Z"/>
    <path fill="#D6D7D8" fill-rule="nonzero" d="M89.9332757,519.89431 C98.9285285,521.023944 106.529708,512.910116 110.194441,504.555502 C116.304604,490.624265 116.052005,474.53145 112.4296,459.743012 C108.807195,444.95595 102.025255,431.178816 95.2952,417.540651 C92.5671316,412.012186 89.8390631,406.485097 87.1109946,400.956631 C86.0965027,398.899624 85.0096446,396.755933 83.1445087,395.43367 C81.4336629,394.220104 79.2886201,393.85686 77.2227704,393.525262 C63.0608454,391.249483 62.2142976,373.275779 48.0510072,371 C47.8461972,379.676581 48.2585479,400.077416 49.2812322,404.882144 C57.0722026,441.506507 54.0574002,474.853417 73.8543295,506.55472 C77.6829101,512.681713 82.8045241,518.999959 89.9332757,519.89431 Z"/>
    <path fill="url(#subscribe-c)" fill-rule="nonzero" d="M72.2355728,199.249396 C75.3814998,209.05583 80.3710224,218.664321 79.978125,228.955991 C79.5852276,239.249035 57.0623135,279.535967 55.4151665,269.369386 C53.6045413,258.193845 49.0134111,237.580265 46.6725117,230.050177 C29.4056311,174.490006 44.1763766,109.076665 12,60.6108316 C30.0073412,59.8438018 47.6533815,52.383819 60.7549998,40 C62.5766152,78.3253698 64.3968568,116.65074 66.2184722,154.976109 C66.9273361,169.898824 67.6719179,185.024981 72.2355728,199.249396 Z"/>
    <path fill="#1D72D8" fill-rule="nonzero" d="M33.7475265,329.382998 C31.226777,331.370898 29.0069713,333.83915 27.8570346,336.808109 C25.1747694,343.73387 29.1091265,351.823875 35.2039289,356.183685 C41.2987312,360.543495 49.0376806,361.949273 56.5281444,362.793282 C71.4704185,364.47723 86.6156227,364.398528 101.53857,362.558534 C109.466645,361.581545 118.794522,360.025149 120.695438,352.396499 C121.969618,347.284951 119.095466,340.621077 114.875351,337.382089 C110.655235,334.143102 105.369392,332.620629 100.224357,331.166002 C95.8813788,329.937982 91.5384007,328.709962 87.1968031,327.481942 C78.2720247,324.958056 69.2437104,322.417886 59.9655301,322.043374 C50.6873497,321.670219 40.990885,323.670331 33.7475265,329.382998 Z"/>
    <path fill="url(#subscribe-d)" fill-rule="nonzero" d="M53.5260592,268 C43.1245945,304.250594 41.2015185,342.898025 47.9516257,380 C67.9408399,379.336282 87.8941346,377.615583 107.700988,374.846181 C109.086653,374.652999 110.606325,374.381165 111.489116,373.296586 C112.351185,372.238225 112.331844,370.741065 112.280727,369.377752 C111.467012,347.781389 113.052997,326.095334 117,304.846699 C94.5958886,307.017236 71.6778518,309.156036 49.8263484,303.7635 C48.6921204,303.483386 47.4750012,303.188094 46.3836004,303.604815 C45.2921995,304.021536 44.5489417,305.493858 45.290818,306.396294 C46.0326943,307.29735 47.9143246,306.072024 47.1392918,305.198566"/>
    <path fill="url(#subscribe-e)" fill-rule="nonzero" d="M27.5109041,346.488096 C37.9707886,339.799756 46.3683755,331.620959 58.7851542,331.68335 C66.558643,331.722171 74.0200827,334.531163 81.2831979,337.301334 C94.7262714,342.428506 118.16601,349.072479 120.931458,354 C139.034464,315.285548 152.661993,272.847032 160,230.745429 C150.545607,219.020037 132.556325,221.597488 117.491984,221.548962 C98.519401,221.487957 83.3607512,214.862008 66.3284201,223.221047 C64.2037128,224.263674 62.1136775,225.575276 60.8141666,227.552385 C59.5118818,229.533653 53.9463135,233.123228 52.8839598,241.259045 C49.2184235,269.357283 44.9870383,291.729392 31.7908303,316.807894 C27.0892912,325.738159 24.0034727,337.024039 27.5109041,346.488096 Z"/>
    <path fill="#FFBEB6" fill-rule="nonzero" d="M144.060319,184.683786 C145.888321,182.453947 148.720963,180.195591 151.419376,181.280634 C154.552303,182.539501 154.419458,186.976092 153.189258,190.072336 C149.94286,198.243431 139.572651,201.520289 131,204 C132.167929,195.782733 138.761743,191.150589 144.060319,184.683786 Z"/>
    <path fill="#F2A19C" fill-rule="nonzero" d="M90.4607539,226.747485 C101.285402,230.73524 119.734598,229.651243 124.017722,221.700123 C121.979005,210.074251 122.103539,199.453787 125,188 C115.679553,197.886056 102.031205,203.814166 88.2093503,203.980831 C87.8231555,209.719242 87.4369607,215.457653 87.0493667,221.196064 C86.9626128,222.488731 86.903844,223.891152 87.656644,224.962955 C88.2975034,225.872157 89.3987182,226.355891 90.4607539,226.747485 Z"/>
    <path fill="#63302F" fill-rule="nonzero" d="M216.281775,135.907328 C210.203765,142.949901 200.431791,145.395694 191.312018,147.464791 C181.974384,149.583023 171.910092,151.650755 163.06747,148.005268 C157.163195,145.571759 151.825632,140.632404 145.455303,141.190623 C142.334945,141.463591 139.476571,143.071372 136.378275,143.520404 C133.2786,143.969437 129.408142,142.562287 129,139.488668 C131.050363,132.61124 134.645049,126.188304 139.447615,120.819025 C142.347355,117.576166 145.851036,114.626747 150.089649,113.555348 C156.697141,111.884784 163.715533,115.055307 170.431956,113.889733 C182.168803,111.850663 187.412604,98.5052597 195.809856,90.1360624 C202.944072,83.0266121 213.33929,79.2569247 223.424265,80.1222331 C233.50924,80.9875415 243.095068,86.4714676 248.886275,94.6905326 C249.636375,95.7537428 250.347866,97.1035693 249.814248,98.2882502 C249.371634,99.2682052 248.250621,99.721332 247.244054,100.122595 C237.891254,103.849972 229.926964,110.889816 225.131292,119.668465 C222.166746,125.095068 220.330105,131.216374 216.281775,135.907328 Z"/>
    <path stroke="#000" stroke-width=".958" d="M165.813722 213.774082C164.542021 215.516055 163.271701 217.258027 162 219 191.093096 184.728734 223.629865 153.198614 259 125 255.556327 127.479227 251.778505 129.524694 247.792185 131.065723M108.954108 149.24769C122.737528 158.082819 133.947072 170.585174 141 184.990244 138.94202 185.167533 137.758821 182.892093 136.806935 181.130372 132.73163 173.592105 123.315109 170.158006 114.502804 169.479562 105.690499 168.801118 96.7926784 170.213845 88 169.326004 93.3846744 170.372986 104.382532 146.317538 108.954108 149.24769z"/>
    <path d="M66,497 C73.0246378,489.696172 82.1532667,484.430084 92,482 C90.6589946,483.882976 89.3166292,485.764594 87.9756238,487.64757"/>
    <path fill="#FFF" fill-rule="nonzero" d="M109.028133,288.984912 C108.962205,289.216707 109.131934,289.513737 109.364785,289.578973 L109.364785,289.578973 C109.599039,289.644209 109.900623,289.47765 109.965148,289.247243 L109.965148,289.247243 C110.031076,289.015448 109.861347,288.718417 109.628496,288.653182 L109.628496,288.653182 C109.394242,288.58517 109.126323,288.636526 109.028133,288.984912 L109.028133,288.984912 Z M101.074726,334.8567 C100.774545,335.02326 100.708617,335.255055 100.876943,335.553473 C100.928844,335.81858 101.279523,335.917127 101.547442,335.86716 L101.547442,335.86716 C101.847624,335.7006 101.913551,335.468806 101.745225,335.170387 C101.576899,334.871968 101.341243,334.806733 101.074726,334.8567 L101.074726,334.8567 Z M111.920536,329.618414 C111.620354,329.784973 111.554426,330.016768 111.722752,330.315187 C111.891079,330.612217 112.125332,330.677453 112.425514,330.512282 L112.425514,330.512282 C112.693433,330.460926 112.791623,330.113928 112.623297,329.815509 L112.623297,329.815509 C112.421306,329.633682 112.069224,329.535134 111.920536,329.618414 L111.920536,329.618414 Z M99.8066701,309.456424 C99.8585706,309.721531 100.059159,309.90197 100.325675,309.852002 C100.593594,309.800647 100.774545,309.602164 100.724047,309.337057 C100.672147,309.07195 100.471558,308.891511 100.205042,308.941479 C99.9721907,308.874855 99.7547695,309.18993 99.8066701,309.456424 Z M111.792888,308.666656 C111.844789,308.931763 112.045377,309.112202 112.311894,309.062234 C112.579813,309.010878 112.760763,308.812395 112.710265,308.547289 C112.658365,308.282182 112.457776,308.101743 112.19126,308.151711 C111.924744,308.201678 111.739585,308.402937 111.792888,308.666656 Z M119.852901,350.242606 C119.669145,350.441089 119.721046,350.707583 119.923037,350.888022 C120.123626,351.069849 120.392947,351.018494 120.573898,350.818623 L120.573898,350.818623 C120.757654,350.62014 120.704351,350.355033 120.62159,350.206518 L120.62159,350.206518 C120.304576,349.992767 120.036657,350.044122 119.852901,350.242606 Z M99.3521897,297.682078 C99.286262,297.913873 99.4882533,298.0957 99.7211043,298.160935 C99.9553581,298.226171 100.137711,298.0263 100.203639,297.795893 C100.269567,297.564098 100.067575,297.382271 99.8347244,297.317035 L99.8347244,297.317035 C99.5682082,297.367003 99.4181174,297.448895 99.3521897,297.682078 L99.3521897,297.682078 Z M110.122252,298.056836 C110.056324,298.288631 110.258316,298.470458 110.491167,298.535693 C110.725421,298.600929 110.907774,298.401058 110.973701,298.170651 C111.039629,297.938856 110.837638,297.757029 110.604787,297.691794 L110.604787,297.691794 C110.254108,297.593246 110.071754,297.791729 110.122252,298.056836 L110.122252,298.056836 Z M115.357193,339.344083 C115.173437,339.542566 115.22674,339.807672 115.3095,339.956188 C115.510089,340.138015 115.744343,340.20325 115.928099,340.003379 L115.928099,340.003379 C116.111854,339.804896 116.176379,339.573102 115.975791,339.391274 L115.975791,339.391274 C115.891628,339.242759 115.655971,339.178911 115.357193,339.344083 Z M119.360547,281.096946 C119.29462,281.328741 119.347923,281.59246 119.579371,281.659084 L119.579371,281.659084 C119.813625,281.724319 120.081544,281.672964 120.146069,281.442557 L120.146069,281.442557 C120.211997,281.210762 120.160096,280.947043 119.927245,280.88042 L119.927245,280.88042 C119.694394,280.815184 119.426475,280.86654 119.360547,281.096946 Z M108.117769,317.161175 C107.84985,317.21253 107.75166,317.559529 107.83442,317.708044 C107.886321,317.973151 108.120575,318.038386 108.387091,317.988419 C108.65501,317.937063 108.719535,317.705268 108.67044,317.441549 C108.619942,317.175055 108.26786,317.077895 108.117769,317.161175 L108.117769,317.161175 Z M118.151405,313.446905 C117.883486,313.498261 117.818961,313.730055 117.868056,313.993774 L117.868056,313.993774 C117.919957,314.258881 118.154211,314.324117 118.420727,314.274149 C118.688646,314.222793 118.753171,313.990998 118.704076,313.727279 C118.652175,313.462173 118.417922,313.396937 118.151405,313.446905 L118.151405,313.446905 Z M115.012124,284.39343 C114.979862,284.510022 115.18045,284.690461 115.298279,284.723773 L115.298279,284.723773 C115.416107,284.755697 115.59846,284.557214 115.630723,284.440622 L115.630723,284.440622 C115.662985,284.324031 115.462396,284.143592 115.344568,284.11028 L115.344568,284.11028 C115.108912,284.045044 115.078052,284.160248 115.012124,284.39343 L115.012124,284.39343 Z M125.504449,312.493353 C125.354358,312.576633 125.438521,312.725148 125.522684,312.873664 L125.522684,312.873664 C125.60825,313.022179 125.874766,312.972211 125.907029,312.85562 C126.057119,312.77234 126.006621,312.507233 125.888793,312.47531 C125.803227,312.328182 125.654539,312.411462 125.504449,312.493353 L125.504449,312.493353 L125.504449,312.493353 Z M122.439512,270.685609 C122.407249,270.802201 122.457747,271.065919 122.575575,271.099231 L122.575575,271.099231 C122.693403,271.131155 122.95992,271.081187 122.992182,270.964596 C123.024445,270.848004 122.973947,270.584286 122.856119,270.550974 L122.856119,270.550974 C122.621865,270.487126 122.471774,270.570406 122.439512,270.685609 L122.439512,270.685609 Z M89.3283728,303.149383 C89.0604538,303.200739 88.9622636,303.547737 89.0127614,303.812844 C89.064662,304.07795 89.4153413,304.176498 89.6832602,304.12653 C89.9511792,304.075175 90.0493694,303.728176 89.9988716,303.463069 C89.9455684,303.196575 89.5962918,303.098027 89.3283728,303.149383 Z M100.945676,298.75222 C100.677757,298.803576 100.579567,299.150575 100.630065,299.415681 C100.681966,299.680788 101.032645,299.779335 101.300564,299.729368 C101.568483,299.678012 101.666673,299.331014 101.616175,299.065907 C101.447849,298.7661 101.212193,298.700865 100.945676,298.75222 L100.945676,298.75222 Z M112.446555,294.321746 C112.178636,294.373102 112.080445,294.7201 112.130943,294.985207 C112.182844,295.250314 112.533523,295.348861 112.801442,295.298893 C113.069361,295.247538 113.167551,294.900539 113.117053,294.635433 C113.065153,294.368938 112.714474,294.27039 112.446555,294.321746 Z M114.964432,277.867086 C115.016332,278.132193 115.183256,278.429223 115.451175,278.377868 C115.719094,278.326512 116.017872,278.161341 115.965972,277.896234 C115.914071,277.631127 115.747148,277.334097 115.479229,277.385453 C115.214116,277.43542 114.912531,277.603368 114.964432,277.867086 L114.964432,277.867086 Z M107.032066,320.98926 C106.84831,321.187743 106.866546,321.569441 107.06994,321.751268 C107.270528,321.933095 107.656275,321.915052 107.838629,321.715181 C108.022385,321.516697 108.121977,321.168311 107.918583,320.986484 L107.918583,320.986484 C107.598764,320.772733 107.332248,320.824089 107.032066,320.98926 L107.032066,320.98926 L107.032066,320.98926 Z M116.023483,312.478086 C115.839727,312.676569 115.740134,313.024955 116.061357,313.240094 L116.061357,313.240094 C116.261945,313.421921 116.531267,313.370565 116.797783,313.320597 L116.797783,313.320597 C116.981539,313.122114 117.081132,312.773728 116.877738,312.591901 C116.590181,312.260171 116.323665,312.311526 116.023483,312.478086 L116.023483,312.478086 Z M119.965119,270.495454 C120.017019,270.760561 120.183942,271.057591 120.451861,271.006236 C120.71978,270.95488 121.018559,270.789709 120.966659,270.524602 C121.032586,270.292807 120.862858,269.995777 120.479916,270.013821 L120.479916,270.013821 C120.245662,269.948585 119.945481,270.115144 119.965119,270.495454 L119.965119,270.495454 Z M99.8389326,316.478282 C99.6551766,316.676765 99.5555837,317.025151 99.7589777,317.206979 C99.960969,317.388806 100.311648,317.487353 100.495404,317.287482 C100.67916,317.088999 100.743685,316.857204 100.575359,316.558786 C100.373368,316.375571 100.021286,316.278411 99.8389326,316.478282 L99.8389326,316.478282 Z M109.199264,308.443189 C109.015508,308.641672 108.915915,308.990059 109.119309,309.171886 C109.319898,309.353713 109.555554,309.418948 109.855736,309.252389 C110.039492,309.053906 110.139085,308.70552 109.935691,308.523693 C109.617274,308.309942 109.381618,308.244706 109.199264,308.443189 Z M118.44317,300.380337 C118.259414,300.57882 118.159822,300.927206 118.363216,301.109033 C118.563804,301.29086 118.915886,301.389408 119.099642,301.189537 C119.283398,300.991054 119.382991,300.642667 119.179597,300.46084 L119.179597,300.46084 C119.011271,300.161034 118.625524,300.180465 118.44317,300.380337 L118.44317,300.380337 Z M104.620795,287.127777 C104.352876,287.179133 104.254686,287.526131 104.305184,287.791238 L104.305184,287.791238 C104.357085,288.056345 104.707764,288.154892 104.975683,288.104924 C105.243602,288.053569 105.341792,287.70657 105.291294,287.441464 C105.124371,287.144433 104.890117,287.077809 104.620795,287.127777 L104.620795,287.127777 Z M116.375565,283.144237 C116.107646,283.195592 116.009456,283.542591 116.059954,283.807697 C116.111854,284.072804 116.462534,284.171352 116.730453,284.121384 L116.730453,284.121384 C116.998372,284.070028 117.096562,283.72303 117.046064,283.457923 C116.877738,283.159504 116.643484,283.092881 116.375565,283.144237 L116.375565,283.144237 L116.375565,283.144237 Z M118.451587,306.143284 C118.267831,306.341767 118.351994,306.491671 118.555388,306.67211 C118.755976,306.853937 118.90747,306.770657 119.091226,306.570786 C119.274982,306.372303 119.190819,306.2224 118.987425,306.041961 L118.987425,306.041961 C118.753171,305.975337 118.635343,305.943413 118.451587,306.143284 Z M109.360577,288.701761 C109.210486,288.785041 109.144558,289.016836 109.230124,289.165351 C109.31569,289.313866 109.548541,289.38049 109.697229,289.295823 C109.84732,289.212543 109.913247,288.980748 109.827682,288.832233 L109.827682,288.832233 C109.744921,288.683718 109.51207,288.61987 109.360577,288.701761 L109.360577,288.701761 L109.360577,288.701761 Z M117.384119,284.051984 C117.234028,284.135264 117.168101,284.367059 117.218598,284.632165 C117.304164,284.780681 117.537015,284.847304 117.685703,284.762637 L117.685703,284.762637 C117.835794,284.679357 117.901722,284.447562 117.816156,284.299047 L117.816156,284.299047 C117.800726,283.918737 117.566472,283.853501 117.384119,284.051984 L117.384119,284.051984 L117.384119,284.051984 Z" opacity=".86"/>
    <path fill="#FFBEB6" fill-rule="nonzero" d="M85.0023677,162.666977 C84.4430174,165.80398 79.9955007,173.587837 79.6762618,179.665438 C79.3174591,186.483645 76.2805964,197.209465 86.845495,204.855567 C94.8182826,210.624924 99.5372888,211 109.379125,211 C119.608413,211 131.495288,205.578442 137.238861,200.555146 C139.870535,198.252859 147.095704,187.303357 147.739639,183.867658 C149.492724,174.523482 150.198051,168.56045 144.522692,160.933443 C141.399881,156.738043 136.57719,154.190252 131.814527,152.027084 C124.585266,148.744143 117.100887,146.023134 109.451431,143.894064 C107.265872,143.285759 104.977993,142.722462 102.748778,143.149367 C100.770588,143.528535 99.0202309,144.65922 97.4404075,145.908565 C91.1115639,150.91413 86.4198431,154.722178 85.0023677,162.666977 Z"/>
    <path fill="url(#subscribe-f)" fill-rule="nonzero" d="M155.666576,260.625139 C149.9195,268.807475 145.939154,278.019669 136.19369,275.609774 C128.616043,273.736178 128.797851,257.334281 129.112893,249.583465 C129.427934,241.834028 131.982961,235.969216 137.609294,230.59107 C143.735252,224.737288 141.765897,225.816777 147.864098,219.9368 C188.841678,180.43135 231.666483,141.846844 267.896238,98 C281.612333,110.869774 294.920401,121.299323 311,131.10434 C278.436938,154.130689 245.872488,177.158416 213.309427,200.184765 C202.888081,207.555071 192.402894,214.976388 183.466545,224.068639 C172.712117,235.012427 164.473855,248.084864 155.666576,260.625139 Z"/>
    <path fill="#EEE" fill-rule="nonzero" d="M68.7632595,418.046881 C57.9892543,402.199384 60.8949162,397.102349 55.5252753,387.50323 C50.1556344,377.904112 48.1583391,380.717741 48,369.741418 C74.5843058,374.51481 88.8389939,369.832314 114.962172,363 C116.3275,388.251052 124.175009,412.842424 135.147632,435.669596 C141.5437,448.97615 149.170368,462.326774 149.946785,477.049095 C150.721813,491.770039 143.028476,527.978134 127.043169,510.191532 C111.762055,495.955364 96.4976074,480.596775 89.1515054,461.124474 C83.4443522,445.994501 81.881795,427.623964 68.7632595,418.046881 Z"/>
    <path fill="url(#subscribe-g)" fill-rule="nonzero" d="M159.211401,421.098979 C158.430365,420.112509 155.741054,418.370298 154.012805,419.232423 C143.615613,424.418988 123.246366,434.63876 114.397397,444.240951 C113.027815,445.727564 111.604225,447.310889 111.161084,449.282447 C110.863349,450.601885 111.035066,451.975206 111.222016,453.313986 C114.017958,473.354243 120.137456,492.854291 128.602831,511.240761 C132.502471,519.710032 136.547516,511.633138 141.394369,508.705506 C145.202611,506.405125 167.867881,479.83814 173.746421,462.373205 C175.638079,441.843857 166.56477,431.574348 159.211401,421.098979 Z"/>
    <path fill="#63302F" fill-rule="nonzero" d="M0.987211268,88.7469062 C0.943985915,88.7469062 0.899366197,88.7427344 0.856140845,88.7343906 C0.478267606,88.6634687 0.228676056,88.299125 0.301183099,87.9222656 C1.65790141,80.7466406 3.0606338,73.3262656 6.60092958,66.6929844 C10.5553521,59.2879062 16.9485211,54.1690156 23.702831,52.9967187 C25.526662,52.6810469 27.3853521,52.6365469 29.1826901,52.5920469 C30.9786338,52.5489375 32.8345352,52.5044375 34.5998028,52.1832031 C44.279493,50.4198906 49.6296761,41.6909375 55.2949859,32.4488437 C60.6117042,23.7755156 66.1082958,14.807375 75.563493,11.9802344 C77.9952676,11.2529375 80.7087042,10.9038906 83.331507,10.5645781 C89.2547746,9.801125 94.8489718,9.08078125 97.1245775,4.33875 C97.4592254,3.64065625 97.6600141,2.4975625 97.0548592,2.14017187 C96.723,1.94409375 96.6128451,1.5185625 96.8080563,1.18759375 C97.0060563,0.856625 97.4355211,0.74815625 97.7631972,0.94284375 C99.1240986,1.74384375 99.0376479,3.57529687 98.3822958,4.9395 C95.7804085,10.3629375 89.5420141,11.1681094 83.5099859,11.9454687 C80.9415634,12.2764375 78.2866901,12.6185312 75.9636761,13.3124531 C67.0188169,15.986625 61.6630563,24.7253125 56.4843803,33.17475 C50.9083099,42.2722187 45.1426056,51.6770156 34.8493944,53.5515781 C32.9767606,53.8922812 31.0650845,53.9381719 29.2161549,53.9840625 C27.4690141,54.0257812 25.6633099,54.0702812 23.942662,54.367875 C17.6080563,55.4664687 11.5871831,60.3183594 7.83215493,67.3465781 C4.39085915,73.792125 3.00904225,81.1068125 1.67184507,88.1795312 C1.60909859,88.5146719 1.31628169,88.7469062 0.987211268,88.7469062 Z" transform="translate(128 53)"/>
    <path fill="#63302F" fill-rule="nonzero" d="M0.84,91.2997015 C0.470344828,91.2997015 0.165517241,91.0099701 0.150344828,90.640597 C-0.44,75.501791 0.48137931,60.3451343 11.137931,52.021194 C14.7765517,49.1801791 19.1751724,47.5461493 23.4289655,45.9656716 C27.702069,44.3783284 32.12,42.7374328 35.6344828,39.8826866 C40.1117241,36.2493731 42.7117241,31.1481791 45.4634483,25.7476418 C47.7144828,21.3316418 50.0413793,16.764597 53.4882759,13.114806 C60.1889655,6.01570149 70.4110345,3.18429851 78.6248276,0.909014925 C78.9931034,0.808776119 79.3710345,1.02161194 79.4731034,1.38686567 C79.5751724,1.7521194 79.3613793,2.13110448 78.9931034,2.23271642 C70.9462069,4.46131343 60.9296552,7.23641791 54.4924138,14.0540299 C51.182069,17.5610149 48.8993103,22.0374328 46.6937931,26.3682985 C43.9972414,31.6589851 41.2082759,37.1295522 36.5062069,40.9482388 C32.8137931,43.945791 28.2882759,45.6265075 23.9103448,47.2522985 C19.7544828,48.7957015 15.457931,50.3912836 11.9875862,53.1018507 C1.81931034,61.0440597 0.950344828,75.8121194 1.52827586,90.5856716 C1.54344828,90.9646567 1.24551724,91.2832239 0.866206897,91.2983284 C0.856551724,91.2997015 0.848275862,91.2997015 0.84,91.2997015 Z" transform="translate(127 48)"/>
    <rect width="13" height="12" x="126" y="135" fill="#428DFC" fill-rule="nonzero"/>
    <path fill="#63302F" fill-rule="nonzero" d="M88,154.494557 C92.3394822,138.990317 112.383954,137.385612 125.162924,140.045236 C136.184355,142.339266 146.300179,149.732072 150.353391,160.373359 C154.405226,171.014646 150.561212,183.214589 143.383794,192 C126.237816,186.112826 139.186071,169.88298 134.497008,161.408742 C131.557226,156.096471 123.293905,150.834435 117.550594,149.046933 C106.39979,145.575189 102.346579,145.308668 88,154.494557 Z"/>
    <path fill="#FFF" fill-rule="nonzero" d="M86.1072014,183 C86.4998369,184.14219 87.7873485,186.548948 89.7019671,187.714253 C100.462678,194.268249 111.826911,194.268249 124,190.830801 C116.485816,195.452591 108.030971,198.619449 99.1890408,197.897422 C95.9508381,197.63227 92.6377155,196.948316 89.9891599,195.104495 C87.3392168,193.260674 85.5314284,186.134224 86.1072014,183 Z"/>
    <path fill="#63302F" fill-rule="nonzero" d="M44.4878778,25.8864211 C41.4278868,25.8864211 38.8248362,25.0311579 36.6965645,23.3192632 C33.8684741,21.0422105 32.5991954,17.6184211 31.3710824,14.3068421 C30.4366188,11.7862105 29.4705947,9.18073684 27.8280794,7.15410526 C18.8511911,-3.91094737 6.42872544,4.03957895 1.7509186,7.03094737 C1.43531415,7.23210526 1.00856205,7.14315789 0.804105253,6.82431579 C0.599648456,6.50684211 0.692957598,6.08263158 1.01130644,5.87873684 C5.9690407,2.70536842 19.1434682,-5.72410526 28.8942736,6.29336842 C30.679497,8.49378947 31.6853147,11.2073684 32.6581997,13.832 C33.8753351,17.1134737 35.0238609,20.2143158 37.5583018,22.2532632 C41.80524,25.6729474 48.3341355,25.2158947 56.9611146,20.9053684 L57.2561361,20.7575789 C63.6958391,17.5376842 70.9945351,13.8881053 77.7731698,16.6673684 C79.4815504,17.368 80.9991962,18.4435789 82.4660708,19.4835789 C84.3006932,20.7835789 86.0337733,22.0124211 88.0742246,22.5324211 C91.9726257,23.5258947 96.1687927,21.5717895 98.9817889,20.0131579 C105.3076,16.5058947 110.903404,11.9490526 115.611399,6.46989474 C115.858394,6.18389474 116.293379,6.15242105 116.578795,6.39463158 C116.866956,6.64094737 116.899889,7.07336842 116.654266,7.35936842 C111.837868,12.9630526 106.117194,17.6225263 99.6486748,21.2091579 C96.632594,22.8813684 92.1112172,24.9750526 87.7325485,23.8584211 C85.4451023,23.2754737 83.5267762,21.9152632 81.6701987,20.6002105 C80.266445,19.604 78.8146645,18.5763158 77.248992,17.9345263 C71.0494228,15.3906316 64.0471206,18.8937895 57.8695065,21.9823158 L57.5731128,22.1301053 C52.5659796,24.6343158 48.1927996,25.8864211 44.4878778,25.8864211 Z" transform="translate(88 147)"/>
  </g>
</svg>
