<svg xmlns="http://www.w3.org/2000/svg" width="17" height="14" viewBox="0 0 17 14">
  <path fill="#1DA1F2" fill-rule="evenodd" d="M300,3.6625 C299.518187,4.37708691 298.935706,4.98593498 298.252538,5.4890625 C298.259729,5.59114634 298.263325,5.74426981 298.263325,5.9484375 C298.263325,6.89635891 298.126693,7.8424432 297.853426,8.78671875 C297.580159,9.7309943 297.164872,10.6369748 296.607551,11.5046875 C296.05023,12.3724002 295.386848,13.1398404 294.617386,13.8070313 C293.847923,14.4742221 292.920268,15.0065084 291.834391,15.4039062 C290.748514,15.8013041 289.587147,16 288.350254,16 C286.401428,16 284.618028,15.4713595 283,14.4140625 C283.251693,14.4432293 283.532147,14.4578125 283.841371,14.4578125 C285.459399,14.4578125 286.90122,13.9546925 288.166878,12.9484375 C287.411798,12.9338541 286.735832,12.6987002 286.138959,12.2429688 C285.542087,11.7872373 285.132192,11.2057327 284.909264,10.4984375 C285.146575,10.534896 285.365904,10.553125 285.567259,10.553125 C285.876482,10.553125 286.182105,10.5130212 286.484137,10.4328125 C285.678718,10.2651033 285.011741,9.85859698 284.483185,9.21328125 C283.954629,8.56796552 283.690355,7.81875427 283.690355,6.965625 L283.690355,6.921875 C284.179359,7.19895972 284.704312,7.34843739 285.265228,7.3703125 C284.790607,7.04947756 284.413072,6.63021092 284.132614,6.1125 C283.852156,5.59478908 283.711929,5.03333636 283.711929,4.428125 C283.711929,3.78645512 283.870134,3.19219023 284.186548,2.6453125 C285.056688,3.73177627 286.115582,4.60129882 287.363261,5.25390625 C288.610941,5.90651368 289.946693,6.26927047 291.370558,6.3421875 C291.313028,6.06510278 291.284264,5.79531381 291.284264,5.5328125 C291.284264,4.55572428 291.624045,3.7226597 292.303617,3.03359375 C292.983189,2.3445278 293.804775,2 294.768401,2 C295.775174,2 296.623728,2.37187128 297.314086,3.115625 C298.097931,2.96249923 298.835022,2.67812708 299.525381,2.2625 C299.259305,3.10104586 298.748735,3.7499977 297.993655,4.209375 C298.66244,4.13645797 299.331215,3.95416813 300,3.6625 Z" transform="translate(-283 -2)"/>
</svg>
