<svg xmlns="http://www.w3.org/2000/svg" width="63" height="63" viewBox="0 0 63 63">
  <g fill="none" fill-rule="evenodd">
    <circle cx="31.5" cy="31.5" r="31.5" fill="#EDEEF4"/>
    <path fill="#141414" fill-rule="nonzero" d="M45.9375,22.4843371 C44.8754188,22.9584828 43.7329306,23.2791761 42.5347758,23.4223983 C43.758113,22.6844924 44.6969327,21.5169197 45.1400555,20.1233938 C43.9953583,20.8070354 42.7269577,21.3029759 41.37815,21.5702944 C40.2975133,20.4116175 38.7578491,19.6875 37.0529526,19.6875 C33.781884,19.6875 31.1288901,22.3584616 31.1288901,25.6516838 C31.1288901,26.1191577 31.181464,26.5741775 31.2830774,27.0109609 C26.3596863,26.7623235 21.9942853,24.3880366 19.0722368,20.7785689 C18.5624025,21.6592523 18.2699325,22.6844924 18.2699325,23.7773404 C18.2699325,25.8460569 19.3165508,27.672363 20.9052545,28.7416372 C19.9346254,28.7109468 19.0205465,28.4427386 18.2222184,27.9948355 C18.2217766,28.0201885 18.2217766,28.0455415 18.2217766,28.0704497 C18.2217766,30.9602478 20.2646482,33.3705627 22.9741921,33.9180987 C22.4776118,34.0550939 21.9531982,34.1275946 21.4137634,34.1275946 C21.0311668,34.1275946 20.6604987,34.0906771 20.2991084,34.0212899 C21.0528149,36.3902393 23.2401542,38.1146886 25.8330637,38.1631707 C23.8052132,39.7630789 21.251182,40.7162631 18.4749266,40.7162631 C17.9977853,40.7162631 17.525062,40.6882413 17.0625,40.6326426 C19.6828009,42.3255119 22.7974731,43.3125 26.1427637,43.3125 C37.0392569,43.3125 42.9982213,34.2245587 42.9982213,26.3424421 C42.9982213,26.0840193 42.992478,25.8264862 42.9809912,25.5711769 C44.1393842,24.7305246 45.1435899,23.6803763 45.9375,22.4843371 L45.9375,22.4843371 Z"/>
  </g>
</svg>
