<svg xmlns="http://www.w3.org/2000/svg" width="32" height="34" viewBox="0 0 32 34">
  <g fill="none" transform="translate(1)">
    <path fill="#04087F" stroke="#04087F" d="M5.895,28.108 C6.289,28.79 6.838,28.928 7.543,28.52 L7.543,28.52 L13.753,24.935 L17.423,31.29 C17.88,32.082 18.488,32.259 19.248,31.82 C19.971,31.403 20.104,30.798 19.646,30.006 L19.646,30.006 L15.977,23.651 L21.32,20.566 L24.989,26.922 C25.372,27.585 25.925,27.708 26.648,27.29 C27.408,26.852 27.596,26.3 27.213,25.638 L27.213,25.638 L23.543,19.282 L29.753,15.697 C30.405,15.321 30.491,14.719 30.013,13.89 C29.619,13.208 29.102,13.064 28.461,13.459 L28.461,13.459 L22.283,17.099 L18.231,10.081 L24.441,6.495 C25.164,6.078 25.303,5.482 24.856,4.708 C24.431,3.972 23.856,3.812 23.133,4.229 L23.133,4.229 L16.923,7.815 L13.253,1.459 C12.796,0.667 12.242,0.459 11.591,0.835 C10.759,1.315 10.572,1.951 11.03,2.743 L11.03,2.743 L14.699,9.1 L9.356,12.184 L5.687,5.829 C5.23,5.037 4.64,4.849 3.917,5.267 C3.157,5.705 3.006,6.321 3.463,7.113 L3.463,7.113 L7.133,13.468 L0.89,16.998 C0.175,17.388 0.056,17.996 0.535,18.825 C0.928,19.506 1.483,19.653 2.199,19.265 L2.199,19.265 L8.441,15.734 L12.461,22.697 L6.251,26.283 C5.546,26.69 5.427,27.299 5.895,28.109 L5.895,28.108 Z M14.787,21.414 L10.698,14.333 L15.948,11.376 L20.005,18.401 L14.787,21.414 L14.787,21.414 Z"/>
    <path fill="#A97BFF" stroke="#A97BFF" d="M5.958,29.005 C6.351,29.687 6.898,29.825 7.6,29.42 L13.779,25.853 L17.449,32.208 C17.905,33 18.512,33.178 19.267,32.742 C19.987,32.327 20.117,31.723 19.661,30.931 L15.991,24.576 L21.306,21.506 L24.976,27.862 C25.359,28.525 25.91,28.649 26.629,28.234 C27.385,27.798 27.571,27.248 27.189,26.584 L23.519,20.229 L29.698,16.662 C30.345,16.288 30.43,15.687 29.951,14.858 C29.557,14.176 29.042,14.032 28.405,14.424 L22.259,18.046 L18.206,11.028 L24.385,7.461 C25.105,7.045 25.241,6.451 24.795,5.677 C24.369,4.94 23.796,4.779 23.077,5.195 L16.898,8.762 L13.228,2.407 C12.772,1.615 12.219,1.405 11.572,1.779 C10.744,2.257 10.559,2.892 11.016,3.684 L14.686,10.039 L9.371,13.109 L5.7,6.752 C5.243,5.96 4.654,5.772 3.935,6.187 C3.18,6.623 3.03,7.237 3.488,8.029 L7.158,14.385 L0.947,17.896 C0.234,18.283 0.117,18.891 0.597,19.72 C0.99,20.401 1.543,20.549 2.255,20.162 L8.465,16.65 L12.485,23.614 L6.307,27.181 C5.605,27.586 5.489,28.194 5.957,29.004 L5.958,29.005 Z M14.747,22.707 L10.64,15.594 L15.798,12.691 L19.872,19.748 L14.747,22.708 L14.747,22.707 Z"/>
    <path fill="#15FFF6" stroke="#15FFF6" d="M15.984,12.42 L24.411,7.554 C25.138,7.134 25.28,6.54 24.836,5.772 C24.414,5.041 23.84,4.885 23.113,5.305 L16.87,8.909 L13.229,2.6 C12.775,1.814 12.221,1.61 11.567,1.987 C10.731,2.47 10.54,3.104 10.994,3.891 L14.636,10.199 L15.984,12.419 L15.984,12.42 Z"/>
  </g>
</svg>
